<svg width="74" height="81" viewBox="0 0 74 81" fill="none" xmlns="http://www.w3.org/2000/svg">
<path d="M33.9899 19.998C33.8577 19.8341 33.6698 19.7204 33.4799 19.7144C32.9598 19.6961 32.5842 19.4005 32.2248 19.0959C31.8922 18.8133 31.5988 18.4831 31.3091 18.1548C31.2093 18.0408 31.1785 17.8698 31.1106 17.7268C31.0546 17.6072 30.9413 17.5389 30.8257 17.5582C30.1227 17.674 29.692 17.2832 29.3478 16.7596C29.1723 16.4945 29.0493 16.1974 28.9012 15.9132C27.9708 15.6732 27.9217 15.619 27.7386 14.673C27.7317 14.637 27.7084 14.6035 27.6922 14.5672C27.4456 14.3855 27.1529 14.4693 26.8815 14.434C26.5842 14.3942 26.338 14.278 26.2046 14.0085C26.0734 13.742 25.8679 13.5476 25.6176 13.432C25.1216 13.2044 24.8127 12.7966 24.5231 12.3936C24.2705 12.2456 24.0295 12.3907 23.7967 12.349C23.6 12.3138 23.4043 12.2734 23.2164 12.2117C22.9112 12.1117 22.6319 11.9642 22.4103 11.7176C22.2246 11.5095 22.0039 11.3324 21.8213 11.1221C21.6676 10.9437 21.5459 10.7364 21.4121 10.5442C21.3701 10.5327 21.3298 10.504 21.2938 10.5109C20.6275 10.6306 20.1313 10.419 19.8186 9.79417C19.7133 9.58439 19.5472 9.40115 19.3914 9.21971C19.3164 9.13151 19.2033 9.06984 19.0721 9.10911C18.9972 9.13176 18.9188 9.15245 18.8505 9.19096C18.6251 9.31617 18.3933 9.32805 18.1589 9.23534C17.9307 9.14509 17.7395 8.99735 17.6115 8.78751C17.4878 8.58377 17.3926 8.3625 17.2734 8.15558C17.1671 7.97365 16.9743 7.82025 16.6633 7.96885C16.6281 7.98658 16.5896 7.99973 16.5544 8.01746C16.2557 8.16426 16.0142 8.05162 15.7961 7.84567C15.4728 7.54078 15.2049 7.19502 15.0342 6.78392C14.9095 6.4812 14.6893 6.35369 14.3755 6.39098C14.1271 6.42127 13.9169 6.37961 13.6946 6.24902C13.4942 6.13036 13.25 6.08531 13.0242 6.01151C12.8171 5.94506 12.6347 5.97917 12.4887 6.15331C12.3528 6.3159 12.1798 6.40242 11.9683 6.39793C11.6386 6.38965 11.3255 6.30423 11.0983 6.05927C10.9381 5.88772 10.8203 5.67306 10.6889 5.47463C10.4139 5.05688 10.3646 5.04132 9.93268 5.25373C9.89746 5.27146 9.86288 5.29332 9.83191 5.31715C9.46425 5.5958 8.67616 5.30649 8.47723 4.9037C8.40678 4.76024 8.35115 4.60872 8.27155 4.47163C8.12721 4.21881 7.82092 4.14001 7.54481 4.28017C7.43915 4.33336 7.34107 4.4039 7.2398 4.46988C7.03069 4.60869 6.79488 4.65059 6.553 4.62197C5.32393 4.4767 4.09392 4.33658 2.89192 4.02525C2.30621 3.87365 1.76215 3.63874 1.28314 3.25657C0.925717 2.97094 0.69467 2.61311 0.572416 2.17732C0.437938 1.69795 0.597546 1.2018 0.986157 0.888178C1.20785 0.708899 1.45878 0.597586 1.73638 0.531126C2.41211 0.366377 3.08698 0.415133 3.75494 0.554751C4.3007 0.668484 4.84441 0.808501 5.38262 0.956932C6.5368 1.27439 7.68818 1.60743 8.8399 1.93112C9.68881 2.17123 10.4843 2.54595 11.2959 2.8822C12.2917 3.29413 13.2742 3.74241 14.2836 4.1154C15.4093 4.53191 16.496 5.03221 17.5892 5.51899C18.1704 5.77793 18.732 6.08679 19.2954 6.38527C20.1757 6.85264 21.0681 7.30481 21.9246 7.81598C22.6422 8.24488 23.3476 8.70499 24.0026 9.22282C25.0936 10.0871 26.3194 10.7872 27.2369 11.8674C27.333 11.9794 27.4959 12.054 27.6422 12.1015C28.0695 12.2434 28.4398 12.4793 28.7493 12.7938C29.172 13.2219 29.6415 13.5904 30.11 13.964C30.4837 14.2632 30.8297 14.5975 31.1898 14.913C31.5499 15.2285 31.9181 15.5361 32.2752 15.8537C32.5136 16.0659 32.7423 16.2871 32.9726 16.5073C33.3154 16.837 33.6107 17.209 34.0355 17.4613C34.5229 17.7515 34.8283 18.2388 35.1502 18.7304C35.9574 19.0018 36.5741 19.5621 37.1558 20.1763C37.6231 20.6685 38.1131 21.1381 38.5936 21.6167C38.7351 21.7582 38.9098 21.8789 39.0111 22.0439C39.3737 22.6362 39.9288 23.0334 40.4167 23.4999C40.7622 23.8301 41.1102 24.1608 41.4491 24.4979C41.76 24.8046 42.0219 25.1612 42.4076 25.3932C42.5402 25.473 42.6582 25.5969 42.7489 25.7239C43.1251 26.2479 43.5704 26.6922 44.1038 27.0614C44.2936 27.1942 44.4611 27.3924 44.5709 27.599C44.8004 28.0326 45.1422 28.3608 45.4725 28.7084C46.2138 29.49 46.9743 30.2537 47.6092 31.1297C47.7036 31.2588 47.8041 31.3836 47.8883 31.5175C48.1398 31.9177 48.3012 32.3806 48.7185 32.6676C48.81 32.7307 48.8681 32.8532 48.927 32.9572C49.3222 33.6582 49.8235 34.274 50.4151 34.8178C50.5606 34.952 50.7074 35.1011 50.8052 35.2709C51.2475 36.0297 51.765 36.7338 52.2637 37.4533C52.5059 37.8011 52.5909 38.2583 52.7602 38.6999C52.8508 38.7682 53.0239 38.8378 53.0961 38.9642C53.414 39.5152 53.8974 39.9622 54.11 40.5798C54.2425 40.9653 54.5227 41.2505 54.7983 41.5455C55.1514 41.9225 55.4579 42.3432 55.7741 42.755C55.8704 42.8804 55.9666 43.0217 56.0067 43.1705C56.1667 43.7612 56.5296 44.2401 56.8344 44.7527C57.4486 45.7813 57.9706 46.8561 58.421 47.9648C58.4931 48.1433 58.3844 48.4001 58.5866 48.5084C58.8958 48.6759 59.025 48.9461 59.1456 49.2494C59.3375 49.7364 59.6521 50.1493 59.9815 50.554C60.5156 51.2104 60.9522 51.9188 61.0892 52.7792C61.133 53.0567 61.2546 53.3094 61.4441 53.5263C61.7133 53.8348 61.8651 54.2025 61.9407 54.6006C62.1065 55.4794 62.5324 56.2473 62.9843 56.9971C63.1513 57.2727 63.2994 57.5342 63.3555 57.862C63.4726 58.5279 63.6729 59.1699 64.0012 59.7748C64.2866 60.2985 64.3894 60.8951 64.5474 61.4668C64.5563 61.4991 64.4328 61.6145 64.397 61.6054C64.0448 61.4996 63.7004 61.4473 63.3529 61.6281C63.1554 61.7316 63.0529 62.0657 63.1758 62.252C63.2189 62.3171 63.2767 62.3742 63.3351 62.4287C63.5201 62.6034 63.6136 62.6108 63.853 62.4667C63.9503 62.408 64.062 62.2985 64.153 62.3121C64.4168 62.3527 64.6145 62.2332 64.8267 62.1216C64.9211 62.0718 65.0612 62.169 65.085 62.2974C65.1134 62.4521 65.1372 62.6098 65.1331 62.7667C65.1314 62.8358 65.0663 62.9536 65.0169 62.9608C64.6242 63.0213 64.313 63.3127 63.9135 63.344L63.9327 63.3488C63.612 63.4249 63.5352 63.526 63.6725 63.6908C63.8491 63.9053 64.0313 64.1182 64.2063 64.3338C64.329 64.4839 64.2723 64.6367 64.0781 64.6994C63.8179 64.7809 63.6249 64.725 63.6052 64.5146C63.5756 64.2249 63.4756 63.9707 63.3224 63.7376C63.0404 63.3066 62.7543 62.8762 62.4407 62.4649C62.2384 62.2003 62.0904 61.9228 62.108 61.5935C62.1313 61.1651 61.9865 60.8107 61.6994 60.5123C61.4662 60.2716 61.3429 59.9905 61.2997 59.665C61.2566 59.3462 61.1293 59.0657 60.9765 58.7779C60.5325 57.932 60.1267 57.0663 59.724 56.1985C59.607 55.9492 59.5035 55.677 59.4796 55.4083C59.4393 54.9471 59.2419 54.5727 58.9805 54.2134C58.8166 53.9878 58.6435 53.7686 58.4934 53.5334C58.1702 53.0269 57.8744 52.5013 57.749 51.9114C57.6566 51.473 57.4991 51.0776 57.2723 50.6965C57.1308 50.4575 57.0321 50.1955 56.91 49.9453C56.8584 49.8386 56.8182 49.7127 56.7337 49.6401C56.2404 49.2113 56.0484 48.5681 55.61 48.1011C55.3297 47.8025 55.2642 47.3996 55.1324 47.0248C55.0164 46.6956 54.6031 46.5508 54.4925 46.1839C54.4356 45.9948 54.3422 45.8152 54.273 45.6279C54.1727 45.3603 54.0056 45.1528 53.7994 44.9544C53.2741 44.4504 52.877 43.8572 52.7 43.1379C52.6224 42.8182 52.466 42.5579 52.2329 42.3239C51.8633 41.9493 51.6419 41.4784 51.4567 40.9913C51.343 40.6946 51.211 40.4172 50.962 40.1897C50.7934 40.0354 50.6749 39.8099 50.5782 39.5963C50.4763 39.3751 50.3576 39.1883 50.1757 39.0182C49.821 38.6877 49.6482 38.2281 49.4048 37.8201C49.2992 37.6423 49.1705 37.503 48.9902 37.4067C48.2329 37.0054 47.8457 36.3192 47.6109 35.5428C47.4872 35.1375 47.298 34.8366 46.9437 34.6009C46.4011 34.2381 46.0757 33.6765 45.741 33.1372C45.5907 32.8953 45.4193 32.7044 45.1854 32.5343C44.4689 32.0095 43.8734 31.3755 43.5876 30.5032C43.5393 30.3557 43.4657 30.185 43.3474 30.0997C42.9486 29.8067 42.7666 29.3468 42.4545 28.9865C42.1146 28.5959 41.8036 28.185 41.3913 27.8629C41.2368 27.7417 41.0782 27.5985 40.9912 27.4281C40.7739 27.0086 40.3938 26.7977 40.013 26.5827C39.9426 26.5434 39.8702 26.5077 39.7959 26.4824C39.0686 26.2346 38.6096 25.6958 38.2756 25.0405C38.1107 24.7159 37.9387 24.4168 37.624 24.2056C37.5001 24.122 37.4171 23.9669 37.3324 23.8356C36.9774 23.2834 36.5083 22.883 35.8933 22.634C35.245 22.3697 34.7396 21.9334 34.4856 21.2564C34.3941 21.0143 34.1565 20.9171 34.0089 20.7344C33.8116 20.4868 33.7822 20.2332 33.9977 19.9767C34.0317 19.9735 34.0778 19.9844 34.097 19.9664C34.1405 19.9248 34.1693 19.8686 34.2034 19.8199C34.2973 19.75 34.393 19.6857 34.4812 19.6107C34.505 19.5896 34.5142 19.5378 34.5099 19.5023C34.5051 19.4694 34.4674 19.4119 34.4576 19.4142C34.392 19.4305 34.2902 19.4469 34.2745 19.4895C34.2359 19.5934 34.2399 19.713 34.2262 19.8267C34.1428 19.8825 34.0655 19.9408 33.9899 19.998ZM56.7014 47.9413L56.6998 47.9877L56.6988 47.9408C56.7003 47.9397 56.7014 47.9413 56.7014 47.9413ZM52.6851 40.5142C52.616 40.4898 52.5489 40.4618 52.4769 40.4463C52.4448 40.4392 52.4012 40.4514 52.3727 40.469C52.3472 40.4844 52.3366 40.5213 52.3186 40.5475C52.3747 40.5695 52.436 40.6152 52.4884 40.6059C52.5573 40.5942 52.6186 40.5424 52.6834 40.5086L52.7274 40.5165L52.6851 40.5142ZM58.4929 50.5011L58.467 50.4965C58.6408 50.346 58.82 50.2032 58.9822 50.0426C59.0262 49.9984 59.0436 49.8934 59.0258 49.8288C59.0086 49.7683 58.9196 49.6763 58.8796 49.6838C58.6398 49.733 58.4321 49.6625 58.2129 49.5818C58.1292 49.5495 57.9959 49.615 57.8979 49.6629C57.7836 49.7199 57.8108 49.9184 57.9617 50.0602C58.1303 50.2146 58.3162 50.3547 58.4929 50.5011ZM62.5622 59.7054C62.5945 59.6445 62.6662 59.5719 62.6534 59.5242C62.6238 59.4134 62.5594 59.311 62.495 59.2154C62.3999 59.0755 62.3596 58.9428 62.4486 58.7812C62.4824 58.7191 62.5189 58.6122 62.4907 58.5684C62.2679 58.2321 62.1685 57.8552 62.0967 57.4658C62.0665 57.2988 61.8441 57.2363 61.7238 57.3336C61.3788 57.6123 61.2788 57.9696 61.3775 58.3878C61.5229 59 61.9424 59.4008 62.4507 59.7242C62.4752 59.7366 62.5237 59.7119 62.5622 59.7054ZM53.0967 41.7202C53.1157 41.6955 53.1562 41.6561 53.1509 41.6484C53.0663 41.5171 52.9786 41.3879 52.8848 41.263C52.8662 41.2396 52.8172 41.2375 52.782 41.2259C52.7745 41.29 52.7379 41.3676 52.7626 41.4161C52.8335 41.5569 52.9334 41.6776 53.0967 41.7202ZM60.3836 55.2137C60.476 55.3237 60.5579 55.3437 60.6826 55.2592C60.7344 55.2231 60.7965 55.13 60.7832 55.0849C60.7672 55.0327 60.6764 54.9804 60.6112 54.9714C60.5424 54.9604 60.4485 54.9783 60.3993 55.0216C60.3644 55.0527 60.3863 55.1461 60.3836 55.2137ZM57.5114 48.6003C57.5346 48.5751 57.5718 48.5537 57.5779 48.5268C57.5972 48.4341 57.551 48.3938 57.4564 48.4076C57.2965 48.4284 57.1973 48.5495 57.3017 48.5855C57.3656 48.609 57.4412 48.5971 57.5114 48.6003ZM47.6189 34.5362L47.7178 34.5352L47.6837 34.457L47.6189 34.5362Z" fill="#011D26"/>
<path d="M73.2174 63.2754C73.4802 63.3959 73.6938 63.553 73.6907 63.8835C73.6892 64.0408 73.7308 64.2111 73.6852 64.3538C73.5195 64.8542 73.5499 65.3631 73.549 65.8756C73.5486 66.467 73.3869 67.0416 73.3106 67.6247C73.2593 68.0228 73.2002 68.39 72.9465 68.7185C72.6677 69.0825 72.6147 69.4976 72.6916 69.956C72.7543 70.329 72.6877 70.3732 72.2327 70.468C72.1937 70.477 72.1546 70.4794 72.115 70.4843L72.1208 70.4666C72.1205 70.9833 72.1215 71.4922 71.916 71.9908C71.8143 72.2383 71.811 72.5328 71.799 72.8084C71.7692 73.5267 71.6822 74.2214 71.2106 74.8126C71.0884 74.9656 70.9931 75.1475 70.9267 75.3319C70.8925 75.4259 70.909 75.5797 70.9679 75.661C71.1553 75.9269 71.1683 76.219 70.9794 76.4388C70.6343 76.8377 70.4524 77.3245 70.1702 77.752C69.9922 78.0232 69.7904 78.2474 69.4326 78.2995C69.227 78.3295 69.0848 78.5123 69.045 78.7122C68.9516 79.1895 68.7789 79.6245 68.4814 80.0105C68.4608 80.0362 68.4167 80.0443 68.3845 80.0599C68.2794 80.013 68.1347 79.8963 68.074 79.9295C67.5889 80.1925 67.3348 79.9868 67.1725 79.5358C67.16 79.5015 67.127 79.4542 67.096 79.4487C66.4791 79.3142 66.3887 78.7679 66.1911 78.3053C66.176 78.2705 66.1771 78.2267 66.1664 78.1527C66.2811 77.9369 66.4087 77.6941 66.5414 77.4454C66.4885 77.3305 66.4323 77.2269 66.3904 77.1179C66.3132 76.9225 66.3451 76.8415 66.5842 76.8109C66.7725 76.7885 66.8675 76.72 66.9166 76.5499C66.9845 76.3124 66.9226 76.1812 66.7382 76.2189C66.3886 76.2925 66.0159 76.2191 65.687 76.4005L65.7092 76.4032C65.3108 76.1302 65.0218 75.7608 64.8295 75.3285C64.5518 74.7019 64.1504 74.2068 63.5448 73.8607C63.224 73.6764 63.1328 73.2983 63.2465 72.9314C63.3299 72.6673 63.4398 72.4186 63.6962 72.2695C63.8984 72.3779 64.1006 72.4861 64.3053 72.5882C64.3262 72.5986 64.3762 72.5729 64.3964 72.5498C64.4196 72.5246 64.4326 72.4815 64.4319 72.448C64.4293 72.3207 64.3555 72.2408 64.2407 72.1962C64.0396 72.1188 63.8685 72.2243 63.692 72.2928C63.5249 72.1668 63.3256 72.1538 63.1268 72.1382C62.958 72.1267 62.8126 72.0513 62.7582 71.8853C62.6312 71.4981 62.3666 71.3132 61.9691 71.266C61.7562 71.2399 61.6098 71.0882 61.5674 70.8777C61.505 70.5701 61.4631 70.2595 61.4105 69.927C60.9118 69.4385 60.314 69.0484 59.7204 68.6578C59.3049 68.3831 59.0033 68.054 58.8818 67.5543C58.7587 67.0489 58.5181 66.6026 58.0911 66.2657C57.9423 66.1497 57.8528 65.9561 57.7413 65.7959C57.6499 65.6647 57.5986 65.474 57.4746 65.4063C56.8545 65.059 56.8614 64.4314 56.7379 63.8605C56.7026 63.6926 56.7831 63.5415 56.9199 63.4485C57.0826 63.3375 57.2645 63.2538 57.4394 63.1569C57.6662 63.0306 57.9069 63.0217 58.1205 63.1561C58.6903 63.5158 59.2856 63.8373 59.7865 64.3062C60.4545 64.9304 61.1704 65.5033 61.8384 66.1276C63.117 67.3232 64.3806 68.5361 65.346 70.0201C65.5407 70.3193 65.7651 70.6025 66.01 70.86C66.2334 71.0963 66.3971 71.3605 66.543 71.6417C66.6165 71.783 66.6604 71.9631 66.7741 72.0515C67.1151 72.3169 67.2188 72.6773 67.2773 73.0736C67.2875 73.1435 67.3494 73.2227 67.4111 73.2658C67.466 73.3023 67.58 73.3294 67.6186 73.3003C67.7719 73.1822 67.9104 73.0428 68.0437 72.9024C68.1704 72.7689 68.0525 72.5995 68.0929 72.4559C68.1083 72.3999 68.1801 72.3567 68.235 72.3184C68.2442 72.3121 68.3053 72.3511 68.3198 72.3817C68.3715 72.4884 68.3902 72.6226 68.467 72.7004C68.5418 72.7752 68.6721 72.7932 68.7792 72.8364L68.7589 72.8302C68.8634 72.8729 68.9636 72.9322 69.0718 72.9543C69.1863 72.9788 69.2683 72.8559 69.2414 72.7229C69.1979 72.5109 69.1437 72.4785 68.819 72.4871L68.8401 72.4882C68.8525 72.3369 68.8458 72.1808 68.8836 72.0367C68.9455 71.8101 69.0085 71.7867 69.3 71.7695C69.4133 71.763 69.5464 71.7655 69.6292 71.7055C69.7059 71.6498 69.7829 71.5034 69.7612 71.4234C69.7222 71.2829 69.6059 71.1647 69.5249 71.0353C69.4178 70.8653 69.4615 70.7329 69.6378 70.6803C69.6747 70.6682 69.7155 70.6715 69.7519 70.662C70.1058 70.5652 70.17 70.4819 70.1845 70.1026C70.1926 69.8637 70.0554 69.7577 69.8353 69.7343L69.8559 69.738C69.9122 69.3862 70.1536 69.3133 70.4593 69.336L70.4213 69.3693L70.4376 69.3308C70.603 69.1227 70.7757 68.9187 70.9317 68.7036C71.0501 68.5419 71.0117 68.1971 70.8551 68.0797C70.6714 67.9426 70.4722 67.8322 70.3927 67.5977L70.3938 67.6286C70.5266 67.4388 70.6678 67.2544 70.7927 67.0564C70.8616 66.9473 70.8464 66.831 70.7404 66.744C70.6812 66.6947 70.6108 66.6554 70.5465 66.6118C70.7232 66.4525 70.9015 66.2921 71.075 66.1283C71.0978 66.1057 71.111 66.0467 71.0986 66.0191C71.0715 65.9541 71.0333 65.8538 70.9847 65.8424C70.7961 65.7993 70.6013 65.7765 70.4078 65.7685C70.3495 65.7661 70.2838 65.8344 70.2353 65.8818C70.2176 65.8987 70.225 65.9615 70.2422 65.9926C70.3485 66.2039 70.5512 66.3616 70.5734 66.618C70.4035 66.7024 70.2291 66.7513 70.0392 66.6932L70.0615 66.6959C69.9199 66.7854 69.7799 66.8738 69.6373 66.9618L69.6605 66.9593C69.7153 66.6086 69.756 66.254 69.8304 65.9055C69.871 65.7164 69.9555 65.5353 70.038 65.3578C70.1254 65.1679 70.2094 65.1388 70.4081 65.1998C70.7599 65.3082 70.7614 65.3071 70.717 64.9213C70.7053 64.8298 70.7324 64.7679 70.8254 64.7484C70.8613 64.7415 70.9024 64.7582 70.9407 64.7678C71.0491 64.7965 71.1559 64.8263 71.2944 64.8658C71.3837 64.6201 71.4623 64.3978 71.5404 64.1781L71.5351 64.1999C71.6113 64.0654 71.7371 63.937 71.7533 63.7944C71.8016 63.4051 71.8029 63.0101 71.8229 62.5998C71.7242 62.5394 71.6329 62.4603 71.5275 62.4228C70.8087 62.1646 70.8933 61.9901 71.0962 61.4683C71.1535 61.3197 71.2229 61.1786 71.2849 61.0335C71.3976 60.7693 71.5732 60.5563 71.8433 60.4498C72.0745 60.359 72.2281 60.2023 72.3778 60.0074C72.6732 59.625 73.2245 59.5221 73.6487 59.7476C73.7926 59.8241 73.8883 59.9681 73.8783 60.1359C73.8558 60.5297 73.8179 60.9208 73.7784 61.313C73.7356 61.7459 73.6798 62.1765 73.6329 62.6101C73.6002 62.9047 73.4386 63.1214 73.2237 63.3073C73.1508 63.0659 73.0778 62.8245 73.0059 62.5846C73.0283 62.4671 73.0518 62.3512 73.0726 62.2347L73.0933 62.2385C73.0724 62.3549 73.0501 62.4724 73.0303 62.5903C72.585 62.9592 72.5163 63.4329 72.6692 63.9584C72.6875 64.0204 72.7575 64.0916 72.8182 64.1105C72.8804 64.1283 73.013 64.104 73.0231 64.0698C73.0961 63.8038 73.1542 63.5391 73.2174 63.2754ZM62.9311 70.748C62.7879 70.5488 62.6462 70.3485 62.5029 70.1493C62.599 70.0303 62.6763 69.9039 62.6586 69.7419C62.6554 69.7079 62.6302 69.662 62.6031 69.6491C62.5214 69.6132 62.4567 69.647 62.4254 69.7322C62.3673 69.8927 62.4415 70.0221 62.5256 70.1493C62.5144 70.5626 62.5144 70.5626 62.9358 70.7221L62.9311 70.748ZM71.6537 69.0412C71.7132 68.9997 71.7806 68.9664 71.8306 68.9179C71.91 68.84 71.8939 68.781 71.7995 68.7788C71.7701 68.7789 71.7228 68.8118 71.7141 68.8383C71.6927 68.9053 71.6864 68.9776 71.675 69.049C71.6304 69.1118 71.5821 69.1725 71.5433 69.2403C71.5258 69.2706 71.5164 69.3157 71.5238 69.349C71.5295 69.3767 71.5645 69.3977 71.5856 69.4215C71.6273 69.3676 71.6949 69.3182 71.704 69.2598C71.7124 69.1905 71.6712 69.115 71.6537 69.0412ZM68.2049 74.9554L68.1826 74.9528C68.2788 74.8111 68.2956 74.6498 68.2108 74.5118C68.0817 74.3005 68.0459 74.0831 68.0663 73.8424C68.072 73.766 67.9814 73.7498 67.9027 73.8091C67.8733 73.8319 67.8399 73.862 67.8297 73.8962C67.8101 73.9688 67.7833 74.0508 67.7987 74.1216C67.8678 74.4291 67.9856 74.7186 68.2049 74.9554ZM72.3607 64.7936C72.3176 65.1838 72.262 65.5691 72.2331 65.9538C72.2163 66.1898 72.5194 66.3389 72.7438 66.2188C73.0504 66.0574 73.1642 65.9216 73.0573 65.6835C72.9239 65.3845 73.0127 65.0599 72.8904 64.7737C72.8687 64.7231 72.7641 64.6737 72.7029 64.6801C72.5938 64.6926 72.4903 64.7487 72.3607 64.7936ZM58.9606 65.7646C59.0076 65.562 59.0302 65.4873 59.04 65.4103C59.0455 65.3725 59.0328 65.3315 59.0207 65.2947C58.9705 65.1348 58.8503 65.0305 58.6781 65.0304C58.6085 65.0312 58.5144 65.0651 58.4783 65.1174C58.4447 65.1635 58.4419 65.2831 58.4778 65.3216C58.6075 65.4623 58.7595 65.583 58.9606 65.7646ZM72.3642 67.0788C72.2647 67.053 72.1812 67.0046 72.1254 67.0253C72.0666 67.0482 71.9913 67.1482 72.0015 67.1954C72.0242 67.2996 72.0856 67.4041 72.1553 67.4847C72.2271 67.5683 72.4067 67.4977 72.4127 67.3826C72.4193 67.2783 72.381 67.1712 72.3642 67.0788ZM60.6625 68.1535C60.6408 68.1255 60.6213 68.078 60.5975 68.0764C60.5335 68.0689 60.4698 68.0816 60.4049 68.086C60.4155 68.1533 60.4064 68.2345 60.4434 68.2812C60.4736 68.3213 60.5577 68.3216 60.6173 68.339C60.6336 68.2778 60.6473 68.2162 60.6625 68.1535ZM59.9566 66.8241C60.0369 66.7183 60.1284 66.6025 60.2115 66.4812C60.2261 66.4598 60.2168 66.4074 60.2002 66.3804C60.1608 66.3172 59.8724 66.3324 59.769 66.3953C59.6625 66.4604 59.6308 66.7043 59.7332 66.7961C59.7736 66.8314 59.8594 66.8147 59.9566 66.8241ZM66.2326 75.1056C66.2592 75.1211 66.2876 75.1489 66.3123 75.1453C66.3355 75.1428 66.3729 75.1054 66.3709 75.0864C66.3667 75.0055 66.3177 74.9807 66.2443 75.025C66.2296 75.033 66.2362 75.0782 66.2326 75.1056Z" fill="#011D26"/>
<path d="M65.6757 65.9106C65.8225 66.0825 65.9417 66.26 66.214 66.2901C66.4812 66.3192 66.4817 66.3687 66.4212 66.6917C66.4077 66.7667 66.3866 66.8404 66.3705 66.9149L66.3785 66.9003C66.2347 67.159 66.4758 67.3263 66.5229 67.5404C66.5365 67.5989 66.4834 67.6789 66.446 67.7389C66.4345 67.7582 66.367 67.7622 66.3389 67.7478C66.094 67.6238 65.8486 67.4958 65.8574 67.1635C65.8658 66.8406 65.7428 66.5729 65.5519 66.3117C65.4479 66.1689 65.6045 66.0327 65.7001 65.9163L65.6757 65.9106Z" fill="#011D26"/>
<path d="M64.5025 65.8488C64.5121 66.0415 64.5242 66.2345 64.5308 66.4293C64.5481 66.8543 64.7706 67.0665 65.1903 67.0935C65.2894 67.0993 65.3292 67.1824 65.2809 67.2659C65.1927 67.4157 65.0428 67.477 64.8824 67.4483C64.7763 67.4293 64.6493 67.3705 64.592 67.2881C64.506 67.1645 64.4595 67.0067 64.4224 66.8559C64.3481 66.5475 64.2305 66.2647 64.0397 66.0103C64.0116 65.9732 64.0427 65.852 64.0862 65.8104C64.1297 65.7688 64.2264 65.758 64.2911 65.7696C64.3635 65.7825 64.4286 65.8369 64.4969 65.8732C64.4963 65.8691 64.5025 65.8488 64.5025 65.8488Z" fill="#011D26"/>
<path d="M70.388 67.5942C70.2843 67.8226 70.1488 68.0053 69.8587 67.9627C69.6896 67.9378 69.5387 67.7959 69.5534 67.6543C69.5765 67.4208 69.6193 67.1895 69.6532 66.9552L69.63 66.9578C69.756 67.0444 69.8757 67.1446 70.0106 67.2115C70.1944 67.3031 70.3112 67.4415 70.3896 67.6225L70.388 67.5942Z" fill="#011D26"/>
<path d="M65.7016 64.767C65.5415 64.8559 65.4026 64.7669 65.2742 64.6932C65.221 64.6623 65.1944 64.5721 65.1735 64.5029C65.1641 64.4732 65.191 64.4273 65.2125 64.3964C65.2341 64.3655 65.2644 64.3309 65.2976 64.3168C65.5483 64.2215 65.7939 64.4084 65.7532 64.6654C65.7482 64.7006 65.7211 64.7331 65.7016 64.767Z" fill="#011D26"/>
<path d="M66.8824 71.1924C66.8846 71.1207 66.8643 71.0329 66.8967 70.9787C66.967 70.8617 67.1442 70.8039 67.1971 70.8668C67.2441 70.9246 67.2828 70.9997 67.2977 71.0731C67.3125 71.1466 67.3055 71.2307 67.2847 71.3018C67.2635 71.3754 67.0998 71.3582 66.9712 71.2711C66.9388 71.2506 66.9124 71.2191 66.8824 71.1924Z" fill="#011D26"/>
<path d="M65.211 68.1934C65.1446 68.1762 65.0616 68.1773 65.017 68.136C64.9229 68.0497 64.9323 67.9299 65.0425 67.8441C65.0922 67.805 65.198 67.7812 65.2454 67.807C65.3706 67.8761 65.3414 68.1139 65.211 68.1934Z" fill="#011D26"/>
<path d="M67.713 70.6775C67.7155 70.6486 67.7074 70.6044 67.7242 70.5927C67.746 70.5752 67.7958 70.5655 67.8188 70.5789C67.8945 70.6259 67.8884 70.6822 67.8009 70.7159C67.7794 70.7241 67.7427 70.6908 67.713 70.6775Z" fill="#011D26"/>
<path d="M65.8497 69.8459C65.7834 69.8286 65.7151 69.8151 65.6532 69.788C65.6297 69.7771 65.6024 69.7282 65.6081 69.7038C65.6274 69.6111 65.685 69.6027 65.7439 69.684C65.7847 69.7394 65.8128 69.8059 65.8445 69.8676L65.8497 69.8459Z" fill="#011D26"/>
<path d="M65.6833 76.3985C65.699 76.4601 65.7162 76.5206 65.7308 76.5806C65.7164 76.5567 65.6938 76.5339 65.6928 76.5097C65.6884 76.4742 65.7016 76.4379 65.7055 76.4012L65.6833 76.3985Z" fill="#011D26"/>
<path d="M70.591 63.5142C70.569 63.4955 70.547 63.4768 70.5249 63.4582C70.5421 63.4372 70.5635 63.3997 70.5749 63.4031C70.6003 63.4103 70.6209 63.4367 70.643 63.4553C70.6248 63.4748 70.6082 63.4932 70.591 63.5142Z" fill="#011D26"/>
<path d="M69.6237 69.0369C69.686 69.0093 69.7473 68.9802 69.8096 68.9526C69.8163 68.9752 69.8224 69.0003 69.8291 69.0229C69.7615 69.0201 69.6965 69.0178 69.6289 69.0151L69.6237 69.0369Z" fill="#011D26"/>
<path d="M66.4003 69.4037L66.361 69.3473L66.4411 69.3323L66.4003 69.4037Z" fill="#011D26"/>
<path d="M65.8456 69.8691C65.9044 69.8984 65.9633 69.9277 66.0211 69.9554C65.8923 70.0338 65.9147 69.8708 65.8497 69.8459L65.8456 69.8691Z" fill="#011D26"/>
<path d="M71.1207 63.5983L71.1229 63.5266L71.1026 63.5951L71.1207 63.5983Z" fill="#011D26"/>
<path d="M71.1026 63.5951C71.0657 63.7046 71.0287 63.8141 70.9922 63.9211L71.0109 63.9285C71.0468 63.8174 71.0837 63.7078 71.1197 63.5967C71.1207 63.5983 71.1026 63.5951 71.1026 63.5951Z" fill="#011D26"/>
<path d="M71.1805 64.1818C71.2956 64.1877 71.4112 64.1911 71.5278 64.1959L71.533 64.1741C71.4175 64.1708 71.2993 64.167 71.1827 64.1622L71.1805 64.1818Z" fill="#011D26"/>
<path d="M70.9922 63.9211C71.0542 64.0069 71.1189 64.0933 71.181 64.1792C71.181 64.1792 71.1816 64.1606 71.1827 64.1622C71.127 64.0854 71.0702 64.0071 71.0119 63.93C71.0094 63.9295 70.9922 63.9211 70.9922 63.9211Z" fill="#011D26"/>
<path d="M69.7781 70.0685C69.8032 69.9582 69.8272 69.8464 69.8523 69.736L69.8316 69.7323C69.8065 69.8427 69.7814 69.953 69.7548 70.0644L69.7781 70.0685Z" fill="#011D26"/>
<path d="M65.7001 65.9163L65.7155 65.8604L65.6757 65.9106L65.7001 65.9163Z" fill="#011D26"/>
<path d="M64.4963 65.8691L64.4999 65.8484C64.5025 65.8488 64.4963 65.8691 64.4963 65.8691Z" fill="#011D26"/>
<path d="M68.0081 71.3258L68.0638 71.3211L68.0123 71.3026L68.0081 71.3258Z" fill="#011D26"/>
<path d="M68.0123 71.3026L68.0071 71.3243C68.0082 71.3258 68.0123 71.3026 68.0123 71.3026Z" fill="#011D26"/>
<path d="M68.774 72.8355C68.7948 72.719 68.8156 72.6026 68.8365 72.4862L68.8153 72.4851C68.795 72.5989 68.773 72.7138 68.7537 72.8292L68.774 72.8355Z" fill="#011D26"/>
</svg>
