<svg width="60" height="60" viewBox="0 0 60 60" fill="none" xmlns="http://www.w3.org/2000/svg">
<path d="M9.5998 18.8001C9.158 18.8001 8.7998 18.4419 8.7998 18.0001C8.7998 17.5583 9.158 17.2001 9.5998 17.2001C10.0416 17.2001 10.3998 17.5583 10.3998 18.0001C10.3998 18.4419 10.0416 18.8001 9.5998 18.8001ZM50.3998 23.6001C49.958 23.6001 49.5998 23.9583 49.5998 24.4001C49.5998 24.8419 49.958 25.2001 50.3998 25.2001C50.8416 25.2001 51.1998 24.8419 51.1998 24.4001C51.1998 23.9583 50.8416 23.6001 50.3998 23.6001ZM48.7998 17.2001C48.7998 18.5235 47.7232 19.6001 46.3998 19.6001C45.0764 19.6001 43.9998 18.5235 43.9998 17.2001C43.9998 15.8767 45.0764 14.8001 46.3998 14.8001C47.7232 14.8001 48.7998 15.8767 48.7998 17.2001ZM47.1998 17.2001C47.1998 16.7591 46.8412 16.4001 46.3998 16.4001C45.9584 16.4001 45.5998 16.7591 45.5998 17.2001C45.5998 17.6411 45.9584 18.0001 46.3998 18.0001C46.8412 18.0001 47.1998 17.6411 47.1998 17.2001ZM9.8342 12.1657C9.9904 12.3219 10.1952 12.4001 10.3998 12.4001C10.6044 12.4001 10.8092 12.3219 10.9654 12.1657L11.5998 11.5313L12.2342 12.1657C12.3904 12.3219 12.5952 12.4001 12.7998 12.4001C13.0044 12.4001 13.2092 12.3219 13.3654 12.1657C13.6778 11.8533 13.6778 11.3469 13.3654 11.0345L12.731 10.4001L13.3654 9.7657C13.6778 9.4533 13.6778 8.9469 13.3654 8.6345C13.053 8.3221 12.5466 8.3221 12.2342 8.6345L11.5998 9.2689L10.9654 8.6345C10.653 8.3221 10.1466 8.3221 9.8342 8.6345C9.5218 8.9469 9.5218 9.4533 9.8342 9.7657L10.4686 10.4001L9.8342 11.0345C9.5216 11.3469 9.5216 11.8533 9.8342 12.1657ZM47.0772 29.5739C47.2404 29.8345 47.2404 30.1657 47.0772 30.4263L33.4772 52.0263C33.3302 52.2591 33.0748 52.4001 32.7998 52.4001H23.9998C23.7248 52.4001 23.4694 52.2591 23.3224 52.0263L9.7224 30.4263C9.5592 30.1657 9.5592 29.8345 9.7224 29.5739L23.3224 7.9739C23.4694 7.7411 23.7248 7.6001 23.9998 7.6001H32.7998C33.0748 7.6001 33.3302 7.7411 33.4772 7.9739L47.0772 29.5739ZM32.3584 9.2001H25.4494L38.0418 29.2001H44.9508L32.3584 9.2001ZM36.6544 30.0001L28.4 16.8901L20.1452 30.0001L28.4 43.1097L36.6544 30.0001ZM11.8488 29.2001H18.7578L27.4542 15.3883L23.9996 9.9015L11.8488 29.2001ZM44.9508 30.8001H38.0418L25.4492 50.8001H32.3584L44.9508 30.8001Z" fill="white"/>
</svg>
