<svg width="60" height="60" viewBox="0 0 60 60" fill="none" xmlns="http://www.w3.org/2000/svg">
<g clip-path="url(#clip0_210_106)">
<path d="M60.0002 30.0002C60.0002 32.071 58.3208 33.7499 56.25 33.7499C54.1792 33.7499 52.4998 32.071 52.4998 30.0002C52.4998 27.9288 54.1792 26.25 56.25 26.25C58.3208 26.25 60.0002 27.9288 60.0002 30.0002Z" fill="white"/>
<path d="M0 20H5.0005V40.0003H0V20Z" fill="white"/>
<path d="M9.99976 10H14.9997V49.9994H9.99976V10Z" fill="white"/>
<path d="M20.0002 22.5H25.0007V37.4998H20.0002V22.5Z" fill="white"/>
<path d="M48.9016 27.3485C48.0931 26.5417 47.0156 26.2236 45.9616 26.3065L34.9999 0H30V60.0002H34.9999L45.9616 33.6937C47.0156 33.7772 48.0931 33.4591 48.9016 32.6511C50.3659 31.1863 50.3659 28.8134 48.9016 27.3485ZM34.9999 46.9997V13.0005L42.0821 30.0001L34.9999 46.9997Z" fill="white"/>
</g>
<defs>
<clipPath id="clip0_210_106">
<rect width="60" height="60" fill="white"/>
</clipPath>
</defs>
</svg>
