<svg width="60" height="60" viewBox="0 0 60 60" fill="none" xmlns="http://www.w3.org/2000/svg">
<path d="M9.43465 13.8343L10.069 13.1999L9.43465 12.5655C9.12225 12.2531 9.12225 11.7467 9.43465 11.4343C9.74705 11.1219 10.2534 11.1219 10.5658 11.4343L11.2002 12.0687L11.8346 11.4343C12.147 11.1219 12.6534 11.1219 12.9658 11.4343C13.2782 11.7467 13.2782 12.2531 12.9658 12.5655L12.3314 13.1999L12.9658 13.8343C13.2782 14.1467 13.2782 14.6531 12.9658 14.9655C12.8096 15.1217 12.6048 15.1999 12.4002 15.1999C12.1956 15.1999 11.9908 15.1217 11.8346 14.9655L11.2002 14.3311L10.5658 14.9655C10.4096 15.1217 10.2048 15.1999 10.0002 15.1999C9.79565 15.1999 9.59085 15.1217 9.43465 14.9655C9.12205 14.6531 9.12205 14.1467 9.43465 13.8343ZM14.0002 22.3999C14.442 22.3999 14.8002 22.0417 14.8002 21.5999C14.8002 21.1581 14.442 20.7999 14.0002 20.7999C13.5584 20.7999 13.2002 21.1581 13.2002 21.5999C13.2002 22.0417 13.5584 22.3999 14.0002 22.3999ZM46.0002 11.9999C46.442 11.9999 46.8002 11.6417 46.8002 11.1999C46.8002 10.7581 46.442 10.3999 46.0002 10.3999C45.5584 10.3999 45.2002 10.7581 45.2002 11.1999C45.2002 11.6417 45.5584 11.9999 46.0002 11.9999ZM48.4002 15.9999C49.7236 15.9999 50.8002 17.0765 50.8002 18.3999C50.8002 19.7233 49.7236 20.7999 48.4002 20.7999C47.0769 20.7999 46.0002 19.7233 46.0002 18.3999C46.0002 17.0765 47.0769 15.9999 48.4002 15.9999ZM47.6002 18.3999C47.6002 18.8409 47.9589 19.1999 48.4002 19.1999C48.8416 19.1999 49.2002 18.8409 49.2002 18.3999C49.2002 17.9589 48.8416 17.5999 48.4002 17.5999C47.9589 17.5999 47.6002 17.9589 47.6002 18.3999ZM50.7659 48.5679C50.8392 48.8105 50.794 49.0729 50.6424 49.2765C50.4916 49.4799 50.2532 49.5999 50.0002 49.5999H18.0002C17.733 49.5999 17.483 49.4663 17.3346 49.2437L9.33465 37.2437C9.16425 36.9879 9.15504 36.6565 9.31204 36.3921L22.112 14.7921C22.2556 14.5491 22.5174 14.3999 22.8002 14.3999H38.0002C38.2908 14.3999 38.5588 14.5573 38.6994 14.8113L42.6994 22.0113C42.7268 22.0613 42.7494 22.1137 42.7658 22.1679L50.7659 48.5679ZM41.407 23.1999H38.8002V25.5999C38.8002 26.0417 38.4424 26.3999 38.0002 26.3999C37.558 26.3999 37.2002 26.0417 37.2002 25.5999V23.1999H27.3766L23.11 35.9999H26.0002C26.4424 35.9999 26.8002 36.3581 26.8002 36.7999C26.8002 37.2417 26.4424 37.5999 26.0002 37.5999H22.5766L19.11 47.9999H48.1479C48.0122 47.7045 48.0602 47.3463 48.3034 47.1031C48.3886 47.0179 48.4892 46.9607 48.5954 46.9219L41.407 23.1999ZM13.2002 36.7999C13.2002 37.2417 12.8424 37.5999 12.4002 37.5999H11.4948L17.7588 46.9955L25.93 22.4809L22.7778 16.8067L11.404 35.9999H12.4002C12.8424 35.9999 13.2002 36.3581 13.2002 36.7999ZM37.2002 19.9999V15.9999H24.1598L27.271 21.5999H40.6408L38.8002 18.2875V19.9999C38.8002 20.4417 38.4424 20.7999 38.0002 20.7999C37.558 20.7999 37.2002 20.4417 37.2002 19.9999ZM38.8002 36.4687V33.5999C38.8002 33.1581 38.4424 32.7999 38.0002 32.7999C37.558 32.7999 37.2002 33.1581 37.2002 33.5999V35.9999H35.6002C35.158 35.9999 34.8002 36.3581 34.8002 36.7999C34.8002 37.2417 35.158 37.5999 35.6002 37.5999H37.669L38.5658 38.4967C38.722 38.6529 38.9268 38.7311 39.1314 38.7311C39.336 38.7311 39.5408 38.6529 39.697 38.4967C40.0094 38.1843 40.0094 37.6779 39.697 37.3655L38.8002 36.4687ZM46.3556 46.2867C46.5118 46.4429 46.7166 46.5211 46.9212 46.5211C47.1258 46.5211 47.3306 46.4429 47.4868 46.2867C47.7992 45.9745 47.7992 45.4679 47.4868 45.1555L45.54 43.2083C45.2276 42.8959 44.7212 42.8959 44.4088 43.2083C44.0964 43.5205 44.0964 44.0271 44.4088 44.3395L46.3556 46.2867ZM40.5134 39.3131C40.201 39.6255 40.201 40.1323 40.5134 40.4443L42.461 42.3915C42.6172 42.5477 42.822 42.6259 43.0266 42.6259C43.2313 42.6259 43.436 42.5477 43.5922 42.3915C43.9046 42.0791 43.9046 41.5723 43.5922 41.2603L41.6446 39.3131C41.3322 39.0007 40.826 39.0007 40.5134 39.3131ZM15.6002 37.5999H18.8002C19.2424 37.5999 19.6002 37.2417 19.6002 36.7999C19.6002 36.3581 19.2424 35.9999 18.8002 35.9999H15.6002C15.158 35.9999 14.8002 36.3581 14.8002 36.7999C14.8002 37.2417 15.158 37.5999 15.6002 37.5999ZM32.4002 35.9999H29.2002C28.758 35.9999 28.4002 36.3581 28.4002 36.7999C28.4002 37.2417 28.758 37.5999 29.2002 37.5999H32.4002C32.8424 37.5999 33.2002 37.2417 33.2002 36.7999C33.2002 36.3581 32.8424 35.9999 32.4002 35.9999ZM38.0002 31.9999C38.4424 31.9999 38.8002 31.6417 38.8002 31.1999V28.7999C38.8002 28.3581 38.4424 27.9999 38.0002 27.9999C37.558 27.9999 37.2002 28.3581 37.2002 28.7999V31.1999C37.2002 31.6417 37.558 31.9999 38.0002 31.9999Z" fill="white"/>
</svg>
