<svg viewBox="0 0 18 57" fill="none" xmlns="http://www.w3.org/2000/svg" >
<path d="M2.74795 24.0712C2.99753 24.0067 3.24847 23.945 3.49805 23.875C3.67815 23.8256 3.79585 23.6994 3.77883 23.5869C3.75614 23.4373 3.67819 23.3139 3.54631 23.2425C3.45272 23.1918 3.33077 23.1904 3.23576 23.1424C3.18187 23.1149 3.1138 23.0313 3.12089 22.9846C3.15634 22.7761 3.2074 22.5689 3.27405 22.3686C3.29107 22.3192 3.38463 22.2726 3.44986 22.2616C3.79303 22.204 3.95753 21.9927 4.01141 21.6799C4.03552 21.5427 4.04685 21.4028 4.06528 21.2615C3.73203 21.0475 3.43003 20.8472 3.12089 20.6579C2.9961 20.581 2.84434 20.5275 2.85001 20.3546C2.8571 20.1269 2.97196 19.9444 3.16056 19.8141C3.2655 19.7414 3.58456 19.8827 3.61008 20.0144C3.62285 20.0816 3.5931 20.1571 3.60302 20.2257C3.61295 20.2874 3.63565 20.3725 3.68244 20.3985C3.73349 20.4274 3.86394 20.4274 3.88096 20.3972C4.02986 20.1379 4.25393 20.0816 4.53613 20.1173C4.63681 20.1296 4.76159 20.1365 4.80271 19.9883C4.41841 19.7236 3.90934 19.6563 3.58176 19.2941C3.25986 19.2173 2.9365 19.1432 2.61743 19.0595C2.46711 19.0198 2.36223 18.9238 2.31685 18.7742L2.29981 18.7893C2.51536 18.8003 2.63445 18.7015 2.68833 18.4998C2.72804 18.3503 2.83723 18.2639 3.0074 18.2584C3.19033 18.2529 3.37473 18.246 3.55483 18.22C3.59879 18.2131 3.63704 18.1294 3.66257 18.0759C3.67108 18.0567 3.64275 17.9977 3.62006 17.9908C3.34069 17.9112 3.06273 17.8248 2.77911 17.7658C2.60185 17.7288 2.41326 17.7452 2.23175 17.7192C2.17219 17.7109 2.09557 17.652 2.07713 17.5998C2.0587 17.5477 2.08427 17.4475 2.12823 17.4174C2.30691 17.2953 2.49976 17.1924 2.68695 17.0826C2.7224 17.0854 2.75643 17.0881 2.79047 17.0909C2.76069 17.0909 2.73092 17.0909 2.70114 17.0909C2.66569 17.0826 2.61889 17.0854 2.59479 17.0648C2.43454 16.9248 2.29697 16.7493 2.11688 16.6436C1.93394 16.5366 1.70707 16.4996 1.50145 16.4268C1.35114 16.3733 1.2802 16.0907 1.39932 15.9631C1.66592 15.675 1.87438 15.3334 2.25017 15.1455C2.4175 15.0618 2.51391 14.8999 2.51675 14.7065C2.51817 14.5953 2.48416 14.4897 2.36788 14.4485C2.3069 14.4266 2.22466 14.4307 2.16085 14.4499C2.0942 14.4691 2.03321 14.5171 1.97507 14.5583C1.91693 14.5981 1.86444 14.6461 1.81055 14.6886C1.63613 14.6941 1.68717 14.561 1.65739 14.4691C1.62619 14.3717 1.58229 14.2606 1.50713 14.1988C1.36816 14.085 1.18658 14.0191 1.0547 13.9012C0.990888 13.8435 0.968232 13.7077 0.982413 13.6144C1.01219 13.4237 1.14975 13.2989 1.34261 13.2563C1.44755 13.233 1.56242 13.2495 1.67303 13.2481C1.66878 13.3126 1.66448 13.3757 1.66306 13.4402C1.66165 13.4717 1.66165 13.506 1.67158 13.5348C1.67867 13.5554 1.70418 13.5705 1.72261 13.5884C1.7297 13.5362 1.75099 13.4813 1.73965 13.4347C1.72546 13.3743 1.68575 13.3194 1.65739 13.2632C1.73396 12.8187 1.77938 12.7748 2.15801 12.7693C2.29981 12.7666 2.4402 12.7652 2.58343 12.7625C2.72808 12.8489 2.87126 12.9326 3.03434 12.8009L3.04431 12.8132C2.88548 12.8008 2.72668 12.7871 2.56785 12.7748C2.34521 12.4236 1.97366 12.2549 1.62907 12.0504C1.34687 11.8831 1.06466 11.7102 0.799475 11.5181C0.690283 11.4385 0.605193 11.3082 0.545633 11.1834C0.425096 10.9296 0.474702 10.7759 0.694504 10.6291C0.816459 10.5482 0.948357 10.4796 1.06606 10.3945C1.20078 10.2971 1.25468 10.1544 1.15116 10.0214C0.983823 9.80597 1.15543 9.7072 1.27455 9.57961C1.2944 9.55766 1.28587 9.51236 1.29296 9.45611C1.15116 9.35459 1.00512 9.24758 0.857639 9.14331C0.654853 9.00063 0.450608 8.85934 0.247823 8.71666C0.225133 8.39975 0.19678 8.08285 0.185435 7.76456C0.184017 7.70694 0.242164 7.61776 0.297469 7.5917C0.494582 7.49566 0.701625 7.42294 0.902992 7.33651C0.932772 7.32416 0.973893 7.28299 0.971057 7.2583C0.961131 7.17049 0.900167 7.14031 0.807992 7.14991C0.697382 7.16089 0.585376 7.17462 0.476183 7.16502C0.314522 7.15267 0.18831 7.06074 0.154276 6.9112C0.10748 6.70404 0.0564178 6.48729 0.0720167 6.27876C0.115977 5.70393 0.115974 5.13321 0.0337258 4.56112C-0.0173251 4.20579 -0.0145222 3.84497 0.0705626 3.48964C0.104597 3.34696 0.155695 3.21113 0.296084 3.13842C0.46909 3.04924 0.595249 2.92029 0.634956 2.73646C0.720041 2.34134 1.00367 2.13144 1.35535 1.98465C2.20336 1.62932 3.04856 1.26438 3.92493 0.984512C4.34184 0.851436 4.79421 0.819893 5.23381 0.755412C5.33733 0.740321 5.47202 0.749905 5.55427 0.803409C6.03925 1.12307 6.54129 1.02156 7.05038 0.891231C7.44461 0.789709 7.84307 0.704637 8.23588 0.603114C8.38052 0.566073 8.51947 0.546862 8.6712 0.564697C8.77189 0.577044 8.90805 0.560588 8.98037 0.502967C9.25831 0.280716 9.55044 0.249181 9.9078 0.282107C10.268 0.315033 10.6424 0.228598 11.0083 0.175093C11.3344 0.128448 11.6492 0.0159371 11.991 0.127063C12.1157 0.166848 12.2774 0.101016 12.4221 0.0790654C12.5681 0.0571147 12.7128 0.0200702 12.8588 0.00772296C13.5693 -0.0540134 14.0869 0.250542 14.2826 1.05997C14.518 2.03678 14.7321 3.01908 15.0143 3.98354C15.4298 5.40897 15.5986 6.86731 15.7574 8.33115C15.8425 9.11588 15.9148 9.90198 15.997 10.6853C16.0722 11.396 16.1601 12.1067 16.2296 12.8187C16.2438 12.9573 16.204 13.0999 16.187 13.2413C16.1743 13.3441 16.1091 13.4662 16.1474 13.5458C16.5331 14.3607 16.4848 15.225 16.4551 16.0825C16.4423 16.4515 16.5699 16.789 16.6139 17.143C16.6579 17.4997 16.5005 17.8536 16.6097 18.2117C16.7472 18.6617 16.7685 19.1213 16.7373 19.5891C16.7231 19.799 16.7713 20.0144 16.8124 20.2243C16.8564 20.4424 16.8394 20.6496 16.7741 20.8595C16.7259 21.0118 16.6238 21.1024 16.4706 21.1353C16.3997 21.1504 16.3232 21.1462 16.2495 21.1462C16.0169 21.1462 15.9559 21.3301 15.8637 21.4796L15.8325 21.5016L15.8666 21.4755C16.0807 21.3822 16.2778 21.363 16.4934 21.5029C16.6579 21.6113 16.7827 21.7348 16.811 21.9186C16.8706 22.3069 16.933 22.6979 16.95 23.0903C16.9713 23.554 16.9897 24.0245 16.9288 24.4814C16.8848 24.8106 16.9259 25.1193 16.9528 25.439C16.977 25.7202 16.9159 26.0083 16.9457 26.2882C16.9641 26.461 17.0748 26.6284 16.9911 26.8054C16.9684 26.8534 16.8706 26.9083 16.8209 26.8973C16.5926 26.848 16.4891 26.7217 16.5075 26.5324C16.5175 26.4268 16.5487 26.3239 16.5586 26.2182C16.5614 26.1935 16.5217 26.1428 16.499 26.1414C16.4324 26.1373 16.3402 26.1277 16.3019 26.1647C16.1346 26.3252 16.0665 26.564 16.1005 26.7547C16.1488 27.0249 16.1431 27.2334 15.9276 27.4241C15.912 27.4379 15.9616 27.5751 15.9999 27.5847C16.214 27.6354 16.4338 27.667 16.6507 27.7026C16.9656 27.7548 17.1003 28.1485 16.9074 28.4627C16.8918 28.4874 16.8422 28.4929 16.8067 28.508C16.7472 28.4847 16.6905 28.4531 16.6295 28.4394C16.5387 28.4188 16.5033 28.4572 16.5458 28.523C16.5558 28.5395 16.6054 28.5409 16.6352 28.5368C16.699 28.5272 16.7614 28.5093 16.8238 28.4956C16.733 28.7961 17.0464 29.0375 16.9727 29.3201C16.9088 29.563 16.8606 29.8017 16.8479 30.0528C16.8266 30.4506 16.8549 30.8334 17.0407 31.1997C17.4406 31.9885 17.5343 32.835 17.5229 33.6828C17.4548 33.7487 17.4123 33.8269 17.3513 33.8434C16.9273 33.9627 16.6891 34.2646 16.4934 34.6185C16.4395 34.7159 16.2949 34.7036 16.2197 34.602C16.1559 34.5156 16.1006 34.4223 16.041 34.3318L16.058 34.318C15.9857 34.3976 15.8893 34.4676 15.8453 34.5595C15.7744 34.7049 15.8836 34.8325 15.9517 34.9519C16.0027 35.0424 16.0736 35.1302 16.1573 35.192C16.2721 35.2784 16.4083 35.336 16.5345 35.4101C16.838 35.5884 16.916 35.7764 16.8323 36.1208C16.7997 36.2579 16.5628 36.3416 16.4962 36.2264C16.3388 35.952 16.1317 35.9026 15.8524 36.0151L15.8694 36.0055C15.5971 35.7942 15.6723 35.3909 15.3844 35.1878C15.3561 35.1673 15.322 35.1522 15.288 35.1426C15.2001 35.1179 15.1377 35.1494 15.115 35.2345C15.0881 35.3374 15.0654 35.443 15.0512 35.5473C15.0171 35.7928 14.9874 36.0398 14.9647 36.2291C14.7406 36.5022 14.5534 36.7189 14.3776 36.9453C14.1649 37.221 13.8728 37.3719 13.5324 37.3898C13.1283 37.4104 12.7284 37.4474 12.3271 37.5009C12.0051 37.5448 11.6577 37.5242 11.3401 37.4515C10.7714 37.3212 10.1716 37.3322 9.62702 37.0893C9.49656 37.0303 9.34199 37.0207 9.19876 36.9892L9.21295 36.981C9.00591 37.0509 8.80315 37.1332 8.59185 37.1867C8.20755 37.2828 7.8658 37.2169 7.60204 36.9027C7.55524 36.8479 7.5056 36.7957 7.45171 36.7491C7.31558 36.6325 7.19642 36.6956 7.06312 36.7724C6.94826 36.8396 6.86037 36.7614 6.8079 36.6613C6.67176 36.3992 6.7157 36.2291 6.95961 36.1399C7.12694 36.0796 7.31698 36.0741 7.47865 36.0041C7.60486 35.9506 7.69843 35.7695 7.81613 35.7599C8.19618 35.7284 8.48404 35.4814 8.83856 35.4019C9.03851 35.3566 9.1151 35.1851 9.20728 35.0328L9.21718 35.0452C8.97327 35.0314 8.72653 35.0246 8.54643 34.8243C8.43582 34.7022 8.29973 34.7132 8.16927 34.7749C8.00477 34.8517 7.83884 34.8709 7.66158 34.838L7.67855 34.8545C7.46016 34.6391 7.46019 34.6391 7.21061 34.7996L7.23187 34.7831C7.14111 34.8517 7.05182 34.9203 6.96106 34.9875L6.97096 34.9766C6.70862 34.8064 6.46895 34.5965 6.10592 34.6583C5.91448 34.6898 5.77268 34.5705 5.68617 34.4017C5.77693 34.3318 5.86629 34.2632 5.95705 34.1946C6.04072 34.1342 6.12438 34.0725 6.20805 34.0121L6.21941 34.0258C6.13574 34.0876 6.05207 34.1479 5.9684 34.2096C5.87765 34.2796 5.78687 34.3482 5.69753 34.4182C5.38839 34.1795 5.32596 34.0629 5.48336 33.8365C5.64928 33.5991 5.7954 33.3797 5.72024 33.0751C5.63516 32.728 5.76561 32.669 6.13999 32.7074L6.17398 32.7417L6.14421 32.7101C6.09032 32.4042 5.78828 32.2657 5.62095 31.9734C5.61953 31.7718 5.61527 31.5248 5.61527 31.2765C5.61527 31.0625 5.628 30.8485 5.62233 30.6344C5.61666 30.463 5.37703 30.3628 5.46778 30.1392C5.6805 30.0376 5.91167 29.932 6.13715 29.8154C6.19671 29.7852 6.2676 29.718 6.27044 29.6631C6.27328 29.6165 6.19955 29.541 6.14283 29.5177C6.00811 29.4628 5.83506 29.4532 5.78117 29.3009C5.67624 29.0087 5.45928 28.8345 5.18985 28.6959C5.14021 28.6698 5.12181 28.5875 5.08494 28.5244C5.27638 28.2665 5.6649 28.2048 5.78969 27.8824C5.80529 27.8412 5.75707 27.7479 5.71027 27.7191C5.4933 27.5847 5.2863 27.7191 5.07359 27.7548C5.01828 27.7644 4.91756 27.7081 4.89487 27.6587C4.85375 27.5696 4.83675 27.4598 4.84668 27.3638C4.85235 27.3034 4.91477 27.228 4.97291 27.1978C5.1998 27.0825 5.43941 26.9879 5.6663 26.8726C5.72019 26.8452 5.77124 26.7642 5.7755 26.7053C5.77975 26.6504 5.72163 26.5434 5.68617 26.5406C5.08633 26.4954 4.57016 26.2265 4.03412 25.9974C3.70088 25.8547 3.53921 25.5817 3.32225 25.3512C3.15917 25.1783 3.24991 24.93 3.48247 24.8408C3.58457 24.8011 3.69804 24.7832 3.7888 24.7283C3.83843 24.6981 3.8583 24.6131 3.87674 24.5486C3.88241 24.5308 3.83845 24.4786 3.81151 24.4759C3.63 24.4539 3.44701 24.4293 3.26408 24.4251C3.00457 24.4197 2.87126 24.2591 2.7564 24.0671L2.74795 24.0712ZM14.5279 26.7382L14.5236 26.7492L14.5038 26.7711L14.5279 26.7382ZM3.2116 11.5181L3.21727 11.5209L3.1875 11.5414L3.2116 11.5181ZM4.74171 20.6112L4.75874 20.6373L4.73042 20.6098C4.7205 20.581 4.71479 20.5494 4.69636 20.5261C4.68501 20.5097 4.65663 20.5042 4.63535 20.4946C4.67081 20.533 4.70626 20.5728 4.74171 20.6112ZM3.57893 17.4393L3.56051 17.4036L3.59596 17.4256C3.6385 17.4709 3.61579 17.6327 3.75335 17.5079C3.69521 17.486 3.63707 17.4626 3.57893 17.4393ZM16.2565 30.8594C16.3048 30.8169 16.3615 30.7812 16.3997 30.7318C16.4536 30.6605 16.4366 30.6084 16.3671 30.6056C16.3544 30.6056 16.336 30.6578 16.3246 30.6866C16.3019 30.7456 16.282 30.8073 16.2608 30.8677L16.2282 30.8882C16.2296 30.8882 16.2565 30.8594 16.2565 30.8594ZM0.917187 8.44365C0.854791 8.41896 0.79377 8.38192 0.729956 8.37368C0.634945 8.36134 0.600933 8.4107 0.646311 8.48616C0.659074 8.50811 0.711524 8.53006 0.732795 8.52183C0.792354 8.49851 0.846302 8.4601 0.901607 8.42717C0.948404 8.39151 0.995165 8.35583 1.04196 8.31879C1.01927 8.30507 0.99804 8.29138 0.97535 8.27766C0.955497 8.33391 0.935622 8.38878 0.917187 8.44365ZM4.26242 22.9764C4.39713 22.9791 4.53041 22.9846 4.66513 22.9819C4.76581 22.9805 4.7914 22.9311 4.73042 22.8639C4.71199 22.8433 4.66092 22.8282 4.63681 22.8378C4.51343 22.8845 4.39434 22.9407 4.27239 22.9901C4.21141 22.9599 4.15039 22.9284 4.08799 22.9023C4.05821 22.8899 4.01994 22.8831 3.99016 22.89C3.96463 22.8955 3.94475 22.9256 3.92348 22.9435C3.97027 22.9709 4.01707 23.0189 4.06528 23.0217C4.1291 23.0272 4.19577 22.9942 4.26242 22.9764ZM13.1155 9.43692C13.0446 9.36695 12.9765 9.29424 12.9028 9.22701C12.8588 9.18723 12.8049 9.1543 12.7567 9.12C12.7312 9.17488 12.6787 9.23249 12.683 9.28462C12.6986 9.45337 12.7255 9.62214 12.7709 9.78539C12.7837 9.83067 12.873 9.87045 12.934 9.88417C13.029 9.90749 13.1708 9.81556 13.168 9.73187C13.1637 9.63172 13.1297 9.53158 13.1084 9.4328L13.1382 9.41086L13.1155 9.43692ZM14.1876 34.7859C14.1408 34.79 14.094 34.7941 14.0472 34.7968C14.0216 34.9601 13.9933 35.1234 13.972 35.2866C13.9692 35.3086 14.016 35.358 14.0217 35.3552C14.0756 35.3319 14.1635 35.3045 14.1677 35.2702C14.1876 35.111 14.1833 34.9478 14.1876 34.7859ZM3.21305 10.9995C3.29814 10.9584 3.40588 10.9323 3.47112 10.8665C3.525 10.8143 3.474 10.7334 3.38325 10.7251C3.25137 10.7128 3.14636 10.7855 3.14069 10.887C3.14069 10.9131 3.17618 10.9419 3.21305 10.9995ZM7.6899 2.65962C7.6743 2.68569 7.64026 2.71588 7.64594 2.73646C7.65303 2.75978 7.69415 2.77214 7.71968 2.78998C7.73528 2.76391 7.76793 2.73372 7.76226 2.71314C7.75659 2.69119 7.71543 2.67746 7.6899 2.65962ZM6.45054 28.947C6.4633 28.973 6.47607 29.0224 6.48883 29.0224C6.55406 29.0238 6.61789 29.0115 6.68312 29.0046C6.66752 28.9813 6.65472 28.9374 6.6377 28.936C6.5753 28.9305 6.51293 28.9415 6.45054 28.947ZM1.09445 3.85184C1.17386 3.87928 1.22348 3.8573 1.22774 3.78871C1.22916 3.7695 1.19372 3.73795 1.16819 3.72835C1.09161 3.69817 1.03915 3.72286 1.0349 3.79145C1.0349 3.80929 1.07459 3.83126 1.09445 3.85184ZM4.72045 21.5578L4.72897 21.6017L4.79281 21.5866L4.72045 21.5578ZM16.0141 23.3029C15.9843 23.3097 15.9347 23.3098 15.9276 23.3262C15.8964 23.4003 15.9361 23.4387 16.0283 23.4195C16.0509 23.4154 16.068 23.3811 16.0878 23.3605C16.0623 23.3427 16.0382 23.3221 16.0141 23.3029ZM8.42304 36.815L8.46846 36.7779L8.38904 36.7669L8.42304 36.815ZM2.43449 10.6346L2.35652 10.6593L2.42604 10.7005L2.43449 10.6346ZM16.387 27.9729L16.404 27.9084L16.3303 27.9249L16.387 27.9729ZM6.16124 30.6097L6.14421 30.6893L6.23499 30.666L6.16124 30.6097ZM6.17828 31.0913L6.11444 31.0405L6.09456 31.1078L6.17828 31.0913ZM12.6262 35.4924L12.6901 35.4197L12.6022 35.3991L12.6262 35.4924ZM14.5166 35.9931C14.4953 35.9726 14.4754 35.9396 14.4513 35.9342C14.4272 35.93 14.3974 35.9534 14.3691 35.9657C14.3903 35.9863 14.4088 36.0192 14.4343 36.0247C14.4584 36.0288 14.4882 36.0055 14.5166 35.9931Z" fill="#011D26"/>
<path d="M11.1727 56.9904C11.0962 56.9136 11.0224 56.8299 10.9401 56.7599C10.8281 56.6639 10.7006 56.5733 10.5417 56.6268C10.2907 56.7105 10.0482 56.749 9.78588 56.6502C9.65258 56.5994 9.49229 56.5829 9.34765 56.5952C8.60316 56.6611 7.87432 56.5143 7.13834 56.4635C6.82778 56.4416 6.5512 56.3676 6.30729 56.2016C6.00524 55.9971 5.7188 55.7666 5.43519 55.5375C5.28912 55.4195 5.25932 55.0217 5.37702 54.8351C5.41247 54.7789 5.49192 54.7487 5.5529 54.7075C5.7415 54.584 5.70891 54.4098 5.47493 54.2945C5.3785 54.2479 5.2551 54.2493 5.16009 54.1985C5.11187 54.1725 5.06652 54.0764 5.07644 54.0216C5.10055 53.883 5.153 53.7472 5.20122 53.6127C5.2466 53.4838 5.41677 53.4083 5.56141 53.4563C5.70039 53.503 5.83367 53.5619 5.96981 53.6141C6.10736 53.6662 6.24348 53.7252 6.38387 53.765C6.50299 53.7979 6.59378 53.7335 6.66043 53.6415C6.72566 53.5496 6.76395 53.4453 6.70156 53.3452C6.66752 53.2903 6.59375 53.2341 6.53136 53.2272C6.38813 53.2121 6.24211 53.2286 6.10739 53.2313C5.8805 52.828 5.8195 52.4095 5.8748 51.9733C5.67202 51.8196 5.50608 51.677 5.32315 51.5603C5.15015 51.4506 5.08637 51.3107 5.0736 51.1158C5.06793 51.0212 4.98285 50.9306 4.9318 50.8401C4.83111 50.6631 4.83108 50.6645 5.00408 50.4985C5.23949 50.2721 5.24799 50.2007 5.07499 49.9634C4.88355 49.7 4.67792 49.4448 4.50208 49.1718C4.37729 48.9784 4.35181 48.7424 4.51489 48.5668C4.78149 48.2801 4.86373 47.9412 4.89918 47.579C4.98143 46.749 5.29904 45.9807 5.56848 45.2015C5.66065 44.9326 5.84076 44.6925 5.96697 44.4332C6.20379 43.9448 6.58953 43.6965 7.13266 43.5387C8.05441 43.2712 8.98749 43.0558 9.91633 42.8239C10.1673 42.7608 10.4127 42.6758 10.658 42.5948C11.1543 42.4329 11.6719 42.3945 12.1881 42.3589C12.3696 42.3465 12.5129 42.4796 12.5568 42.6826C12.6093 42.9282 12.656 43.1752 12.7156 43.4194C12.7553 43.5854 12.9765 43.6979 13.1552 43.6526C13.2261 43.6347 13.2956 43.6073 13.3651 43.5826C14.1365 43.3178 14.9392 43.1985 15.7447 43.0805C16.0425 43.0366 16.3303 43.0407 16.6267 43.0517C17.3868 43.0791 17.4478 43.1052 17.5031 43.8433C17.5357 44.2686 17.4804 44.6993 17.4704 44.9518C17.3995 45.2906 17.2265 45.3181 17.1258 45.4169C17.0365 45.5047 17.0521 45.5993 17.1301 45.6913C17.1982 45.7722 17.3301 45.871 17.3159 45.9382C17.2521 46.2236 17.4066 46.406 17.5626 46.6077C17.6576 46.7298 17.6236 46.8862 17.547 47.0152C17.4066 47.2498 17.4179 47.4747 17.5073 47.7313C17.8278 48.6519 17.9568 49.6081 17.9979 50.5753C18.0093 50.8593 17.9753 51.1474 17.8618 51.4204C17.7937 51.585 17.737 51.7606 17.7852 51.9445C17.8774 52.2957 17.6718 52.4644 17.3811 52.6071C17.228 52.6826 17.2606 52.8403 17.4378 52.9378C17.5016 52.9734 17.5782 52.9885 17.6378 53.0297C17.6959 53.0694 17.7554 53.1216 17.7852 53.1806C17.8164 53.241 17.8193 53.3164 17.8207 53.3864C17.8249 53.492 17.7129 53.562 17.5796 53.4934C17.2776 53.3356 16.9812 53.3987 16.726 53.5331C16.0722 53.8789 15.3377 54.0298 14.6669 54.3645C14.6244 54.403 14.5591 54.4441 14.5208 54.5017C14.0769 55.1616 14.077 55.1616 14.05 55.9875C14.0443 56.1659 14.0372 56.3428 14.0301 56.5349C14.1096 56.6007 14.1932 56.668 14.2726 56.7379C14.2982 56.7599 14.328 56.7929 14.3308 56.8217C14.3365 56.8971 14.284 56.9355 14.1933 56.9382C14.0827 56.9423 13.9706 56.9478 13.86 56.9492C13.7296 56.9506 13.6431 56.8737 13.6261 56.764C13.5949 56.5541 13.6005 56.3387 13.5693 56.1275C13.5608 56.0712 13.4856 56.0095 13.4261 55.9765C13.3197 55.9175 13.2233 55.9436 13.1467 56.0451C13.0829 56.1302 13.0063 56.207 12.9326 56.2921C12.6688 56.1562 12.4263 55.982 12.1157 56.1549C11.9498 56.2468 11.8166 56.3538 11.7329 56.5253C11.618 56.764 11.4436 56.9396 11.1529 56.9684L11.1727 56.9904ZM6.54694 52.8211L6.52714 52.898L6.61784 52.8774L6.54694 52.8211Z" fill="#011D26"/>
<path d="M15.8552 36.0151C15.9304 36.2525 15.936 36.4829 15.7758 36.6928C15.7602 36.7134 15.7091 36.7244 15.6808 36.7162C15.6524 36.7079 15.6142 36.6736 15.6113 36.6476C15.6028 36.5817 15.59 36.5035 15.6184 36.4486C15.6921 36.2964 15.7857 36.1537 15.8736 36.0069C15.8722 36.0055 15.8552 36.0151 15.8552 36.0151Z" fill="#011D26"/>
<path d="M5.62096 52.6688C5.5926 52.7182 5.56567 52.7703 5.53163 52.817C5.5288 52.8211 5.45647 52.7964 5.45505 52.7827C5.45363 52.725 5.46213 52.6647 5.47915 52.6098C5.4834 52.5975 5.5401 52.5865 5.56279 52.5961C5.58832 52.6084 5.60252 52.6441 5.62096 52.6688Z" fill="#011D26"/>
<path d="M7.66442 34.8408C7.65166 34.9162 7.64027 34.993 7.62751 35.0685L7.64455 35.0562C7.49707 35.0397 7.34818 35.0232 7.2007 35.0068L7.20777 35.0232C7.21769 34.945 7.22623 34.8668 7.23616 34.7873L7.2149 34.8037C7.37089 34.8215 7.52685 34.8394 7.68284 34.8586L7.66442 34.8408Z" fill="#011D26"/>
<path d="M7.2007 35.0068C7.11562 35.074 7.04045 35.0644 6.9738 34.9821L6.96389 34.9931C7.04473 35.0027 7.12555 35.0136 7.20638 35.0232L7.2007 35.0068Z" fill="#011D26"/>
<path d="M11.1571 56.9698L11.1359 57L11.1727 56.9904L11.1571 56.9698Z" fill="#011D26"/>
</svg>
