<svg width="60" height="60" viewBox="0 0 60 60" fill="none" xmlns="http://www.w3.org/2000/svg">
<g clip-path="url(#clip0_210_98)">
<path d="M54.9996 15.6081V5.00285H44.3904L49.3897 0.00292969H60.0001V10.6087L54.9996 15.6081Z" fill="white"/>
<path d="M15.6052 4.99935H5.0005V15.6103L0 10.6092V0H10.6058L15.6052 4.99935Z" fill="white"/>
<path d="M5.0005 44.3906V54.9999H15.6103L10.6104 60.0004H0V49.39L5.0005 44.3906Z" fill="white"/>
<path d="M44.394 54.9999H54.9999V44.3906L60.0004 49.39V60.0004H49.3945L44.394 54.9999Z" fill="white"/>
<path d="M50.0003 10.002H39.3968L30 19.397L20.6056 10.002H9.99976V20.6078L19.3942 30.0045L9.99976 39.399V50.0002H20.6101L30 40.6103L39.3916 50.0002H50.0003V39.3944L40.6081 30.0045L50.0003 20.6101V10.002ZM14.9997 18.5375V15.003H18.5342L26.4661 22.9321L22.931 26.4666L14.9997 18.5375ZM30 26.4666L33.5357 30.0028L30 33.5396L26.4661 30.0028L30 26.4666ZM18.5382 44.9997H14.9997V41.4698L22.9299 33.5396L26.4661 37.0752L18.5382 44.9997ZM44.9998 41.4641V44.9997H41.4624L33.5374 37.0752L37.073 33.5396L44.9998 41.4641ZM44.9998 18.5404L37.073 26.4666L33.5357 22.9321L41.4676 15.003H44.9998V18.5404Z" fill="white"/>
</g>
<defs>
<clipPath id="clip0_210_98">
<rect width="60" height="60" fill="white"/>
</clipPath>
</defs>
</svg>
