<svg width="60" height="60" viewBox="0 0 60 60" fill="none" xmlns="http://www.w3.org/2000/svg">
<g clip-path="url(#clip0_210_87)">
<path d="M50.0004 40C44.4781 40 40 44.4781 40 50.0004C40 55.5228 44.4781 60.0003 50.0004 60.0003C55.5228 60.0003 60.0003 55.5228 60.0003 50.0004C60.0003 44.4781 55.5228 40 50.0004 40ZM50.0004 54.9998C47.2435 54.9998 44.9999 52.7567 44.9999 50.0004C44.9999 47.2412 47.2435 44.9999 50.0004 44.9999C52.759 44.9999 54.9998 47.2412 54.9998 50.0004C54.9998 52.7567 52.759 54.9998 50.0004 54.9998Z" fill="white"/>
<path d="M38.7524 17.5C33.9185 17.5 30 21.419 30 26.2502C30 31.0813 33.9185 35.0003 38.7524 35.0003C43.5807 35.0003 47.4997 31.0813 47.4997 26.2502C47.4997 21.419 43.5807 17.5 38.7524 17.5ZM38.7524 30.0004C36.6845 30.0004 34.9999 28.3181 34.9999 26.2502C34.9999 24.1828 36.6845 22.5005 38.7524 22.5005C40.8181 22.5005 42.5004 24.1828 42.5004 26.2502C42.5004 28.3181 40.8181 30.0004 38.7524 30.0004Z" fill="white"/>
<path d="M14.9998 30C6.71425 30 0 36.716 0 44.9975C0 53.2836 6.71425 60.0001 14.9998 60.0001C23.2859 60.0001 30.0001 53.2836 30.0001 44.9998C30.0001 36.716 23.2859 30 14.9998 30ZM14.9998 54.9996C9.48429 54.9996 5.0005 50.513 5.0005 44.9975C5.0005 39.4843 9.48544 34.9999 14.9998 34.9999C20.5147 34.9999 24.9996 39.4843 24.9996 44.9975C24.9996 50.513 20.5153 54.9996 14.9998 54.9996Z" fill="white"/>
<path d="M12.5004 0C5.59559 0 0 5.59559 0 12.5004C0 19.4046 5.59559 25.0008 12.5004 25.0008C19.4046 25.0008 25.0008 19.4046 25.0008 12.5004C24.9996 5.59559 19.4046 0 12.5004 0ZM12.5004 20.0003C8.36449 20.0003 5.0005 16.6363 5.0005 12.5004C5.0005 8.36449 8.36449 5.0005 12.5004 5.0005C16.6363 5.0005 20.0003 8.36449 20.0003 12.5004C20.0003 16.6357 16.6357 20.0003 12.5004 20.0003Z" fill="white"/>
<path d="M57.4997 32.4994C57.4997 33.8801 56.3804 34.9994 54.9997 34.9994C53.619 34.9994 52.4998 33.8801 52.4998 32.4994C52.4998 31.1192 53.619 30 54.9997 30C56.3804 30 57.4997 31.1192 57.4997 32.4994Z" fill="white"/>
<path d="M38.7504 8.75063C38.7504 10.822 37.0715 12.5009 35.0001 12.5009C32.9293 12.5009 31.2505 10.822 31.2505 8.75063C31.2505 6.67982 32.9293 5.00098 35.0001 5.00098C37.0715 5.00098 38.7504 6.67982 38.7504 8.75063Z" fill="white"/>
<path d="M52.5022 0C48.3594 0 45 3.35712 45 7.49988C45 11.6432 48.3594 14.9998 52.5022 14.9998C56.6432 14.9998 60.0003 11.6432 60.0003 7.49988C60.0003 3.35712 56.6432 0 52.5022 0ZM52.5022 9.99985C51.1232 9.99985 50.0005 8.87947 50.0005 7.49988C50.0005 6.12087 51.1232 5.0005 52.5022 5.0005C53.8795 5.0005 54.9998 6.12087 54.9998 7.49988C54.9998 8.87947 53.8795 9.99985 52.5022 9.99985Z" fill="white"/>
</g>
<defs>
<clipPath id="clip0_210_87">
<rect width="60" height="60" fill="white"/>
</clipPath>
</defs>
</svg>
