<svg width="60" height="60" viewBox="0 0 60 60" fill="none" xmlns="http://www.w3.org/2000/svg">
<path d="M13.2003 15.5999C12.7585 15.5999 12.4003 15.2417 12.4003 14.7999C12.4003 14.3581 12.7585 13.9999 13.2003 13.9999C13.6421 13.9999 14.0003 14.3581 14.0003 14.7999C14.0003 15.2417 13.6421 15.5999 13.2003 15.5999ZM50.0003 37.1999C49.5585 37.1999 49.2003 37.5581 49.2003 37.9999C49.2003 38.4417 49.5585 38.7999 50.0003 38.7999C50.4421 38.7999 50.8003 38.4417 50.8003 37.9999C50.8003 37.5581 50.4421 37.1999 50.0003 37.1999ZM51.6003 19.5999C51.6003 20.9233 50.5237 21.9999 49.2003 21.9999C47.8769 21.9999 46.8003 20.9233 46.8003 19.5999C46.8003 18.2765 47.8769 17.1999 49.2003 17.1999C50.5237 17.1999 51.6003 18.2765 51.6003 19.5999ZM50.0003 19.5999C50.0003 19.1589 49.6417 18.7999 49.2003 18.7999C48.7589 18.7999 48.4003 19.1589 48.4003 19.5999C48.4003 20.0409 48.7589 20.3999 49.2003 20.3999C49.6417 20.3999 50.0003 20.0409 50.0003 19.5999ZM12.1659 20.6343C11.8535 20.3219 11.3471 20.3219 11.0347 20.6343L10.4003 21.2687L9.76589 20.6343C9.45349 20.3219 8.94709 20.3219 8.63469 20.6343C8.32229 20.9467 8.32229 21.4531 8.63469 21.7655L9.26909 22.3999L8.63469 23.0343C8.32229 23.3467 8.32229 23.8531 8.63469 24.1655C8.79089 24.3217 8.99569 24.3999 9.20029 24.3999C9.40489 24.3999 9.60969 24.3217 9.76589 24.1655L10.4003 23.5311L11.0347 24.1655C11.1909 24.3217 11.3957 24.3999 11.6003 24.3999C11.8049 24.3999 12.0097 24.3217 12.1659 24.1655C12.4783 23.8531 12.4783 23.3467 12.1659 23.0343L11.5315 22.3999L12.1659 21.7655C12.4785 21.4531 12.4785 20.9467 12.1659 20.6343ZM40.5323 24.3253C43.5471 27.3467 45.2003 31.3295 45.2003 35.5999C45.2003 44.4221 38.0229 51.5999 29.2003 51.5999C20.3777 51.5999 13.2003 44.4221 13.2003 35.5999C13.2003 31.3295 14.8535 27.3467 17.8683 24.3253C17.4245 23.0549 17.2003 21.7371 17.2003 20.3999C17.2003 13.7831 22.5831 8.3999 29.2003 8.3999C35.8175 8.3999 41.2003 13.7831 41.2003 20.3999C41.2003 21.7371 40.9761 23.0549 40.5323 24.3253ZM43.3923 37.9427C40.5733 39.5627 34.8631 40.3999 29.2003 40.3999C23.5375 40.3999 17.8273 39.5627 15.0083 37.9427C16.1329 44.7701 22.0599 49.9999 29.2003 49.9999C36.3407 49.9999 42.2677 44.7701 43.3923 37.9427ZM39.0519 25.1179C38.8121 24.8929 38.7347 24.5437 38.8565 24.2383C39.3503 23.0027 39.6003 21.7113 39.6003 20.3999C39.6003 14.6651 34.9347 9.9999 29.2003 9.9999C23.4659 9.9999 18.8003 14.6651 18.8003 20.3999C18.8003 21.7113 19.0503 23.0027 19.5441 24.2381C19.6659 24.5435 19.5887 24.8927 19.3487 25.1177C16.9339 27.3881 15.4299 30.3173 14.9677 33.5135C15.1573 33.5479 15.3367 33.6445 15.4629 33.8099C15.7309 34.1611 15.6637 34.6631 15.3121 34.9309C14.9871 35.1795 14.8003 35.4233 14.8003 35.5999C14.8003 36.6859 19.8831 38.7999 29.2003 38.7999C38.5175 38.7999 43.6003 36.6859 43.6003 35.5999C43.6003 35.4233 43.4135 35.1795 43.0885 34.9311C42.7369 34.6631 42.6697 34.1611 42.9377 33.8101C43.0631 33.6447 43.2427 33.5479 43.4329 33.5137C42.9707 30.3175 41.4667 27.3881 39.0519 25.1179ZM20.8893 31.4385C19.6705 31.6439 18.5603 31.8939 17.5901 32.1823C17.1659 32.3081 16.9245 32.7531 17.0503 33.1769C17.1535 33.5245 17.4721 33.7495 17.8175 33.7495C17.8925 33.7495 17.9691 33.7385 18.0449 33.7159C18.9535 33.4463 19.9995 33.2113 21.1551 33.0167C21.5911 32.9433 21.8847 32.5303 21.8113 32.0949C21.7379 31.6595 21.3221 31.3639 20.8893 31.4385ZM34.2003 31.0179C33.1253 30.9211 32.0049 30.8555 30.8707 30.8229C30.4247 30.7987 30.0613 31.1577 30.0481 31.5999C30.0357 32.0413 30.3833 32.4097 30.8255 32.4221C31.9271 32.4537 33.0145 32.5175 34.0567 32.6115C34.0809 32.6135 34.1051 32.6147 34.1293 32.6147C34.5387 32.6147 34.8879 32.3023 34.9253 31.8865C34.9651 31.4467 34.6401 31.0577 34.2003 31.0179ZM27.5393 30.8233C26.4017 30.8553 25.2815 30.9205 24.2097 31.0175C23.7699 31.0573 23.4449 31.4465 23.4847 31.8863C23.5223 32.3019 23.8715 32.6145 24.2807 32.6145C24.3049 32.6145 24.3291 32.6133 24.3533 32.6113C25.3923 32.5171 26.4799 32.4539 27.5845 32.4227C28.0259 32.4103 28.3743 32.0423 28.3619 31.6005C28.3495 31.1581 27.9651 30.7983 27.5393 30.8233ZM36.5987 32.0959C36.5253 32.5319 36.8191 32.9443 37.2549 33.0177C38.4127 33.2135 39.4589 33.4489 40.3635 33.7181C40.4393 33.7407 40.5167 33.7517 40.5917 33.7517C40.9371 33.7517 41.2549 33.5267 41.3581 33.1795C41.4847 32.7561 41.2433 32.3107 40.8199 32.1845C39.8527 31.8967 38.7425 31.6463 37.5207 31.4403C37.0847 31.3643 36.6721 31.6605 36.5987 32.0959ZM36.8495 23.3971C34.5613 21.9597 31.9167 21.1999 29.2003 21.1999C26.4347 21.1999 23.7487 21.9859 21.4323 23.4725C21.2987 23.5585 21.1487 23.5995 21.0011 23.5995C20.7379 23.5995 20.4801 23.4699 20.3269 23.2315C20.0887 22.8601 20.1965 22.3651 20.5683 22.1265C21.0513 21.8163 21.5529 21.5429 22.0627 21.2883C22.0249 20.9907 22.0003 20.6935 22.0003 20.3999C22.0003 16.4299 25.2299 13.1999 29.2003 13.1999C33.1707 13.1999 36.4003 16.4299 36.4003 20.3999C36.4003 20.6933 36.3757 20.9899 36.3381 21.2873C36.8019 21.5189 37.2593 21.7651 37.7009 22.0425C38.0751 22.2773 38.1877 22.7715 37.9525 23.1453C37.7191 23.5199 37.2261 23.6331 36.8495 23.3971ZM29.2003 19.5999C31.1223 19.5999 33.0119 19.9459 34.7887 20.6079C34.7915 20.5387 34.8003 20.4685 34.8003 20.3999C34.8003 17.3121 32.2879 14.7999 29.2003 14.7999C26.1127 14.7999 23.6003 17.3121 23.6003 20.3999C23.6003 20.4673 23.6089 20.5363 23.6117 20.6043C25.3873 19.9425 27.2767 19.5999 29.2003 19.5999Z" fill="white"/>
</svg>
