<svg width="60" height="60" viewBox="0 0 60 60" fill="none" xmlns="http://www.w3.org/2000/svg">
<path d="M33.1996 46.3998C33.1996 46.8416 32.8414 47.1998 32.3996 47.1998C31.9578 47.1998 31.5996 46.8416 31.5996 46.3998C31.5996 45.958 31.9578 45.5998 32.3996 45.5998C32.8414 45.5998 33.1996 45.958 33.1996 46.3998ZM10.7996 20.7998C11.2414 20.7998 11.5996 20.4416 11.5996 19.9998C11.5996 19.558 11.2414 19.1998 10.7996 19.1998C10.3578 19.1998 9.99961 19.558 9.99961 19.9998C9.99961 20.4416 10.3578 20.7998 10.7996 20.7998ZM30.5652 38.6342C30.2528 38.3218 29.7464 38.3218 29.434 38.6342L28.7996 39.2686L28.1652 38.6342C27.8528 38.3218 27.3464 38.3218 27.034 38.6342C26.7216 38.9466 26.7216 39.453 27.034 39.7654L27.6684 40.3998L27.034 41.0342C26.7216 41.3466 26.7216 41.853 27.034 42.1654C27.1902 42.3216 27.395 42.3998 27.5996 42.3998C27.8042 42.3998 28.009 42.3216 28.1652 42.1654L28.7996 41.531L29.434 42.1654C29.5902 42.3216 29.795 42.3998 29.9996 42.3998C30.2042 42.3998 30.409 42.3216 30.5652 42.1654C30.8776 41.853 30.8776 41.3466 30.5652 41.0342L29.9308 40.3998L30.5652 39.7654C30.8778 39.453 30.8778 38.9466 30.5652 38.6342ZM44.3996 15.1998C44.3996 13.8764 45.4762 12.7998 46.7996 12.7998C48.123 12.7998 49.1996 13.8764 49.1996 15.1998C49.1996 16.5232 48.123 17.5998 46.7996 17.5998C45.4762 17.5998 44.3996 16.5232 44.3996 15.1998ZM45.9996 15.1998C45.9996 15.6408 46.3586 15.9998 46.7996 15.9998C47.2406 15.9998 47.5996 15.6408 47.5996 15.1998C47.5996 14.7588 47.2406 14.3998 46.7996 14.3998C46.3586 14.3998 45.9996 14.7588 45.9996 15.1998ZM52.3996 39.1998C52.3996 41.3006 49.18 42.3998 45.9996 42.3998C42.8192 42.3998 39.5996 41.3006 39.5996 39.1998C39.5996 33.9064 35.293 29.5998 29.9996 29.5998C24.7062 29.5998 20.3996 33.9064 20.3996 39.1998C20.3996 41.3006 17.18 42.3998 13.9996 42.3998C10.8192 42.3998 7.59961 41.3006 7.59961 39.1998C7.59961 26.8482 17.648 16.7998 29.9996 16.7998C42.3512 16.7998 52.3996 26.8482 52.3996 39.1998ZM41.0004 37.133C42.2348 36.3862 44.1212 35.9998 45.9996 35.9998C47.7206 35.9998 49.4488 36.3244 50.6764 36.9528C49.552 26.5368 40.7094 18.3998 29.9996 18.3998C19.2898 18.3998 10.4472 26.5368 9.32281 36.9528C10.5504 36.3244 12.2786 35.9998 13.9996 35.9998C15.878 35.9998 17.7644 36.3862 18.9988 37.133C19.9722 31.9424 24.5306 27.9998 29.9996 27.9998C35.4686 27.9998 40.027 31.9424 41.0004 37.133Z" fill="white"/>
</svg>
