<svg width="60" height="60" viewBox="0 0 60 60" fill="none" xmlns="http://www.w3.org/2000/svg">
<path d="M48.4 10.3999C48.4 9.9581 48.7582 9.5999 49.2 9.5999C49.6418 9.5999 50 9.9581 50 10.3999C50 10.8417 49.6418 11.1999 49.2 11.1999C48.7582 11.1999 48.4 10.8417 48.4 10.3999ZM40.6344 11.7655C40.7906 11.9217 40.9954 11.9999 41.2 11.9999C41.4046 11.9999 41.6094 11.9217 41.7656 11.7655L42.4 11.1311L43.0344 11.7655C43.1906 11.9217 43.3954 11.9999 43.6 11.9999C43.8046 11.9999 44.0094 11.9217 44.1656 11.7655C44.478 11.4531 44.478 10.9467 44.1656 10.6343L43.5312 9.9999L44.1656 9.3655C44.478 9.0531 44.478 8.5467 44.1656 8.2343C43.8532 7.9219 43.3468 7.9219 43.0344 8.2343L42.4 8.8687L41.7656 8.2343C41.4532 7.9219 40.9468 7.9219 40.6344 8.2343C40.322 8.5467 40.322 9.0531 40.6344 9.3655L41.2688 9.9999L40.6344 10.6343C40.3218 10.9467 40.3218 11.4531 40.6344 11.7655ZM50 31.9999C50 43.0281 41.0282 51.9999 30 51.9999C18.9718 51.9999 10 43.0281 10 31.9999C10 20.9717 18.9718 11.9999 30 11.9999C41.0282 11.9999 50 20.9717 50 31.9999ZM30 13.5999C25.5808 13.5999 21.5214 15.1669 18.3456 17.7731C18.6288 17.7107 18.921 17.6495 19.2386 17.5917C19.6762 17.5135 20.0898 17.8015 20.169 18.2355C20.248 18.6703 19.9596 19.0871 19.5252 19.1659C17.8798 19.4651 17.067 19.7659 16.6748 19.9655C16.6462 19.9801 16.616 19.9871 16.5864 19.9981C17.7022 20.6271 22.2276 21.5999 30 21.5999C37.74 21.5999 42.2576 20.6353 43.3968 20.0061C43.125 19.8559 42.5802 19.6249 41.5066 19.3767C41.0762 19.2775 40.8078 18.8477 40.9074 18.4173C40.994 18.0417 41.3356 17.8063 41.7054 17.8137C38.5224 15.1829 34.4426 13.5999 30 13.5999ZM48.272 34.1355C44.4898 36.1923 35.381 36.7999 30 36.7999C24.619 36.7999 15.5102 36.1923 11.728 34.1355C12.1212 37.5209 13.436 40.6279 15.416 43.1999H15.5276C15.5464 42.9287 15.6894 42.6721 15.9494 42.5397C16.6584 42.1787 17.765 41.8597 19.2388 41.5917C19.6764 41.5139 20.09 41.8015 20.1692 42.2355C20.2482 42.6703 19.9598 43.0871 19.5254 43.1659C17.88 43.4651 17.0672 43.7659 16.675 43.9655C16.6464 43.9801 16.6162 43.9871 16.5866 43.9981C17.7022 44.6271 22.2276 45.5999 30 45.5999C37.74 45.5999 42.2576 44.6353 43.3968 44.0061C43.125 43.8559 42.5802 43.6249 41.5066 43.3767C41.0762 43.2775 40.8078 42.8477 40.9074 42.4173C41.0066 41.9865 41.4382 41.7201 41.8668 41.8181C42.9342 42.0647 44.0964 42.4185 44.7266 43.0185C46.6288 40.4829 47.888 37.4407 48.272 34.1355ZM30 50.3999C34.4226 50.3999 38.485 48.8307 41.6618 46.2209C37.7166 47.1329 31.6694 47.1999 30 47.1999C28.3306 47.1999 22.2834 47.1329 18.3382 46.2209C21.515 48.8307 25.5774 50.3999 30 50.3999ZM48.4 31.9999C48.4 27.8593 47.0244 24.0347 44.7074 20.9567C42.3594 23.0783 32.24 23.1999 30 23.1999C27.76 23.1999 17.6406 23.0783 15.2926 20.9567C12.9756 24.0347 11.6 27.8593 11.6 31.9999C11.6 32.9569 17.8602 35.1999 30 35.1999C42.1398 35.1999 48.4 32.9569 48.4 31.9999ZM22.5524 18.7453C22.579 18.7453 22.6064 18.7441 22.6332 18.7413C23.625 18.6413 24.686 18.5617 25.7864 18.5049C26.2278 18.4823 26.5668 18.1061 26.5442 17.6651C26.522 17.2237 26.1376 16.8835 25.7044 16.9073C24.5778 16.9651 23.4908 17.0467 22.4732 17.1491C22.0334 17.1937 21.713 17.5859 21.7572 18.0253C21.7988 18.4377 22.1464 18.7453 22.5524 18.7453ZM35.2902 18.5687C36.4094 18.6437 37.4668 18.7417 38.4328 18.8605C38.466 18.8645 38.4988 18.8663 38.5316 18.8663C38.9296 18.8663 39.2746 18.5695 39.3246 18.1639C39.3786 17.7253 39.0664 17.3261 38.6282 17.2721C37.6328 17.1499 36.5454 17.0491 35.3966 16.9725C34.9618 16.9347 34.5748 17.2761 34.5454 17.7175C34.5156 18.1581 34.8492 18.5393 35.2902 18.5687ZM28.9442 18.4061H28.9544C29.2998 18.4019 29.6482 18.3999 30.0004 18.3999C30.729 18.3979 31.4324 18.4089 32.1258 18.4257C32.1324 18.4261 32.1394 18.4261 32.1462 18.4261C32.5786 18.4261 32.9344 18.0811 32.9454 17.6461C32.9568 17.2047 32.6076 16.8375 32.1658 16.8265C31.474 16.8089 30.7662 16.7999 30.0458 16.7999C29.6748 16.8019 29.3012 16.8019 28.9348 16.8061C28.493 16.8115 28.139 17.1741 28.1446 17.6159C28.15 18.0545 28.507 18.4061 28.9442 18.4061ZM25.7042 40.9073C24.5776 40.9651 23.4906 41.0467 22.473 41.1491C22.0332 41.1937 21.7128 41.5859 21.757 42.0253C21.7988 42.4377 22.1464 42.7453 22.5524 42.7453C22.579 42.7453 22.6064 42.7441 22.6332 42.7413C23.625 42.6413 24.686 42.5617 25.7864 42.5049C26.2278 42.4823 26.5668 42.1061 26.5442 41.6651C26.5218 41.2237 26.1376 40.8881 25.7042 40.9073ZM32.1656 40.8265C31.4738 40.8089 30.766 40.7999 30.0456 40.7999C29.6746 40.7975 29.301 40.8015 28.9346 40.8061C28.4928 40.8115 28.1388 41.1741 28.1444 41.6159C28.1498 42.0545 28.5068 42.4061 28.944 42.4061H28.9542C29.2996 42.4019 29.648 42.3999 30.0002 42.3999C30.7288 42.3967 31.4322 42.4085 32.1256 42.4257C32.1322 42.4261 32.1392 42.4261 32.146 42.4261C32.5784 42.4261 32.9342 42.0811 32.9452 41.6461C32.9566 41.2045 32.6074 40.8375 32.1656 40.8265ZM38.6282 41.2721C37.6328 41.1499 36.5454 41.0491 35.3966 40.9725C34.9618 40.9369 34.5748 41.2765 34.5454 41.7175C34.5158 42.1581 34.8494 42.5393 35.2904 42.5687C36.4096 42.6437 37.467 42.7417 38.433 42.8605C38.4662 42.8645 38.499 42.8663 38.5318 42.8663C38.9298 42.8663 39.2748 42.5695 39.3248 42.1639C39.3786 41.7253 39.0664 41.3261 38.6282 41.2721ZM44.5602 29.6123C44.423 30.0323 44.6524 30.4841 45.0724 30.6213C45.6166 30.7991 46.0712 30.9841 46.424 31.1721C46.544 31.2361 46.6724 31.2663 46.7994 31.2663C47.0858 31.2663 47.3622 31.1123 47.506 30.8425C47.7138 30.4527 47.5662 29.9683 47.1764 29.7605C46.7424 29.5289 46.2014 29.3069 45.5694 29.1003C45.1484 28.9623 44.6968 29.1925 44.5602 29.6123ZM35.1304 27.4967C33.9928 27.4299 32.8182 27.3853 31.6398 27.3643C31.6352 27.3643 31.6304 27.3643 31.6254 27.3643C31.1902 27.3643 30.8336 27.7131 30.8258 28.1503C30.818 28.5921 31.17 28.9565 31.6118 28.9643C32.7684 28.9847 33.9208 29.0283 35.0368 29.0935C35.0528 29.0947 35.0684 29.0951 35.0844 29.0951C35.5048 29.0951 35.8574 28.7669 35.882 28.3419C35.9082 27.9011 35.5714 27.5225 35.1304 27.4967ZM28.1496 27.3683C26.9602 27.3921 25.7856 27.4393 24.6586 27.5089C24.2176 27.5359 23.882 27.9155 23.9094 28.3565C23.9356 28.7807 24.2876 29.1073 24.707 29.1073C24.7234 29.1073 24.7402 29.1069 24.757 29.1057C25.862 29.0377 27.0144 28.9913 28.1816 28.9681C28.6234 28.9591 28.9742 28.5939 28.9656 28.1521C28.9566 27.7105 28.5922 27.3675 28.1496 27.3683ZM21.1718 27.8045C19.9222 27.9431 18.751 28.1119 17.6914 28.3065C17.2566 28.3857 16.9692 28.8029 17.0488 29.2373C17.1196 29.6233 17.4558 29.8931 17.8348 29.8931C17.8824 29.8931 17.9308 29.8889 17.9798 29.8799C19.0028 29.6927 20.136 29.5295 21.3486 29.3951C21.7876 29.3463 22.104 28.9505 22.0556 28.5115C22.0062 28.0725 21.6128 27.7589 21.1718 27.8045ZM42.0988 28.2707C41.0348 28.0813 39.8632 27.9171 38.618 27.7835C38.1782 27.7367 37.7844 28.0543 37.7372 28.4933C37.69 28.9327 38.008 29.3273 38.447 29.3741C39.656 29.5041 40.7904 29.6627 41.8184 29.8455C41.8656 29.8541 41.913 29.8579 41.9594 29.8579C42.3398 29.8579 42.6774 29.5857 42.7462 29.1981C42.8238 28.7631 42.534 28.3479 42.0988 28.2707ZM14.211 29.1699C13.5692 29.3895 13.0282 29.6273 12.6032 29.8761C12.222 30.0995 12.0942 30.5897 12.3176 30.9711C12.4668 31.2251 12.734 31.3665 13.0086 31.3665C13.1462 31.3665 13.2852 31.3313 13.4126 31.2567C13.745 31.0617 14.188 30.8689 14.729 30.6841C15.147 30.5411 15.37 30.0865 15.227 29.6681C15.084 29.2499 14.6286 29.0273 14.211 29.1699Z" fill="white"/>
</svg>
