<svg width="60" height="60" viewBox="0 0 60 60" fill="none" xmlns="http://www.w3.org/2000/svg">
<path d="M11.4347 19.8346L12.0691 19.2002L11.4347 18.5658C11.1223 18.2534 11.1223 17.747 11.4347 17.4346C11.7471 17.1222 12.2535 17.1222 12.5659 17.4346L13.2003 18.069L13.8347 17.4346C14.1471 17.1222 14.6535 17.1222 14.9659 17.4346C15.2783 17.747 15.2783 18.2534 14.9659 18.5658L14.3315 19.2002L14.9659 19.8346C15.2783 20.147 15.2783 20.6534 14.9659 20.9658C14.8097 21.122 14.6049 21.2002 14.4003 21.2002C14.1957 21.2002 13.9909 21.122 13.8347 20.9658L13.2003 20.3314L12.5659 20.9658C12.4097 21.122 12.2049 21.2002 12.0003 21.2002C11.7957 21.2002 11.5909 21.122 11.4347 20.9658C11.1221 20.6534 11.1221 20.147 11.4347 19.8346ZM17.6003 11.6002C18.0421 11.6002 18.4003 11.242 18.4003 10.8002C18.4003 10.3584 18.0421 10.0002 17.6003 10.0002C17.1585 10.0002 16.8003 10.3584 16.8003 10.8002C16.8003 11.242 17.1585 11.6002 17.6003 11.6002ZM42.4003 11.6002C42.4003 10.2768 43.4769 9.2002 44.8003 9.2002C46.1237 9.2002 47.2003 10.2768 47.2003 11.6002C47.2003 12.9236 46.1237 14.0002 44.8003 14.0002C43.4769 14.0002 42.4003 12.9236 42.4003 11.6002ZM44.0003 11.6002C44.0003 12.0416 44.3589 12.4002 44.8003 12.4002C45.2417 12.4002 45.6003 12.0416 45.6003 11.6002C45.6003 11.1588 45.2417 10.8002 44.8003 10.8002C44.3589 10.8002 44.0003 11.1588 44.0003 11.6002ZM53.4831 36.0174L44.6831 50.4174C44.5377 50.655 44.2791 50.8002 44.0003 50.8002H7.2003C6.9113 50.8002 6.6441 50.644 6.5027 50.3916C6.3613 50.1392 6.3667 49.8298 6.5175 49.583L15.3175 35.183C15.4627 34.9456 15.7213 34.8002 16.0003 34.8002H25.8545L20.3675 31.2728C20.1385 31.126 20.0003 30.872 20.0003 30.6002V17.8002C20.0003 17.5284 20.1385 17.2744 20.3675 17.1276L31.5675 9.9276C31.8315 9.7572 32.1691 9.7572 32.4331 9.9276L43.6331 17.1276C43.8621 17.2744 44.0003 17.5284 44.0003 17.8002V30.6002C44.0003 30.872 43.8621 31.126 43.6331 31.2728L38.1461 34.8002H52.8003C53.0893 34.8002 53.3565 34.9564 53.4979 35.2088C53.6393 35.4612 53.6339 35.7706 53.4831 36.0174ZM40.4403 41.2002H35.1157L33.1601 44.4002H38.4847L40.4403 41.2002ZM40.3603 44.4002H46.4851L48.4405 41.2002H42.3157L40.3603 44.4002ZM18.7603 44.4002H24.0851L26.0407 41.2002H20.7159L18.7603 44.4002ZM18.8403 41.2002H13.5155L11.5601 44.4002H16.8849L18.8403 41.2002ZM30.1427 37.557L28.8941 39.6002H34.2181L36.1737 36.4002H35.6573L32.4331 38.4728C32.3011 38.558 32.1511 38.6002 32.0003 38.6002C31.8495 38.6002 31.6995 38.558 31.5675 38.4728L30.1427 37.557ZM27.9161 41.2002L25.9605 44.4002H31.2849L33.2405 41.2002H27.9161ZM17.7825 46.0002L15.8269 49.2002H21.1515L23.1071 46.0002H17.7825ZM23.0271 49.2002H28.3515L30.3069 46.0002H24.9827L23.0271 49.2002ZM30.2269 49.2002H35.5515L37.5069 46.0002H32.1825L30.2269 49.2002ZM41.4181 39.6002L43.3737 36.4002H38.0491L36.0937 39.6002H41.4181ZM22.2795 17.8002L32.1479 24.1442L41.7355 17.8096L32.0003 11.551L22.2795 17.8002ZM21.6003 30.1634L31.2003 36.335V25.4368L21.6003 19.2652V30.1634ZM28.3433 36.4002H23.6491L21.6937 39.6002H27.0185L28.7963 36.6914L28.3433 36.4002ZM14.4933 39.6002H19.8181L21.7737 36.4002H16.4487L14.4933 39.6002ZM8.6269 49.2002H13.9515L15.9069 46.0002H10.5823L8.6269 49.2002ZM45.5073 46.0002H39.3825L37.4269 49.2002H43.5519L45.5073 46.0002ZM51.3737 36.4002H45.2491L43.2937 39.6002H49.4183L51.3737 36.4002Z" fill="white"/>
</svg>
