<svg width="60" height="60" viewBox="0 0 60 60" fill="none" xmlns="http://www.w3.org/2000/svg">
<path d="M50.8002 16.3998C50.8002 16.8416 50.442 17.1998 50.0002 17.1998C49.5584 17.1998 49.2002 16.8416 49.2002 16.3998C49.2002 15.958 49.5584 15.5998 50.0002 15.5998C50.442 15.5998 50.8002 15.958 50.8002 16.3998ZM48.1658 8.6342C47.8534 8.3218 47.347 8.3218 47.0346 8.6342L46.4002 9.2686L45.7658 8.6342C45.4534 8.3218 44.947 8.3218 44.6346 8.6342C44.3222 8.9466 44.3222 9.453 44.6346 9.7654L45.269 10.3998L44.6346 11.0342C44.3222 11.3466 44.3222 11.853 44.6346 12.1654C44.7908 12.3216 44.9956 12.3998 45.2002 12.3998C45.4048 12.3998 45.6096 12.3216 45.7658 12.1654L46.4002 11.531L47.0346 12.1654C47.1908 12.3216 47.3956 12.3998 47.6002 12.3998C47.8048 12.3998 48.0096 12.3216 48.1658 12.1654C48.4782 11.853 48.4782 11.3466 48.1658 11.0342L47.5314 10.3998L48.1658 9.7654C48.4784 9.453 48.4784 8.9466 48.1658 8.6342ZM48.4002 18.7998V45.1998C48.4002 45.503 48.2292 45.7794 47.958 45.9154L36.758 51.5154C36.6456 51.5716 36.5228 51.5998 36.4002 51.5998C36.2658 51.5998 36.1322 51.5662 36.012 51.499L29.1808 47.7036L21.5582 51.5154C21.3332 51.6278 21.0676 51.6278 20.8426 51.5154L9.6426 45.9154C9.3712 45.7794 9.2002 45.503 9.2002 45.1998V18.7998C9.2002 18.4966 9.3712 18.2202 9.64239 18.0842L28.8424 8.4842C29.072 8.3702 29.3424 8.3724 29.5706 8.4904L47.9706 18.0904C48.2346 18.2288 48.4002 18.5014 48.4002 18.7998ZM46.8002 43.8806V20.0944L37.2002 24.8944V38.8714L37.2142 38.8788C37.6056 39.0834 37.7572 39.5664 37.5532 39.9584C37.4722 40.1134 37.3454 40.2254 37.2 40.298V49.5056L45.8412 45.1848L45.8118 45.1694C45.4196 44.9648 45.268 44.4818 45.472 44.0904C45.676 43.6974 46.1572 43.545 46.551 43.7506L46.8002 43.8806ZM22.0002 49.5052L28.4002 46.3052V36.8942L28.1268 37.031C27.7314 37.2278 27.2518 37.0686 27.0534 36.6732C26.8558 36.2778 27.0158 35.7974 27.4112 35.5998L28.4002 35.1052V21.694L22.0002 24.8944V38.3058L24.144 37.2342C24.5386 37.0382 25.0206 37.1966 25.2174 37.592C25.415 37.9874 25.255 38.4678 24.8596 38.6654L22.0002 40.0948V49.5052ZM30.0002 46.3294L35.6002 49.4406V39.8416L33.3612 38.6732C32.9698 38.4686 32.8182 37.9856 33.0222 37.5936C33.2268 37.2022 33.7074 37.0498 34.1018 37.2546L35.6002 38.0366V24.8704L30.0002 21.7592V35.115L30.9884 35.6304C31.3806 35.835 31.5322 36.318 31.3282 36.7094C31.1852 36.9836 30.9072 37.1398 30.618 37.1398C30.4938 37.1398 30.3672 37.1108 30.2492 37.0492L30.0002 36.9192V46.3294ZM11.7892 18.7998L21.2002 23.5052L28.8424 19.6842C29.0792 19.567 29.3588 19.5732 29.5884 19.7006L36.4196 23.496L45.8412 18.7848L29.1922 10.0984L11.7892 18.7998ZM11.7892 45.1998L20.4002 49.5052V24.8944L10.8002 20.0944V43.9054L11.0736 43.7686C11.469 43.5718 11.9494 43.731 12.147 44.1264C12.3446 44.5218 12.1846 45.0022 11.7892 45.1998ZM14.6994 43.6506C14.8198 43.6506 14.9416 43.6232 15.0564 43.5662L18.3244 41.9326C18.7198 41.735 18.8798 41.2544 18.6822 40.8592C18.4846 40.4632 18.004 40.3052 17.6088 40.5014L14.3408 42.135C13.9454 42.3326 13.7854 42.8132 13.983 43.2084C14.1228 43.4888 14.4056 43.6506 14.6994 43.6506ZM43.4392 42.1264L40.3268 40.5022C39.9322 40.2976 39.4518 40.4498 39.2472 40.8412C39.0432 41.2334 39.1948 41.7162 39.5862 41.9208L42.6986 43.545C42.8174 43.6068 42.944 43.6356 43.0682 43.6356C43.3564 43.6356 43.6354 43.4794 43.7784 43.206C43.9822 42.8138 43.8306 42.331 43.4392 42.1264ZM29.2002 14.7998C29.6424 14.7998 30.0002 14.442 30.0002 13.9998V12.3998C30.0002 11.9576 29.6424 11.5998 29.2002 11.5998C28.758 11.5998 28.4002 11.9576 28.4002 12.3998V13.9998C28.4002 14.442 28.758 14.7998 29.2002 14.7998ZM29.2002 18.7998C29.6424 18.7998 30.0002 18.442 30.0002 17.9998V16.3998C30.0002 15.9576 29.6424 15.5998 29.2002 15.5998C28.758 15.5998 28.4002 15.9576 28.4002 16.3998V17.9998C28.4002 18.442 28.758 18.7998 29.2002 18.7998Z" fill="white"/>
</svg>
