<svg width="60" height="60" viewBox="0 0 60 60" fill="none" xmlns="http://www.w3.org/2000/svg">
<g clip-path="url(#clip0_210_112)">
<path d="M30 10.0488C18.9542 10.0488 9.99976 19.0021 9.99976 30.0491C9.99976 41.0944 18.953 50.0494 30 50.0494C41.0453 50.0494 50.0003 41.0944 50.0003 30.0491C50.0003 19.0021 41.0453 10.0488 30 10.0488ZM30 15.0488C37.4284 15.0488 43.5807 20.4567 44.7749 27.5486H29.6458C28.53 23.2433 24.6533 20.0487 19.9996 20.0487C19.5624 20.0487 19.1459 20.1236 18.7236 20.1769C21.473 17.0395 25.4996 15.0488 30 15.0488ZM14.9997 30.0491C14.9997 27.2876 17.2387 25.0486 20.0002 25.0486C22.7616 25.0486 25.0007 27.2876 25.0007 30.0491C25.0007 32.8106 22.7616 35.049 20.0002 35.049C17.2387 35.049 14.9997 32.8106 14.9997 30.0491ZM30 45.0489C25.4996 45.0489 21.4747 43.057 18.7253 39.9196C19.1464 39.9751 19.563 40.0489 19.9996 40.0489C24.6533 40.0489 28.53 36.8532 29.6458 32.5485H44.7749C43.5807 39.6387 37.4284 45.0489 30 45.0489Z" fill="white"/>
<path d="M7.49989 30.0491C7.49989 32.1199 5.82104 33.7987 3.75023 33.7987C1.67885 33.7987 0 32.1199 0 30.0491C0 27.9777 1.67885 26.2988 3.75023 26.2988C5.82104 26.2988 7.49989 27.9777 7.49989 30.0491Z" fill="white"/>
<path d="M60.0002 30.0491C60.0002 32.1199 58.3208 33.7987 56.25 33.7987C54.1792 33.7987 52.4998 32.1199 52.4998 30.0491C52.4998 27.9777 54.1792 26.2988 56.25 26.2988C58.3208 26.2988 60.0002 27.9777 60.0002 30.0491Z" fill="white"/>
</g>
<defs>
<clipPath id="clip0_210_112">
<rect width="60" height="60" fill="white"/>
</clipPath>
</defs>
</svg>
