<svg width="48" viewBox="0 0 1001 835" fill="none" xmlns="http://www.w3.org/2000/svg">
<path d="M729.509 610.752L611.19 428.609L740.392 265.076L696.387 201.415L567.161 361.655L323.605 1.31005L606.466 0.530051L698.87 134.211L806.819 0.352051L1000.17 1.19605L790.432 266.674L884.834 403.247L729.509 610.752ZM660.682 430.902L731.849 540.454L835.25 402.31L764.328 299.71L660.682 430.902ZM399.26 41.3571L570.018 293.992L672.519 166.886L585.396 40.8451L399.26 41.3571ZM722.738 168.741L766.491 232.04L917.352 41.0891L826.003 40.6911L722.738 168.741Z" fill="black"/>
<path d="M552.781 834.903L0.173828 0.336914H252.257L684.837 667.852L552.781 834.903ZM75.1079 40.5919L555.664 766.344L635.364 665.526L230.374 40.5919H75.1079Z" fill="black"/>
</svg>
