<svg viewBox="0 0 24 41" fill="none" xmlns="http://www.w3.org/2000/svg">
<path d="M4.13909 22.9449C4.17056 22.6981 4.17485 22.4428 4.23921 22.2046C4.49667 21.2691 4.27353 20.609 3.26657 20.3292C3.09779 20.2819 2.97479 20.0853 2.80601 20.0193C1.9149 19.6663 1.49581 18.946 1.19544 18.088C0.824984 17.0277 0.424479 15.9817 0.327216 14.8482C0.30147 14.5425 0.188466 14.2426 0.105506 13.9428C-0.0117816 13.5137 -0.036075 13.0847 0.0568971 12.6485C0.224247 11.8594 0.390169 11.0688 0.56038 10.2581C0.885067 10.0615 1.21832 9.89508 1.50868 9.67268C1.75184 9.48472 1.92063 9.20061 2.16379 9.01264C2.50564 8.74863 2.87464 8.51476 3.25225 8.30528C3.70567 8.05418 4.0418 7.70839 4.25492 7.23776C4.28067 7.18037 4.31357 7.12586 4.32931 7.06703C4.65256 5.88472 5.50504 5.19167 6.54061 4.67656C7.36877 4.26477 8.1326 3.70376 9.10523 3.61623C9.31978 3.59615 9.61585 3.41393 9.7031 3.2274C9.962 2.66638 10.404 2.37651 10.9361 2.15698C11.0405 2.11393 11.1678 2.00205 11.1892 1.90161C11.3222 1.27315 11.7771 1.18848 12.3063 1.16695C12.6768 1.15261 13.0487 1.0981 13.4148 1.03927C13.7324 0.987614 14.0013 0.836948 14.1472 0.528457C14.3331 0.133877 14.6864 0.0362935 15.0697 0.0119013C15.7592 -0.0325787 16.44 0.0477947 17.0965 0.250107C18.1049 0.561467 19.1362 0.83406 20.0959 1.26308C20.6266 1.49982 21.1516 1.52854 21.728 1.60315C22.0284 3.63775 22.137 5.67664 22.2014 7.72129C22.2257 8.47745 22.004 9.19489 21.944 9.93671C21.9182 10.2581 21.605 10.4389 21.3218 10.5838C21.296 10.4762 21.2774 10.3657 21.2388 10.2624C21.2216 10.2179 21.1659 10.1763 21.1187 10.1619C21.0757 10.149 21.0214 10.1763 20.9728 10.1849C20.9928 10.2753 20.9828 10.4016 21.0385 10.4504C21.1158 10.5164 21.2416 10.525 21.3475 10.5594C21.5463 11.3213 21.5163 12.0344 20.9513 12.6557C20.9227 12.6873 21.0257 12.858 21.0901 12.947C21.1187 12.9857 21.2045 12.9958 21.2631 12.9958C21.6336 12.9943 21.841 13.2124 21.9168 13.5381C21.9725 13.7763 21.9025 14.049 21.9812 14.2742C22.3302 15.2915 21.9511 16.0907 21.2846 16.8196C21.1587 16.9574 21.0242 17.0922 20.9241 17.2472C20.6309 17.6977 20.568 18.177 20.8297 18.6634C20.947 18.8815 21.0857 19.0938 21.2459 19.2818C22.0684 20.2431 22.5647 21.3967 23.1125 22.5131C23.4387 23.1788 23.6317 23.9149 23.8492 24.6294C24.0537 25.2981 24.0265 25.9911 23.9078 26.6712C23.7262 27.7215 23.6489 28.7747 23.6832 29.8393C23.719 30.9786 23.443 32.0791 23.0882 33.1395C22.8694 33.7923 22.6806 34.4394 22.5476 35.1124C22.4875 35.4151 22.3673 35.7093 22.2429 35.9934C22.1227 36.2674 21.9096 36.3119 21.6307 36.1928C21.5434 36.1555 21.359 36.1914 21.3017 36.2617C21.0285 36.5989 20.7925 36.9676 20.5265 37.3105C20.289 37.6176 19.9715 37.8357 19.5782 37.84C18.9846 37.8443 18.5126 38.0667 18.0563 38.4412C17.4798 38.9133 16.8434 39.2906 16.1368 39.5733C15.6919 39.7512 15.3301 40.1343 14.9267 40.417C14.7665 40.5289 14.4933 40.4485 14.2802 40.2434C13.9541 39.9291 13.7567 39.8975 13.5379 40.1443C13.4148 40.2835 13.3247 40.4543 13.1931 40.5834C13.0644 40.7097 12.9142 40.8632 12.7512 40.8991C11.9459 41.0755 11.1506 41.0311 10.3897 40.6824C10.3496 40.6637 10.3267 40.5748 10.3267 40.5174C10.3267 40.4643 10.3554 40.384 10.394 40.3639C10.557 40.2806 10.7229 40.2003 10.8975 40.1472C11.3623 40.0037 11.8329 39.876 12.3378 39.7311C12.0574 39.4255 11.7413 39.5231 11.4653 39.5101C10.5141 39.4628 9.633 39.1916 8.79626 38.7482C8.52163 38.6033 8.25132 38.4441 7.96525 38.3264C7.32303 38.061 6.74516 37.7123 6.27172 37.1929C6.05431 36.9547 5.76966 36.817 5.44355 36.8371C5.34628 36.8428 5.24474 36.9418 5.16464 37.0193C5.1346 37.048 5.1346 37.1556 5.1632 37.1929C5.47073 37.5774 5.79399 37.9505 6.09722 38.3393C6.19019 38.4599 6.13728 38.5875 5.99997 38.6392C5.94991 38.6578 5.87696 38.6363 5.82118 38.6162C5.76396 38.5947 5.70816 38.5603 5.66382 38.5173C5.12602 37.9993 4.58964 37.4798 4.05755 36.9561C3.51259 36.4209 3.12355 35.7911 2.92474 35.0493C2.47132 33.3633 1.94494 31.6989 1.61882 29.9771C1.41714 28.9139 1.44147 27.8593 1.56019 26.8104C1.67175 25.8247 2.15233 25.0212 3.18646 24.7414C3.94025 24.5376 4.12336 24.0038 4.13766 23.328L4.12334 23.3366C4.22919 23.308 4.35219 23.3037 4.43658 23.2434C4.50524 23.1946 4.52815 23.0798 4.57106 22.9937C4.47523 22.9622 4.38225 22.9205 4.28356 22.9033C4.23493 22.8947 4.1777 22.9277 4.12478 22.9421C4.12478 22.9378 4.13909 22.9449 4.13909 22.9449ZM19.8499 7.5606C19.9572 7.69691 20.0602 7.83897 20.1775 7.96667C20.2089 8.00111 20.2876 8.00972 20.3391 8.00111C20.3878 7.9925 20.4521 7.95661 20.4736 7.91357C20.5336 7.79304 20.4922 7.67824 20.3577 7.64524C20.1875 7.60363 20.0101 7.59645 19.8356 7.57493C19.8342 7.57637 19.8499 7.5606 19.8499 7.5606ZM5.26189 24.4601C4.73266 24.8662 4.52955 25.4487 4.40082 26.0715C4.36649 26.235 4.55243 26.4388 4.75268 26.4201C4.99584 26.3972 5.23615 26.3426 5.47787 26.3025C5.78826 26.2508 5.9227 26.4402 6.00852 26.6942C5.99136 26.7415 5.97278 26.7889 5.95562 26.8362C5.96706 26.7831 5.97707 26.73 5.98851 26.677C6.04287 26.697 6.10006 26.7114 6.15013 26.7372C6.64502 27.0012 6.68507 27.0672 6.5778 27.5206C6.52487 27.7445 6.44908 27.964 6.38329 28.1864C6.38329 28.3184 6.38329 28.449 6.38329 28.581C6.36183 28.8278 6.3933 29.0947 6.31034 29.3199C5.95705 30.2755 6.19876 31.1637 6.58209 32.0318C6.7051 32.3087 6.89391 32.5842 7.12133 32.7793C7.49608 33.0993 7.89372 33.4408 8.34142 33.6173C9.14956 33.9358 9.95627 34.2543 10.7358 34.6418C11.0777 34.8111 11.4553 34.857 11.8257 34.7694C12.4293 34.6259 13.0429 34.5011 13.6222 34.2845C14.5562 33.9358 15.4402 33.4752 16.1568 32.7549C17.4999 31.4047 18.4611 29.8307 18.9002 27.9583C19.0718 27.2251 18.9231 26.5708 18.3238 26.1116C17.6844 25.6209 17.0822 25.1087 16.5144 24.5276C15.988 23.9881 15.2886 23.7111 14.4762 24.0612C14.0499 24.2449 13.6122 24.0914 13.2446 23.8331C13.0458 23.6939 12.8913 23.4873 12.7183 23.3123L12.7397 23.3352C11.5912 23.7126 10.68 24.3841 9.95771 25.377C9.3069 26.2738 8.43869 26.9984 7.81936 27.9296C7.78789 27.9769 7.72209 28.0243 7.66916 28.0271C7.55903 28.0329 7.44459 28.0214 7.33875 27.9913C7.2987 27.9798 7.25148 27.8923 7.25434 27.8435C7.26722 27.6612 7.24577 27.4475 7.33445 27.3068C7.76069 26.6267 8.22413 25.9724 8.66181 25.2995C8.84919 25.0125 8.81056 24.7141 8.6146 24.4372L8.62892 24.4515C8.83346 24.1301 9.13527 23.9737 9.50001 23.8962C9.82612 23.8259 9.99345 23.5834 10.0435 23.2692C10.0807 23.0353 10.0807 22.7957 10.0979 22.559C10.1479 22.5274 10.1994 22.4944 10.2495 22.4628C10.2037 22.5016 10.1594 22.5389 10.1136 22.5776C9.25685 22.5575 8.44584 22.3351 7.63627 22.0668C5.92844 21.5 5.98278 21.4914 6.01425 23.3223C5.60517 23.5949 5.39062 23.9996 5.26189 24.4601ZM17.9233 5.96361C17.1037 5.87322 16.2541 5.6953 15.3844 5.71682C14.7636 5.73117 14.1414 5.7728 13.5235 5.84454C13.0801 5.89476 12.6396 6.07699 12.4093 6.45866C12.0646 7.03116 11.5325 7.3468 10.9847 7.61798C9.972 8.12018 9.07946 8.78452 8.1855 9.4632C7.46604 10.0099 6.95255 10.6986 6.57923 11.492C6.42475 11.8192 6.39329 12.2095 6.34037 12.5754C6.29889 12.8666 6.53633 13.2009 6.80237 13.3243C8.01387 13.8868 9.3312 13.9342 10.6185 14.1279C11.4324 13.9212 12.2205 14.1465 13.0201 14.2469C13.5722 14.3172 14.1386 14.3 14.6964 14.2814C15.6018 14.2498 16.3785 13.8681 17.0808 13.32C17.3354 13.1206 17.4927 12.8437 17.507 12.5194C17.5271 12.0847 17.5142 11.647 17.5142 11.2108C17.5099 9.52489 17.5671 7.84614 18.0134 6.20469C18.0263 6.15877 17.9733 6.09418 17.9233 5.96361ZM19.3464 8.64391C19.3293 8.68839 19.2864 8.74434 19.2993 8.77447C19.315 8.80891 19.3808 8.82038 19.4237 8.84334C19.4409 8.79886 19.4823 8.74435 19.4695 8.71422C19.4552 8.67978 19.3894 8.66687 19.3464 8.64391Z" fill="white"/>
<path d="M18.9474 38.8674C18.9903 38.9004 19.0332 38.9348 19.0761 38.9678C19.0046 39.0438 18.9359 39.1242 18.8573 39.1931C18.8487 39.2002 18.7772 39.1314 18.7342 39.0984C18.8043 39.0209 18.8758 38.9448 18.9474 38.8674Z" fill="white"/>
<path d="M8.56884 2.71229C8.48874 2.75964 8.40718 2.80842 8.32709 2.85577C8.31135 2.80842 8.27133 2.73238 8.28563 2.71947C8.35715 2.6592 8.44296 2.61759 8.52306 2.5688C8.53879 2.61759 8.55311 2.66494 8.56884 2.71229Z" fill="white"/>
<path d="M4.13765 23.3237C4.13908 23.1975 4.13909 23.0712 4.13909 22.9449L4.12476 22.9378C4.12476 23.0698 4.12476 23.2003 4.12333 23.3323L4.13765 23.3237Z" fill="white"/>
<path d="M5.2433 24.4415C5.64666 24.1631 5.90269 23.7886 5.9928 23.3022C6.44049 23.6294 6.52488 23.8475 6.31319 24.1918C6.21736 24.3482 6.09147 24.4903 5.96846 24.628C5.7582 24.8619 5.5451 24.8045 5.2433 24.4415Z" fill="white"/>
<path d="M6.37181 28.5925C6.37181 28.4533 6.37181 28.3141 6.37181 28.1735C6.37038 28.3141 6.37038 28.4533 6.37181 28.5925Z" fill="white"/>
<path d="M6.75515 25.5807L6.74086 25.5664C6.74229 25.5664 6.75515 25.5807 6.75515 25.5807Z" fill="white"/>
<path d="M8.61602 24.4357L8.63034 24.4501C8.62891 24.4501 8.61602 24.4357 8.61602 24.4357Z" fill="white"/>
<path d="M7.1385 22.9378L7.11703 22.9579C7.11846 22.9593 7.1385 22.9378 7.1385 22.9378Z" fill="white"/>
</svg>
