<svg  viewBox="0 0 167 77" fill="none" xmlns="http://www.w3.org/2000/svg">
<path d="M119.758 74.0827C119.697 73.6629 119.487 73.5779 118.83 73.7041C118.184 73.8303 117.516 73.9436 117.461 74.3428C117.406 74.7291 116.737 74.6905 116.196 74.7368L116.218 74.7523C116.158 74.7111 116.102 74.6673 116.042 74.6286C115.975 74.59 115.92 74.5359 115.837 74.5179C115.567 74.4561 115.285 74.4097 115.009 74.3557C114.915 74.4896 114.827 74.6235 114.733 74.7574L114.755 74.7394C114.275 74.8913 113.822 75.0742 113.297 75.1875C112.756 75.306 112.126 75.0871 112.17 74.8012C112.193 74.6673 112.259 74.5643 111.961 74.554C111.613 74.5411 111.243 74.5462 110.906 74.59C107.14 75.0639 103.28 75.2931 99.4199 75.5275C98.0228 75.6124 96.6477 75.7592 95.3611 75.87C95.1567 76.0477 95.0629 76.2486 94.8309 76.2975C94.4168 76.3851 93.9143 76.3928 93.4504 76.4108C91.4569 76.4906 89.4745 76.5705 87.5473 76.8847C86.4207 77.0675 85.2168 77.0443 84.1289 76.7327L84.1621 76.7482C83.6982 76.7894 83.2178 76.895 82.776 76.8641C80.6776 76.7147 78.5406 76.7224 76.4698 76.4314C74.896 76.2099 73.2338 76.1198 71.6158 75.9627C68.0209 75.6124 64.4259 75.2725 60.842 74.8991C55.0548 74.2964 49.3725 73.5212 43.8669 72.4859C42.8785 72.3005 41.9121 72.0816 41.001 71.8241C37.0582 70.7038 33.1152 69.5809 29.4596 68.2572C28.2447 67.8168 26.9968 67.3918 25.8206 66.9309C24.9205 66.578 23.9816 66.2201 23.2748 65.79C21.6789 64.8191 19.7903 63.9872 17.9128 63.1425C17.5704 62.9905 17.1398 62.8669 16.8802 62.6892C15.08 61.453 12.6557 60.4461 10.8499 59.2253C8.91718 57.9145 6.64209 56.6809 5.63705 55.1073C3.33431 52.9517 2.39558 50.6159 1.53413 48.2723C1.11444 47.1288 0.832786 45.9776 0.678165 44.8161C0.506978 43.5491 0.109426 42.2923 0.0321161 41.0175C-0.139071 38.2464 0.391002 35.5062 1.21933 32.7634C1.90407 30.5022 3.25152 28.3389 4.991 26.2194C7.21091 23.5178 10.2811 21.0403 13.9975 18.7276C17.5704 16.5051 21.6845 14.5272 26.2458 12.7476C28.3332 11.9338 30.4813 11.1509 32.6018 10.3551C32.8779 10.2521 33.1539 10.1413 33.4631 10.0615C35.9757 9.41765 38.1239 8.54975 40.3052 7.6973C40.874 7.47582 41.4483 7.31872 42.2379 7.37795C42.8509 7.42431 43.4307 7.31357 43.9001 7.14359C44.5462 6.90923 45.1205 6.62852 45.7224 6.36583L45.6893 6.37613C46.3409 6.1804 46.3409 6.1804 45.6893 6.01815L45.728 6.02845C46.4569 5.77607 47.1748 5.52111 47.9147 5.27645C48.7541 4.99831 49.6542 4.77682 50.6924 4.70986L50.6703 4.69184C50.6924 4.80773 50.7089 4.9262 50.7309 5.04209L50.6979 5.02406C51.1894 4.91332 51.6808 4.80258 52.1723 4.69184L52.095 4.71759C52.592 4.59912 53.0945 4.48066 53.5915 4.36219L53.5307 4.39052C53.5307 4.2669 53.5307 4.14071 53.5307 4.01709L53.5749 4.03512C54.0443 3.9218 54.5082 3.80591 54.9776 3.69259L54.9444 3.70805C55.2592 3.06163 56.3305 2.7191 57.4183 2.38946C57.5619 2.34567 57.8766 2.39203 58.0754 2.43324C58.2853 2.47444 58.4786 2.54913 58.6332 2.62639C59.2351 2.92771 59.8702 2.8865 60.5163 2.67017C60.798 2.57488 61.052 2.45899 61.3225 2.35597C62.1398 2.33022 62.9626 2.31992 63.7743 2.27357C64.1112 2.25554 64.4536 2.18342 64.7573 2.10616C64.9285 2.06496 65.0334 1.96195 65.1659 1.88726C64.9727 1.84348 64.7683 1.75591 64.5806 1.76106C63.3712 1.80227 62.3716 2.10101 61.35 2.36885C61.0684 1.95679 61.1348 1.76106 61.5821 1.67093C61.7974 1.62714 62.0072 1.57049 62.2281 1.53958C66.3035 0.988453 70.3678 0.437322 74.5868 0.154031C76.8232 0.00208397 79.0541 -0.0623011 81.2795 0.076769C84.5487 0.280223 87.8067 0.537761 91.0648 0.784996C91.7385 0.836504 92.0533 1.05284 91.9594 1.37991L91.998 1.36188C91.0151 1.5267 90.0377 1.69153 89.0603 1.86408C88.972 1.87953 88.8836 1.94391 88.8615 1.99285C88.7952 2.11646 88.9112 2.21948 89.1763 2.23236C91.1422 2.3328 93.0804 2.46414 94.8971 2.87878C95.4935 3.01527 96.2612 2.99209 96.9515 3.04102C97.2166 3.16207 97.3435 3.16979 97.2551 3.07965C97.2275 3.0539 97.0343 3.0642 96.9183 3.05905C97.5423 2.81181 98.2988 2.73713 99.083 2.7088C99.7346 2.93543 100.469 3.04618 101.286 3.02042C101.281 3.13889 101.275 3.25736 101.27 3.37582C100.684 3.52004 100.684 3.52004 101.27 3.70032C102.313 4.06345 103.512 4.25402 104.771 4.37507C106.168 4.75622 107.543 5.16571 109.15 5.33568C109.448 5.36659 109.586 5.30735 109.514 5.16055C108.079 4.73304 106.582 4.33386 104.732 4.39567C104.401 4.15616 103.589 3.98361 104.329 3.60503C104.528 3.50459 104.241 3.28311 103.915 3.25478C103.031 3.17752 102.137 3.11314 101.248 3.04618C100.646 2.74486 99.834 2.75773 99.0498 2.7294C98.3264 2.42036 97.3767 2.32507 96.5263 2.13449C96.1011 2.04178 95.6759 1.94134 95.3004 1.81257C95.0077 1.71213 94.8807 1.54989 94.9745 1.37218C95.0408 1.24084 95.5212 1.12495 95.825 1.161C96.1673 1.20478 96.5372 1.22281 96.841 1.2975C98.0061 1.59109 99.2543 1.75076 100.552 1.84347C101.137 1.88468 101.745 1.92331 102.275 2.03405C105.737 2.75516 109.426 3.19812 112.833 3.99906C116.24 4.8 119.316 5.83015 122.414 6.85C123.574 7.23115 124.678 7.65351 125.75 8.08875C127.356 8.74032 128.941 9.40734 130.488 10.095C131.603 10.5894 132.636 11.1277 133.707 11.6402C138.097 13.7391 142.311 15.9102 146.11 18.2486C146.535 18.5113 147.054 18.7405 147.529 18.9877L147.496 18.9723C149.478 20.4737 151.146 22.0601 153.278 23.523C154.542 24.3909 155.602 25.3154 156.541 26.2709C157.033 26.7705 157.579 27.2598 158.093 27.7569C158.347 28.0041 158.617 28.2513 158.822 28.5115C159.462 29.3407 160.059 30.1777 160.705 31.007C163.195 34.1773 164.918 37.4377 165.94 40.778C166.039 41.105 166.128 41.4347 166.315 41.7514C166.437 41.9575 166.735 42.1403 167 42.3721C166.525 43.1473 166.243 43.9585 166.564 44.7955C166.669 45.0608 166.591 45.3467 166.542 45.6197C166.288 47.1005 165.912 48.5788 165.934 50.0673C165.266 50.858 165.603 51.7001 165.343 52.5088C165.007 53.5518 164.382 54.5639 163.388 55.5065C162.555 56.2946 161.831 57.111 160.777 57.8475C160.191 58.2596 159.7 58.7051 159.252 59.1532C158.507 59.9001 157.861 60.6701 156.436 61.2213C156.088 61.3578 155.796 61.5586 155.624 61.7569C155.072 62.3879 154.183 62.8849 153.112 63.3356C152.692 63.5133 152.311 63.7657 152.157 64.0155C151.853 64.5203 151.218 64.8886 150.439 65.2414C149.854 65.5067 149.379 65.8286 148.854 66.1273C148.335 66.4261 147.827 66.7326 147.297 67.0287C146.739 67.3378 146.093 67.5387 145.143 67.4665C144.657 67.4305 144.243 67.5695 143.962 67.7679L144 67.7524C141.852 68.1052 140.091 68.7774 138.163 69.3157C136.744 69.7123 135.341 70.114 133.867 70.4668C130.603 71.2472 127.406 72.0868 123.96 72.6894C123.419 72.7847 122.933 72.9572 122.469 73.1246C122.364 73.1633 122.387 73.3307 122.458 73.4156C122.635 73.614 122.447 73.7324 122.121 73.8277C121.392 74.0415 120.586 74.1058 119.736 74.0724L119.758 74.0827ZM121.878 7.6973C121.635 7.58398 121.392 7.46809 121.144 7.35477C120.531 7.07148 119.913 6.78819 119.024 6.69805C118.681 6.46627 118.146 6.41734 117.61 6.36583C117.367 6.36583 117.129 6.3684 116.886 6.3684C116.583 6.45082 116.246 6.54095 116.417 6.73411C116.494 6.82167 116.732 6.8912 116.936 6.93499C117.14 6.98134 117.389 6.98649 117.621 7.0071C117.864 7.12041 118.107 7.2363 118.35 7.34962C118.825 7.45779 119.3 7.56595 119.774 7.67412C120.47 8.16601 121.326 8.55747 122.63 8.67079C123.088 9.20647 123.971 9.58762 124.949 9.88636C126.942 10.4993 128.56 11.2899 130.173 12.0909C131.139 12.5699 132.21 13.0051 133.204 13.4739C135.524 14.5658 137.876 15.6423 139.986 16.8321C141.482 17.6769 143.1 18.4752 144.663 19.2968C144.911 19.4101 145.154 19.5234 145.403 19.6367C145.569 20.1647 146.137 20.6205 146.651 21.0841C146.977 21.3802 147.54 21.5451 148.23 21.6172L148.186 21.6378C147.915 20.7699 146.85 20.1466 145.364 19.6522C145.121 19.5363 144.873 19.423 144.63 19.3071C144.365 18.6993 143.702 18.1868 142.923 17.6975C141.736 16.948 140.604 16.178 139.389 15.4389C138.318 14.7847 137.258 14.1203 136.043 13.5305C134.248 12.66 132.321 11.8514 130.449 11.017C129.764 10.7105 129.035 10.4401 128.124 10.2855C127.307 10.1465 126.782 9.87091 126.373 9.51551C126.158 9.33008 125.761 9.18844 125.446 9.02876C125.197 8.95408 124.949 8.93347 124.7 9.02619C123.994 8.91545 123.281 8.80728 122.574 8.69654C122.337 8.47248 122.099 8.24842 121.862 8.02437C121.873 7.9162 121.873 7.80546 121.878 7.6973ZM64.2051 3.04102C62.9129 3.13631 61.7311 3.35779 60.6653 3.71062C60.2014 3.73895 59.7156 3.73895 59.2738 3.80076C58.5946 3.89605 57.9375 4.02224 57.8878 4.43945C57.8767 4.53731 57.7166 4.63775 57.5896 4.72532C57.4018 4.85666 57.1256 4.98028 57.6447 5.12707C58.6387 5.06011 59.6935 5.01376 60.7316 4.9159C62.6147 4.74077 64.3376 4.4137 65.5912 3.68744C65.5691 3.70804 65.7845 3.61533 65.6243 3.70289C64.912 3.70804 64.1995 3.71062 63.4817 3.71577C63.7136 3.48399 63.94 3.2522 64.1719 3.023C64.2713 2.99467 64.3708 2.96634 64.4757 2.93543C64.3873 2.97149 64.299 3.00754 64.2051 3.04102ZM68.5235 4.34931C67.8387 4.19222 67.1594 4.21539 66.4746 4.35704C66.1985 4.4137 66.0936 4.49353 66.2372 4.58367C66.2924 4.61715 66.4637 4.64291 66.552 4.63003C67.2202 4.53474 67.8828 4.42915 68.551 4.32871C69.9978 4.75107 71.6379 4.89014 73.278 4.99058C74.9346 5.09359 76.5637 5.17601 78.005 5.63442C78.3528 5.74516 78.9161 5.69881 79.3689 5.75032C79.8217 5.8044 80.2635 5.88423 80.7052 5.96407C81.3182 6.07481 81.125 6.30402 81.0256 6.56928C83.5768 6.80107 86.1226 7.0483 88.6793 7.26463C91.4901 7.50414 94.207 7.9059 96.8079 8.43385C100.502 9.18329 104.125 10.0074 107.753 10.8264C111.386 11.6479 114.91 12.5596 118.201 13.6541C122.453 15.0732 126.407 16.657 130.112 18.3774C131.117 18.8435 132.039 19.3534 132.967 19.8556C133.817 20.3166 134.596 20.8059 135.463 21.2592C139.036 23.1186 142.15 25.1351 144.967 27.2521C146.905 28.7098 148.832 30.17 150.329 31.741C152.609 34.1283 153.995 36.6419 155.111 39.1915C155.276 39.5675 155.282 39.959 155.321 40.3453C155.326 40.42 155.122 40.4998 154.802 40.7316C154.426 39.3332 153.266 38.1846 152.427 36.9844C152.245 36.7217 152.09 36.4539 151.941 36.1861C150.632 33.809 148.473 31.6045 145.685 29.5313C144.111 28.3595 142.537 27.1877 140.908 26.0339C139.864 25.2948 138.76 24.5763 137.611 23.8732C136.612 23.2577 135.485 22.6834 134.469 22.073C131.769 20.4505 128.682 18.9955 125.457 17.6099C122.138 16.1857 118.488 14.9521 114.705 13.8035C114.208 13.6516 113.7 13.5073 113.187 13.3734C110.398 12.6394 107.62 11.9003 104.815 11.1869C103.258 10.7903 101.667 10.4117 99.9058 10.2392C98.967 10.1465 98.078 10.0023 97.3436 9.69579C96.8797 9.50263 96.3274 9.40992 95.7255 9.38932C93.4559 9.31205 91.2857 9.06997 89.1928 8.64761C88.6517 8.53944 88.0608 8.48021 87.4865 8.42355C85.1727 8.18919 82.8589 7.96256 80.4954 7.8544C77.0772 7.69987 73.6755 7.48097 70.2297 7.41916C65.6353 7.33417 61.2839 7.77713 57.0097 8.49051C56.1151 8.63988 55.2315 8.79955 54.3259 8.92832C51.0291 9.39189 47.9478 10.1207 44.7174 10.659C44.1707 10.7491 43.6847 10.9268 43.1711 11.0659C42.5582 11.2333 41.9674 11.4239 41.3268 11.5655C39.0627 12.0703 37.0968 12.7888 35.0536 13.4455C34.286 13.6928 33.5681 14.0044 32.9938 14.3443C31.7237 15.0989 30.0947 15.6706 28.4049 16.1574C24.2467 17.3575 21.2647 19.0315 18.8515 20.9605C17.598 21.9623 16.5488 23.0208 15.2566 24.0097C11.6893 26.7447 9.53569 29.6961 8.66871 32.8638C8.39813 33.8502 8.19378 34.8417 7.81828 35.8204C7.45934 36.7552 7.40962 37.6901 7.52559 38.6301C7.6526 39.6783 7.90119 40.7239 8.03372 41.772C8.48653 45.4419 10.0658 49.0011 12.7661 52.4521C13.622 53.5441 14.6217 54.6051 16.063 55.5632C17.6257 56.6062 19.0504 57.6878 20.1714 58.8545C20.5027 59.197 21.0604 59.5035 21.6126 59.7868C22.4078 60.1963 23.2969 60.5645 24.1363 60.956C24.5504 61.1517 25.0419 61.3294 25.3345 61.5612C26.8587 62.7897 29.3106 63.5932 31.5029 64.5126C33.7118 65.4371 36.2298 66.1711 38.7645 66.8896C42.1219 67.84 45.623 68.6435 49.3063 69.2796C50.3058 69.4521 51.3053 69.6273 52.2938 69.8101C55.6015 70.4205 58.9093 71.0154 62.3938 71.3837C65.05 71.6644 67.6564 72.0455 70.285 72.3778C70.7433 72.437 71.2071 72.4885 71.4556 72.7048C71.7096 72.9315 72.157 73.0268 72.6319 72.9675C74.0677 72.7821 75.415 72.898 76.8231 73.0757C78.419 73.2766 80.0647 73.3899 81.7435 73.395C83.4001 73.3976 85.0788 73.3719 86.7134 73.4723C88.7345 73.5959 90.7335 73.5393 92.7436 73.4903C93.5719 73.4697 94.4057 73.4285 95.2285 73.4414C96.6422 73.4646 98.0558 73.5238 99.4695 73.5676C100.762 73.2714 102.153 73.153 103.545 73.019C107.836 72.607 112.143 72.231 116.262 71.4893C117.809 71.2111 119.388 71.0154 120.78 70.5544C121.63 70.2711 122.696 70.1295 123.679 69.9389C124.336 69.8127 125.037 69.7329 125.678 69.5912C128.566 68.95 131.448 68.301 134.32 67.6442C138.533 66.6836 142.101 65.3599 145.149 63.6833C149.776 61.1363 153.537 58.3343 156.999 55.4318C157.922 54.6592 158.711 53.848 159.103 52.9749C159.667 51.731 160.202 50.4871 160.705 49.2381C160.815 48.9702 160.832 48.6818 160.754 48.4139C160.627 47.9632 160.81 47.5409 160.992 47.1031C161.467 45.9596 161.771 44.8084 161.185 43.6469C161.053 43.3817 161.064 43.0984 161.058 42.8202C161.036 41.651 160.611 40.5101 160.075 39.3744C159.843 38.8902 159.678 38.3957 159.407 37.9167C158.695 36.6342 158.165 35.3156 157.159 34.082C155.851 32.4853 154.741 30.855 153.36 29.2686C151.383 27.0023 148.777 24.9059 146.054 22.8379C143.2 20.6669 139.687 18.7147 136.253 16.7369C133.254 15.0139 129.957 13.4301 126.445 11.9415C123.717 10.7877 120.774 9.7576 117.61 8.87939C114.451 8.00377 111.083 7.31614 107.703 6.64655C104.981 6.10572 102.17 5.65245 99.3757 5.19661C97.5865 4.90302 95.7862 4.59655 93.9363 4.43172C89.8609 4.07117 85.747 3.78788 81.5888 3.76986C77.7951 3.7544 74.0069 3.78273 70.3016 4.25402C69.7217 4.32613 69.1143 4.31841 68.5235 4.34931ZM162.765 43.1705C162.776 43.3379 162.858 43.3585 162.963 43.2271C162.991 43.1885 162.925 43.1344 162.903 43.0881C162.853 43.1164 162.809 43.1421 162.765 43.1705ZM162.781 41.7669L162.908 41.6587L162.726 41.6381L162.781 41.7669Z" fill="#2F80A8"/>
<path d="M91.9594 1.37991C92.2466 1.45717 92.5393 1.53186 92.8209 1.61427C93.0528 1.6838 93.1081 1.77652 92.9479 1.85635C92.8927 1.88211 92.7436 1.88468 92.6552 1.87438C92.5558 1.86151 92.4288 1.8306 92.3902 1.7894C92.2466 1.65033 92.1305 1.5061 92.0035 1.36188L91.9594 1.37991Z" fill="#2F80A8"/>
<path d="M116.196 74.7368C115.716 74.9119 115.235 74.9531 114.755 74.7394L114.733 74.7574C115.23 74.7548 115.721 74.7548 116.218 74.7523L116.196 74.7368Z" fill="#2F80A8"/>
<path d="M129.736 72.0919C130.206 71.9837 130.675 71.8756 131.145 71.77L131.111 71.7545C130.642 71.8627 130.178 71.9709 129.709 72.079L129.736 72.0919Z" fill="#2F80A8"/>
<path d="M133.961 71.0927C133.873 71.1236 133.779 71.1545 133.69 71.1854C133.79 71.1596 133.889 71.1339 133.988 71.1081L133.961 71.0927Z" fill="#2F80A8"/>
<path d="M50.6924 4.70471C51.0568 4.49353 51.5592 4.40597 52.1115 4.37249L52.0895 4.35704C52.0895 4.47808 52.0895 4.59655 52.084 4.71759L52.1612 4.69184C51.6587 4.69184 51.1617 4.68926 50.6647 4.68926L50.6924 4.70471Z" fill="#2F80A8"/>
<path d="M52.117 4.37249C52.6029 4.25918 53.089 4.14586 53.5749 4.03254L53.5307 4.01452C53.5307 4.13813 53.5307 4.26433 53.5307 4.38795L53.5915 4.35962C53.0945 4.35962 52.5975 4.35704 52.095 4.35704L52.117 4.37249Z" fill="#2F80A8"/>
<path d="M129.703 72.079L129.731 72.0919C129.736 72.0919 129.703 72.079 129.703 72.079Z" fill="#2F80A8"/>
<path d="M133.988 71.1081L133.955 71.0927C133.961 71.0927 133.988 71.1081 133.988 71.1081Z" fill="#2F80A8"/>
<path d="M138.969 69.7792L138.942 69.7663C138.947 69.7663 138.969 69.7792 138.969 69.7792Z" fill="#2F80A8"/>
<path d="M143.238 68.4529C143.487 68.3447 143.741 68.2366 143.989 68.1284L143.95 68.113C143.702 68.2211 143.454 68.3267 143.205 68.4349C143.205 68.4374 143.238 68.4529 143.238 68.4529Z" fill="#2F80A8"/>
<path d="M143.95 67.7653C143.95 67.8812 143.95 67.9971 143.95 68.1155L143.989 68.131C143.989 68.0048 143.989 67.8786 143.989 67.7524C143.989 67.7498 143.95 67.7653 143.95 67.7653Z" fill="#2F80A8"/>
<path d="M45.7279 6.36326C45.7279 6.24994 45.7335 6.13662 45.7335 6.02331L45.6948 6.013C45.6948 6.13147 45.6948 6.25251 45.6948 6.37098L45.7279 6.36326Z" fill="#2F80A8"/>
<path d="M124.678 9.00816C124.943 9.00816 125.208 9.01074 125.479 9.01074C125.208 9.00816 124.943 9.00816 124.678 9.00816Z" fill="#2F80A8"/>
<path d="M60.6544 3.6926C61.6263 3.6926 62.5926 3.69259 63.5645 3.69517C62.6975 3.86772 61.836 4.05057 60.9525 4.20767C60.7868 4.23857 60.4225 4.19222 60.3562 4.13298C60.2734 4.06087 60.4059 3.93468 60.4666 3.83424C60.4997 3.78273 60.5881 3.73895 60.6544 3.6926Z" fill="#2F80A8"/>
<path d="M101.215 3.71577C101.215 3.59473 101.215 3.47369 101.209 3.35522C101.756 3.5458 101.756 3.5458 101.215 3.71577Z" fill="#2F80A8"/>
<path d="M121.194 7.34447C121.194 7.46294 121.194 7.58141 121.194 7.6973C120.702 7.6973 120.211 7.6973 119.725 7.6973C119.725 7.57883 119.725 7.46036 119.725 7.34447C120.211 7.34447 120.702 7.34447 121.194 7.34447Z" fill="#2F80A8"/>
<path d="M121.138 7.67927C121.392 7.67927 121.652 7.6767 121.906 7.6767C121.906 7.79516 121.901 7.91621 121.901 8.03467C121.647 7.91621 121.392 7.79774 121.138 7.67927Z" fill="#2F80A8"/>
<path d="M118.306 7.36507C118.063 7.25433 117.825 7.14102 117.582 7.03028C117.582 6.91438 117.582 6.79592 117.582 6.68003C118.068 6.68003 118.56 6.68003 119.046 6.68003C119.289 6.90924 119.526 7.13587 119.769 7.36507C119.283 7.36507 118.797 7.36507 118.306 7.36507Z" fill="#2F80A8"/>
<path d="M116.864 6.35038C117.118 6.35038 117.372 6.3478 117.626 6.3478C117.626 6.46627 117.621 6.58474 117.621 6.70578C117.372 6.58731 117.118 6.46884 116.864 6.35038Z" fill="#2F80A8"/>
</svg>
