<svg width="133" height="12" viewBox="0 0 133 12" fill="none" xmlns="http://www.w3.org/2000/svg">
<path d="M40.8194 4.71852C41.2303 4.90995 41.2855 4.95781 41.3429 4.95781C42.0831 4.96433 42.8234 4.97087 43.5636 4.96434C44.611 4.95781 45.6649 4.8882 46.6813 5.23191C48.2788 5.26237 49.8763 5.56911 51.4761 5.26455C52.0947 5.14708 52.6846 5.10139 53.2569 5.47338C53.6303 5.71486 54.0833 5.71486 54.5164 5.63436C55.3648 5.47991 56.2111 5.31894 57.0529 5.13403C57.676 4.99698 58.2704 4.99044 58.8537 5.28412C59.9585 5.84103 61.1119 5.78013 62.2764 5.51038C62.6299 5.42989 62.9679 5.22974 63.3458 5.36461C63.4828 5.41465 63.5358 5.54301 63.4695 5.67136C63.4187 5.77143 63.3326 5.89326 63.2376 5.92371C63.0056 5.9955 62.7602 6.05424 62.5172 6.05859C61.5295 6.07599 60.5441 6.06511 59.5564 6.07598C59.0637 6.08033 58.5687 6.09556 58.0782 6.12601C57.7843 6.14342 57.475 6.08904 57.1524 6.30224C57.6208 6.50238 58.0804 6.64812 58.4826 6.88742C58.9598 7.1724 59.4172 7.22026 59.8657 6.9157C60.3032 6.61766 60.765 6.58722 61.2732 6.60027C61.8853 6.61767 62.4885 6.48932 63.0409 6.92659C63.2508 7.09192 63.6241 7.10279 63.9224 7.10714C65.341 7.13324 66.7595 7.14195 68.1803 7.1376C68.8608 7.13542 69.5414 7.10062 70.1579 6.75907C70.507 6.56763 70.8627 6.59593 71.2295 6.71557C71.5212 6.81129 71.8194 6.90048 72.1199 6.95269C72.2945 6.98315 72.5265 7.00489 72.6569 6.91788C73.0657 6.64595 73.4634 6.73948 73.8943 6.8265C74.4378 6.93527 74.9923 6.98315 75.5447 7.03971C75.79 7.06364 76.0397 7.02229 76.285 7.0484C76.9478 7.11801 77.3875 6.41319 78.0172 6.52414C78.5497 6.61768 78.9895 7.06362 79.575 7.04622C79.944 7.03534 80.313 7.0049 80.6775 6.94833C81.2918 6.85479 81.9106 6.77213 82.5204 6.89613C83.3247 7.05711 84.109 7.01577 84.9044 6.86349C86.0092 6.65247 87.1228 6.70251 88.2187 6.92223C89.0761 7.09409 89.9312 7.13542 90.7974 7.08756C92.2778 7.0049 93.7515 7.13107 95.2275 7.22026C95.2695 7.22244 95.3071 7.28987 95.3468 7.32686C95.2673 7.40517 95.1944 7.53788 95.106 7.54876C94.684 7.60532 94.2576 7.62924 93.7162 7.6771C94.1404 8.06215 94.6132 7.87724 94.9623 8.06433C95.0419 8.10784 95.0795 8.23837 95.1126 8.33626C95.1215 8.36454 95.0552 8.44067 95.0088 8.45807C94.8961 8.4994 94.7746 8.52987 94.6553 8.54727C93.4555 8.73218 92.3264 8.5103 91.2547 7.96209C91.0382 7.85115 90.8173 7.71407 90.5853 7.67057C90.0307 7.56832 89.529 7.54439 89.1291 8.13176C88.727 8.72347 87.9338 8.83444 87.3218 8.50377C87.1096 8.38848 86.9483 8.18832 86.745 8.0578C86.5439 7.92727 86.3252 7.75759 86.0998 7.73584C85.364 7.66405 84.6239 7.64229 83.8837 7.62053C83.3357 7.60313 82.7811 7.5792 82.2508 7.75541C82.2751 8.02952 82.3612 8.28622 82.0872 8.4385C81.8618 8.56468 81.6144 8.55379 81.3714 8.48853C81.0554 8.40151 80.8455 8.18181 80.6665 7.92946C80.5119 7.71409 80.2843 7.6075 80.0324 7.61185C78.8591 7.62925 77.6858 7.62924 76.5169 7.70756C76.1037 7.73584 75.664 7.90553 75.3105 8.12743C74.6476 8.54294 73.9649 8.68434 73.1937 8.58862C72.6391 8.519 72.089 8.61471 71.5433 8.73653C71.1853 8.81702 70.8097 8.83878 70.4429 8.86923C70.1269 8.89534 69.8065 8.83877 69.5922 8.59512C69.1923 8.13828 68.6907 8.02083 68.1052 8.02083C67.4887 8.02083 66.8745 7.94032 66.258 7.91639C65.5642 7.88811 64.9279 7.9882 64.3843 8.51031C64.0219 8.85838 63.823 8.79093 63.4562 8.41893C63.3723 8.33191 63.3193 8.16875 63.2243 8.147C62.4377 7.96426 61.6157 7.80328 60.9197 8.33844C60.2966 8.81921 59.6116 8.98889 58.856 9.01499C58.6085 9.0237 58.361 9.03891 58.1158 9.03021C56.5735 8.978 55.0312 8.95409 53.4955 9.15858C53.2547 9.19121 53.0028 9.16727 52.7576 9.14769C51.0297 9.00194 49.3018 9.11288 47.5761 9.14552C45.7245 9.1825 43.8752 9.23037 42.0258 9.29781C39.4362 9.39136 36.8465 9.511 34.2547 9.61542C32.7743 9.67415 31.2961 9.72201 29.8157 9.77422C29.5063 9.7851 29.197 9.77423 28.8899 9.81121C26.4991 10.0984 24.0907 10.1375 21.6911 10.3355C21.0769 10.3855 20.4626 10.466 19.855 10.5726C19.2385 10.6814 18.6707 10.6139 18.1183 10.2811C18.3989 10.1745 18.6663 10.0722 18.969 9.95477C18.8386 9.88951 18.748 9.80033 18.6574 9.8025C17.6697 9.80468 16.6843 9.83948 15.712 10.0461C15.2922 10.1353 14.8548 10.1745 14.4261 10.1897C12.1414 10.2637 9.90536 10.7597 7.63172 10.9402C7.25168 10.9707 6.90031 11.0795 6.644 11.3732C6.3435 11.7191 5.96569 11.8822 5.51053 11.8996C4.58693 11.9323 3.66117 11.9758 2.73757 11.9997C2.41056 12.0084 2.10119 11.8365 2.15864 11.7191C2.25586 11.5211 2.45697 11.5124 2.63594 11.5037C3.4358 11.4732 4.23563 11.4558 5.03549 11.3928C4.16493 11.2601 3.28776 11.2709 2.41056 11.2405C1.92225 11.2231 1.43833 11.1273 0.952229 11.0577C0.910247 11.0512 0.848388 10.9707 0.850598 10.9294C0.855017 10.8228 0.861611 10.6901 0.925688 10.6183C1.00081 10.5334 1.13343 10.4921 1.24612 10.4464C1.86921 10.2006 1.75655 9.54797 1.37871 9.28257C1.07821 9.07155 0.748988 8.89968 0.43965 8.70172C-0.0133101 8.41239 -0.0840419 8.18832 0.0816751 7.614C0.114819 7.4987 0.176665 7.38995 0.225275 7.279C0.326915 7.04406 0.335736 6.80692 0.207581 6.58285C-0.0177939 6.19127 -0.0156059 5.77142 0.019747 5.34286C0.0506809 4.95564 0.18776 4.6402 0.550128 4.44441C0.963315 4.22252 0.932291 3.9136 0.78867 3.51985C0.669353 3.19136 0.901422 2.91942 1.24169 2.88244C1.48696 2.85633 1.73223 2.81502 1.97749 2.8259C4.38592 2.93032 6.79868 2.86722 9.19384 2.67578C11.5912 2.48434 14.0063 2.49958 16.3838 2.08843C17.4753 1.89916 18.6021 1.96876 19.6804 1.64027C19.9632 1.55543 20.2903 1.61201 20.5975 1.60331C21.5829 1.57938 22.5706 1.59023 23.5296 1.27914C23.8102 1.18778 24.1394 1.2052 24.4421 1.22043C25.1867 1.25741 25.9203 1.20083 26.6561 1.09206C27.3874 0.983289 28.1276 0.935428 28.8634 0.846235C29.5373 0.763569 30.2289 0.733118 30.8741 0.552557C32.6329 0.0609094 34.4094 0.0891815 36.1947 0.271918C36.6874 0.321953 37.1647 0.417675 37.6619 0.302377C37.8961 0.247991 38.1546 0.241482 38.3954 0.265412C39.9443 0.413341 41.4778 0.232766 43.0112 0.0609073C43.8133 -0.0282855 44.5977 -0.0304482 45.4019 0.128358C46.6813 0.380709 47.9827 0.302394 49.2775 0.211026C49.7084 0.18057 50.1304 0.104423 50.5634 0.204493C51.4207 0.400282 52.2803 0.319784 53.1377 0.169679C53.5 0.106591 53.8668 0.0456941 54.2336 0.0217643C54.8589 -0.0195689 55.4555 0.084854 56.0344 0.350257C56.5978 0.609133 57.1922 0.78969 57.8241 0.563445C59.1167 0.563445 60.4004 0.382885 61.7019 0.537341C62.4244 0.622183 63.1801 0.424198 63.9093 0.489461C64.6428 0.554724 65.3609 0.75487 66.1121 0.713537C66.9717 0.667853 67.8334 0.720082 68.6818 0.461206C69.4198 0.234961 70.1137 0.576496 70.9202 0.698321C70.7501 0.844075 70.6815 0.955009 70.6086 0.957184C69.8088 0.98329 69.0067 1.00724 68.2068 1.00289C67.281 0.998536 66.3552 0.957202 65.4316 0.948501C65.1421 0.946325 64.8549 1.00506 64.5654 1.16604C64.9477 1.4445 65.33 1.37705 65.6923 1.37488C69.2718 1.3553 72.8513 1.3292 76.4308 1.30092C77.8494 1.29004 79.2679 1.43145 80.6864 1.27699C80.8079 1.26394 80.9383 1.26393 81.0554 1.29439C82.0939 1.56414 83.1347 1.41185 84.182 1.34224C85.1674 1.27698 86.1573 1.25305 87.1428 1.28568C87.8763 1.30961 88.6055 1.49887 89.3391 1.53586C90.0726 1.57284 90.8128 1.50322 91.5508 1.50104C91.9198 1.49887 92.291 1.52064 92.6556 1.57285C93.5195 1.69902 94.3636 1.67073 95.2209 1.47276C96.065 1.27697 96.9222 1.31178 97.7928 1.44666C99.1318 1.65332 100.488 1.75123 101.839 1.89481C101.9 1.90133 101.965 1.91222 102.024 1.90134C103.184 1.7012 104.346 1.69465 105.509 1.87739C106.145 1.7077 106.722 1.88394 107.294 2.14717C107.818 2.38646 108.359 2.41254 108.916 2.22981C109.879 1.91219 110.836 1.90352 111.821 2.20155C112.893 2.52569 114.013 2.51264 115.127 2.4452C115.555 2.41909 115.989 2.3647 116.415 2.38428C117.71 2.44519 119 2.50393 120.299 2.40821C121.097 2.34947 121.903 2.43866 122.65 2.78455C122.699 2.80631 122.741 2.86722 122.759 2.91725C122.798 3.02602 122.73 3.12174 122.575 3.13697C120.483 3.35016 118.388 3.30666 116.296 3.16743C116.172 3.15873 116.042 3.16091 115.931 3.1174C114.736 2.65838 113.494 2.8324 112.265 2.85633C111.404 2.87374 110.542 2.95423 109.68 2.99556C109.373 3.01079 109.057 3.04344 108.761 2.98688C107.411 2.72583 106.05 2.90639 104.696 2.85418C104.38 2.84113 104.28 3.00646 104.307 3.47417C104.322 3.75481 104.148 3.93537 103.88 3.88098C103.708 3.84617 103.474 3.80266 103.394 3.68301C103.133 3.2849 102.826 3.27185 102.444 3.46111C102.223 3.56988 102 3.67213 101.77 3.76132C101.503 3.86574 101.35 3.79395 101.089 3.37409C100.944 3.13914 100.76 3.01732 100.495 3.05648C100.192 3.10217 99.892 3.17831 99.5937 3.25228C99.5495 3.26315 99.5251 3.34582 99.4853 3.38715C98.9573 3.91796 98.8358 3.96146 98.5994 3.51332C98.3121 2.96511 97.9011 2.88026 97.3753 2.9651C97.0107 3.02384 96.6461 3.09348 96.2859 3.1805C96.1114 3.22183 95.8683 3.27186 95.7998 3.39586C95.5103 3.91579 95.0044 3.9049 94.5271 3.98104C94.4056 4.00062 94.2818 4.01585 94.1603 4.0376C93.7007 4.1181 93.2588 4.02021 92.9848 3.66561C92.607 3.17614 92.1054 2.99558 91.5398 2.9847C90.7929 2.96947 90.0527 3.04779 89.4981 3.63951C89.3169 3.83312 89.0893 3.91579 88.8396 3.91144C88.4706 3.90491 88.1016 3.86139 87.7304 3.84617C87.4233 3.83311 87.1096 3.79613 86.8113 3.84399C85.7662 4.01585 84.7211 3.95059 83.6716 3.90926C82.5646 3.86575 81.4509 3.75045 80.3484 3.9854C79.5794 4.14855 78.868 4.02672 78.2581 3.53724C77.7941 3.16525 77.2505 3.10218 76.6959 3.06737C76.4418 3.05214 76.1767 3.12827 76.0619 3.35887C75.9182 3.65038 75.7591 3.86791 75.4056 3.91577C75.1625 3.9484 74.915 4.00062 74.6875 4.08981C74.1991 4.28125 73.6998 4.28996 73.2468 4.07242C72.7055 3.81137 72.173 3.84617 71.6206 3.95494C71.3179 4.01367 71.0173 4.07675 70.7124 4.13331C70.2815 4.21163 69.8308 4.24644 69.4375 4.06371C68.958 3.83964 68.4875 3.84834 67.9925 3.9223C65.3609 4.31823 62.7094 4.38784 60.0535 4.37914C59.6227 4.37696 59.1874 4.38351 58.7588 4.43137C57.3447 4.59018 55.9327 4.47487 54.5208 4.42702C54.0281 4.40961 53.5331 4.39873 53.0403 4.39873C51.9908 4.39656 50.9413 4.39002 49.894 4.41177C49.0919 4.42918 48.2921 4.48139 47.49 4.5249C46.1974 4.59669 44.907 4.7011 43.61 4.57057C42.8035 4.48356 42.0103 4.59669 40.8194 4.71852ZM10.8002 8.65169L10.7494 8.69086L10.7892 8.64518C10.9306 8.5995 11.0697 8.55163 10.8841 8.61255C11.0653 8.5364 10.9328 8.59513 10.8002 8.65169ZM53.4978 6.06945C53.2017 6.08468 52.8327 6.10426 52.4637 6.12819C52.4062 6.13254 52.3223 6.15213 52.298 6.19347C52.2427 6.28266 52.1566 6.4284 52.1919 6.48061C52.4703 6.89829 52.8924 7.08757 53.2857 6.95487C53.6922 6.81781 54.0833 6.63726 54.4766 6.46757C54.5163 6.45017 54.565 6.34357 54.5539 6.3327C54.481 6.25873 54.3992 6.15866 54.3064 6.14126C54.0656 6.09992 53.8182 6.09556 53.4978 6.06945ZM46.151 6.29135C48.3937 6.55675 48.3937 6.55674 49.0256 6.14559C47.9473 6.1978 47.0525 6.15647 46.151 6.29135ZM70.8075 8.20356C71.0218 8.24055 71.1963 8.29492 71.3708 8.29709C71.8614 8.29927 72.352 8.29276 72.8403 8.26013C73.006 8.24925 73.0347 8.13611 72.9242 8.02734C72.3343 7.84678 71.7244 7.95121 71.1168 8.00995C71.024 8.02082 70.94 8.11872 70.8075 8.20356ZM34.8778 5.10793C35.3043 5.27108 35.6003 5.24498 35.998 5.10793C35.6025 5.10793 35.3087 5.10793 34.8778 5.10793ZM39.6659 6.31963C40.2448 6.36531 40.4194 6.38488 40.5961 6.39141C40.6536 6.39359 40.7442 6.38925 40.7663 6.35227C40.8237 6.26308 40.7442 6.21303 40.5696 6.23043C40.4017 6.24783 40.236 6.26307 39.6659 6.31963ZM50.8088 6.38926C50.7845 6.33922 50.7733 6.26525 50.7336 6.24785C50.601 6.18694 50.495 6.23045 50.4641 6.3588C50.453 6.40013 50.4972 6.48278 50.537 6.50236C50.6674 6.56762 50.7624 6.51979 50.8088 6.38926ZM10.5925 7.40299L10.661 7.31382H10.524L10.5925 7.40299Z" fill="#1C621E"/>
<path d="M85.3243 0.269778C86.175 0.291532 87.0235 0.306747 87.8742 0.337203C88.0266 0.343729 88.0819 0.465549 88.031 0.604777C88.0112 0.656987 87.989 0.720084 87.947 0.75054C87.852 0.820154 87.7504 0.891934 87.6377 0.931092C87.525 0.970249 87.3947 0.99853 87.2775 0.985477C85.7574 0.831022 84.2328 0.959389 82.7104 0.894126C82.5535 0.8876 82.3967 0.759243 82.2486 0.67005C82.2243 0.654822 82.2354 0.513417 82.2597 0.504715C82.485 0.422049 82.7126 0.300231 82.9446 0.293705C83.7379 0.267599 84.5311 0.282817 85.3243 0.282817C85.3243 0.278466 85.3243 0.274129 85.3243 0.269778Z" fill="#1C621E"/>
<path d="M124.635 3.0565C126.256 2.71931 127.801 2.83244 129.341 2.82374C129.582 2.82156 129.825 2.89987 130.066 2.9499C130.214 2.98036 130.282 3.0826 130.245 3.22183C130.231 3.26969 130.172 3.33279 130.13 3.33714C129.58 3.385 129.029 3.43067 128.479 3.4633C128.296 3.47418 128.108 3.45677 127.925 3.43502C126.829 3.31102 125.73 3.18267 124.635 3.0565Z" fill="#1C621E"/>
<path d="M100.458 8.27534C100.292 8.1992 100.1 8.15135 99.9627 8.0404C99.5561 7.70539 99.0987 7.61183 98.5861 7.67492C98.2834 7.7119 97.974 7.75759 97.6956 7.57486C97.6492 7.5444 97.5852 7.48132 97.5918 7.44434C97.6095 7.33992 97.6382 7.16806 97.7023 7.14848C97.9918 7.05929 98.2966 6.95485 98.5927 6.96573C99.5738 7.00053 100.553 7.08105 101.534 7.15066C101.589 7.15501 101.682 7.20067 101.688 7.23548C101.704 7.33772 101.724 7.48566 101.666 7.54222C101.41 7.8011 101.127 8.03387 100.855 8.27534L100.869 8.29709C100.729 8.29709 100.59 8.29709 100.451 8.29709L100.458 8.27534Z" fill="#1C621E"/>
<path d="M109.691 8.00997C109.216 7.95776 108.735 7.90772 108.253 7.85116C108.081 7.83158 107.855 7.57052 107.935 7.48568C108.047 7.36603 108.195 7.22246 108.346 7.19636C109.265 7.03973 110.153 7.25509 111.039 7.46175C111.081 7.47263 111.145 7.57053 111.132 7.60534C111.094 7.70106 111.037 7.85115 110.966 7.86202C110.549 7.92729 110.124 7.96211 109.691 8.00997Z" fill="#1C621E"/>
<path d="M77.7389 0.180581C77.8604 0.202335 78.278 0.274113 78.6934 0.358954C78.7265 0.365481 78.7597 0.454685 78.7641 0.506896C78.7685 0.55693 78.7509 0.630882 78.7133 0.656988C78.6205 0.728777 78.5122 0.826682 78.4083 0.831033C77.6173 0.850612 76.8241 0.857126 76.033 0.846249C75.9579 0.846249 75.8254 0.698338 75.8232 0.620022C75.8232 0.524303 75.9116 0.389416 76.0022 0.337205C76.4507 0.0826798 76.9501 0.161002 77.7389 0.180581Z" fill="#1C621E"/>
<path d="M71.7022 5.29066C72.4977 5.43642 73.1783 5.2254 73.8434 4.90779C73.9539 4.85558 74.0489 4.96218 74.0467 5.10794C74.0467 5.1645 74.0334 5.24064 73.9958 5.27327C73.8633 5.38639 73.7263 5.55388 73.5716 5.57563C72.6723 5.69963 71.7686 5.74532 70.8649 5.61045C70.8274 5.60392 70.7809 5.52561 70.7787 5.47775C70.7765 5.43424 70.8251 5.35158 70.8582 5.34723C71.1521 5.31895 71.4504 5.30589 71.7022 5.29066Z" fill="#1C621E"/>
<path d="M77.8603 4.99264C78.3442 4.73159 78.8481 4.63151 79.3828 4.8186C79.427 4.83382 79.4932 4.90998 79.4844 4.93826C79.4512 5.0405 79.4137 5.18409 79.3364 5.21672C79.1817 5.28416 78.9872 5.34287 78.8325 5.30589C78.4923 5.22758 78.1674 5.08619 77.8382 4.97089L77.8603 4.99264Z" fill="#1C621E"/>
<path d="M66.3243 5.21889C66.4281 5.26892 66.5474 5.30154 66.6336 5.37116C66.7662 5.47993 66.6248 5.68442 66.3707 5.73011C66.1939 5.76056 66.0106 5.77143 65.8294 5.77361C65.7808 5.77361 65.7078 5.72792 65.6857 5.68441C65.6238 5.56041 65.6769 5.46253 65.8139 5.39944C65.9244 5.3494 66.0305 5.29283 66.1432 5.24932C66.2006 5.22539 66.2646 5.22759 66.3243 5.21889Z" fill="#1C621E"/>
<path d="M96.0584 0.417693C96.1048 0.443798 96.1754 0.461202 96.1931 0.50036C96.2086 0.535167 96.1842 0.617839 96.1489 0.641769C96.0539 0.707032 95.95 0.780992 95.8396 0.800571C95.7401 0.817974 95.6275 0.770119 95.5214 0.75054C95.5877 0.667874 95.6385 0.561283 95.7247 0.511248C95.8197 0.454687 95.9457 0.448149 96.0584 0.417693Z" fill="#1C621E"/>
<path d="M119.946 8.05345C120.052 8.01212 120.162 7.93598 120.262 7.94468C120.363 7.95338 120.459 8.04692 120.558 8.10566C120.447 8.14264 120.335 8.2101 120.229 8.20357C120.131 8.19487 120.041 8.10566 119.946 8.05345Z" fill="#1C621E"/>
<path d="M132.384 3.19354C132.503 3.17178 132.657 3.11521 132.803 3.13044C132.876 3.13914 132.934 3.27838 133 3.35887C132.907 3.40891 132.819 3.49376 132.724 3.50028C132.472 3.51333 132.324 3.39585 132.384 3.19354Z" fill="#1C621E"/>
<path d="M109.296 8.45375C109.404 8.42765 109.512 8.39064 109.623 8.37759C109.674 8.37107 109.775 8.41892 109.775 8.4298C109.738 8.69955 109.539 8.55599 109.402 8.55599C109.366 8.55817 109.331 8.49074 109.296 8.45375Z" fill="#1C621E"/>
<path d="M65.7763 6.58938C65.7697 6.63507 65.7719 6.71338 65.7542 6.71773C65.657 6.74166 65.5377 6.78299 65.4582 6.74819C65.3388 6.6938 65.3566 6.57198 65.4935 6.535C65.5775 6.51542 65.6813 6.5698 65.7763 6.58938Z" fill="#1C621E"/>
<path d="M104.192 7.23766C104.342 7.2333 104.459 7.31164 104.415 7.42259C104.386 7.49655 104.236 7.54874 104.132 7.56615C103.986 7.59225 103.869 7.49654 103.911 7.38342C103.938 7.31163 104.094 7.28551 104.192 7.23766Z" fill="#1C621E"/>
<path d="M125.001 8.15353C124.939 8.15353 124.878 8.15353 124.818 8.15353C124.829 8.11655 124.833 8.05129 124.849 8.04694C124.906 8.03606 124.97 8.04477 125.03 8.04694C125.019 8.08392 125.008 8.12308 125.001 8.15353Z" fill="#1C621E"/>
<path d="M91.847 3.67214C91.8425 3.71348 91.8491 3.78528 91.8314 3.7918C91.7917 3.80703 91.7033 3.80267 91.6967 3.78527C91.6481 3.65909 91.7056 3.61993 91.847 3.67214Z" fill="#1C621E"/>
<path d="M106.275 7.32686C106.271 7.37472 106.277 7.45521 106.258 7.46174C106.209 7.47914 106.105 7.47914 106.099 7.45738C106.041 7.31816 106.11 7.27248 106.275 7.32686Z" fill="#1C621E"/>
<path d="M107.842 3.93974C107.8 3.92016 107.758 3.8984 107.716 3.87882C107.738 3.83749 107.751 3.77221 107.784 3.75916C107.815 3.74828 107.866 3.79397 107.91 3.81354C107.888 3.85705 107.864 3.8984 107.842 3.93974Z" fill="#1C621E"/>
<path d="M115.376 7.6684C115.429 7.6684 115.5 7.64665 115.531 7.67275C115.637 7.75977 115.606 7.84026 115.454 7.86419C115.416 7.87072 115.352 7.82504 115.33 7.78588C115.315 7.76412 115.359 7.70755 115.376 7.6684Z" fill="#1C621E"/>
<path d="M116.541 1.20955L116.581 1.09207L116.691 1.17256L116.541 1.20955Z" fill="#1C621E"/>
<path d="M62.663 8.6082C62.6233 8.62343 62.5835 8.63865 62.5437 8.65605C62.5283 8.6169 62.4929 8.56686 62.5062 8.54293C62.5216 8.51465 62.5791 8.50812 62.6211 8.49072C62.6343 8.5277 62.6476 8.56904 62.663 8.6082Z" fill="#1C621E"/>
<path d="M77.8361 4.97306C77.8074 5.05573 77.7786 5.1384 77.7499 5.21889C77.7499 5.17973 77.7366 5.13404 77.7543 5.10358C77.7786 5.06007 77.825 5.02962 77.8603 4.99264L77.8361 4.97306Z" fill="#1C621E"/>
<path d="M100.851 8.27535C100.721 8.27535 100.59 8.27534 100.458 8.27534L100.447 8.29493C100.586 8.29493 100.725 8.29493 100.864 8.29493L100.851 8.27535Z" fill="#1C621E"/>
</svg>
