<svg width="210" height="105" viewBox="0 0 210 105" fill="none" xmlns="http://www.w3.org/2000/svg">
<g clip-path="url(#clip0_146_138)">
<rect width="210" height="105" fill="white"/>
<rect width="210" height="105" fill="#CEE1F3"/>
<g opacity="0.2">
<path d="M7.5 4V7.5M7.5 11V7.5M7.5 7.5H11M7.5 7.5H4" stroke="black" stroke-width="0.5"/>
<path d="M7.5 19V22.5M7.5 26V22.5M7.5 22.5H11M7.5 22.5H4" stroke="black" stroke-width="0.5"/>
<path d="M7.5 34V37.5M7.5 41V37.5M7.5 37.5H11M7.5 37.5H4" stroke="black" stroke-width="0.5"/>
<path d="M7.5 49V52.5M7.5 56V52.5M7.5 52.5H11M7.5 52.5H4" stroke="black" stroke-width="0.5"/>
<path d="M7.5 64V67.5M7.5 71V67.5M7.5 67.5H11M7.5 67.5H4" stroke="black" stroke-width="0.5"/>
<path d="M7.5 79V82.5M7.5 86V82.5M7.5 82.5H11M7.5 82.5H4" stroke="black" stroke-width="0.5"/>
<path d="M7.5 94V97.5M7.5 101V97.5M7.5 97.5H11M7.5 97.5H4" stroke="black" stroke-width="0.5"/>
<path d="M22.5 4V7.5M22.5 11V7.5M22.5 7.5H26M22.5 7.5H19" stroke="black" stroke-width="0.5"/>
<path d="M22.5 19V22.5M22.5 26V22.5M22.5 22.5H26M22.5 22.5H19" stroke="black" stroke-width="0.5"/>
<path d="M22.5 34V37.5M22.5 41V37.5M22.5 37.5H26M22.5 37.5H19" stroke="black" stroke-width="0.5"/>
<path d="M22.5 49V52.5M22.5 56V52.5M22.5 52.5H26M22.5 52.5H19" stroke="black" stroke-width="0.5"/>
<path d="M22.5 64V67.5M22.5 71V67.5M22.5 67.5H26M22.5 67.5H19" stroke="black" stroke-width="0.5"/>
<path d="M22.5 79V82.5M22.5 86V82.5M22.5 82.5H26M22.5 82.5H19" stroke="black" stroke-width="0.5"/>
<path d="M22.5 94V97.5M22.5 101V97.5M22.5 97.5H26M22.5 97.5H19" stroke="black" stroke-width="0.5"/>
<path d="M37.5 4V7.5M37.5 11V7.5M37.5 7.5H41M37.5 7.5H34" stroke="black" stroke-width="0.5"/>
<path d="M37.5 19V22.5M37.5 26V22.5M37.5 22.5H41M37.5 22.5H34" stroke="black" stroke-width="0.5"/>
<path d="M37.5 34V37.5M37.5 41V37.5M37.5 37.5H41M37.5 37.5H34" stroke="black" stroke-width="0.5"/>
<path d="M37.5 49V52.5M37.5 56V52.5M37.5 52.5H41M37.5 52.5H34" stroke="black" stroke-width="0.5"/>
<path d="M37.5 64V67.5M37.5 71V67.5M37.5 67.5H41M37.5 67.5H34" stroke="black" stroke-width="0.5"/>
<path d="M37.5 79V82.5M37.5 86V82.5M37.5 82.5H41M37.5 82.5H34" stroke="black" stroke-width="0.5"/>
<path d="M37.5 94V97.5M37.5 101V97.5M37.5 97.5H41M37.5 97.5H34" stroke="black" stroke-width="0.5"/>
<path d="M52.5 4V7.5M52.5 11V7.5M52.5 7.5H56M52.5 7.5H49" stroke="black" stroke-width="0.5"/>
<path d="M52.5 19V22.5M52.5 26V22.5M52.5 22.5H56M52.5 22.5H49" stroke="black" stroke-width="0.5"/>
<path d="M52.5 34V37.5M52.5 41V37.5M52.5 37.5H56M52.5 37.5H49" stroke="black" stroke-width="0.5"/>
<path d="M52.5 49V52.5M52.5 56V52.5M52.5 52.5H56M52.5 52.5H49" stroke="black" stroke-width="0.5"/>
<path d="M52.5 64V67.5M52.5 71V67.5M52.5 67.5H56M52.5 67.5H49" stroke="black" stroke-width="0.5"/>
<path d="M52.5 79V82.5M52.5 86V82.5M52.5 82.5H56M52.5 82.5H49" stroke="black" stroke-width="0.5"/>
<path d="M52.5 94V97.5M52.5 101V97.5M52.5 97.5H56M52.5 97.5H49" stroke="black" stroke-width="0.5"/>
<path d="M67.5 4V7.5M67.5 11V7.5M67.5 7.5H71M67.5 7.5H64" stroke="black" stroke-width="0.5"/>
<path d="M67.5 19V22.5M67.5 26V22.5M67.5 22.5H71M67.5 22.5H64" stroke="black" stroke-width="0.5"/>
<path d="M67.5 34V37.5M67.5 41V37.5M67.5 37.5H71M67.5 37.5H64" stroke="black" stroke-width="0.5"/>
<path d="M67.5 49V52.5M67.5 56V52.5M67.5 52.5H71M67.5 52.5H64" stroke="black" stroke-width="0.5"/>
<path d="M67.5 64V67.5M67.5 71V67.5M67.5 67.5H71M67.5 67.5H64" stroke="black" stroke-width="0.5"/>
<path d="M67.5 79V82.5M67.5 86V82.5M67.5 82.5H71M67.5 82.5H64" stroke="black" stroke-width="0.5"/>
<path d="M67.5 94V97.5M67.5 101V97.5M67.5 97.5H71M67.5 97.5H64" stroke="black" stroke-width="0.5"/>
<path d="M82.5 4V7.5M82.5 11V7.5M82.5 7.5H86M82.5 7.5H79" stroke="black" stroke-width="0.5"/>
<path d="M82.5 19V22.5M82.5 26V22.5M82.5 22.5H86M82.5 22.5H79" stroke="black" stroke-width="0.5"/>
<path d="M82.5 34V37.5M82.5 41V37.5M82.5 37.5H86M82.5 37.5H79" stroke="black" stroke-width="0.5"/>
<path d="M82.5 49V52.5M82.5 56V52.5M82.5 52.5H86M82.5 52.5H79" stroke="black" stroke-width="0.5"/>
<path d="M82.5 64V67.5M82.5 71V67.5M82.5 67.5H86M82.5 67.5H79" stroke="black" stroke-width="0.5"/>
<path d="M82.5 79V82.5M82.5 86V82.5M82.5 82.5H86M82.5 82.5H79" stroke="black" stroke-width="0.5"/>
<path d="M82.5 94V97.5M82.5 101V97.5M82.5 97.5H86M82.5 97.5H79" stroke="black" stroke-width="0.5"/>
<path d="M97.5 4V7.5M97.5 11V7.5M97.5 7.5H101M97.5 7.5H94" stroke="black" stroke-width="0.5"/>
<path d="M97.5 19V22.5M97.5 26V22.5M97.5 22.5H101M97.5 22.5H94" stroke="black" stroke-width="0.5"/>
<path d="M97.5 34V37.5M97.5 41V37.5M97.5 37.5H101M97.5 37.5H94" stroke="black" stroke-width="0.5"/>
<path d="M97.5 49V52.5M97.5 56V52.5M97.5 52.5H101M97.5 52.5H94" stroke="black" stroke-width="0.5"/>
<path d="M97.5 64V67.5M97.5 71V67.5M97.5 67.5H101M97.5 67.5H94" stroke="black" stroke-width="0.5"/>
<path d="M97.5 79V82.5M97.5 86V82.5M97.5 82.5H101M97.5 82.5H94" stroke="black" stroke-width="0.5"/>
<path d="M97.5 94V97.5M97.5 101V97.5M97.5 97.5H101M97.5 97.5H94" stroke="black" stroke-width="0.5"/>
<path d="M112.5 4V7.5M112.5 11V7.5M112.5 7.5H116M112.5 7.5H109" stroke="black" stroke-width="0.5"/>
<path d="M112.5 19V22.5M112.5 26V22.5M112.5 22.5H116M112.5 22.5H109" stroke="black" stroke-width="0.5"/>
<path d="M112.5 34V37.5M112.5 41V37.5M112.5 37.5H116M112.5 37.5H109" stroke="black" stroke-width="0.5"/>
<path d="M112.5 49V52.5M112.5 56V52.5M112.5 52.5H116M112.5 52.5H109" stroke="black" stroke-width="0.5"/>
<path d="M112.5 64V67.5M112.5 71V67.5M112.5 67.5H116M112.5 67.5H109" stroke="black" stroke-width="0.5"/>
<path d="M112.5 79V82.5M112.5 86V82.5M112.5 82.5H116M112.5 82.5H109" stroke="black" stroke-width="0.5"/>
<path d="M112.5 94V97.5M112.5 101V97.5M112.5 97.5H116M112.5 97.5H109" stroke="black" stroke-width="0.5"/>
<path d="M127.5 4V7.5M127.5 11V7.5M127.5 7.5H131M127.5 7.5H124" stroke="black" stroke-width="0.5"/>
<path d="M127.5 19V22.5M127.5 26V22.5M127.5 22.5H131M127.5 22.5H124" stroke="black" stroke-width="0.5"/>
<path d="M127.5 34V37.5M127.5 41V37.5M127.5 37.5H131M127.5 37.5H124" stroke="black" stroke-width="0.5"/>
<path d="M127.5 49V52.5M127.5 56V52.5M127.5 52.5H131M127.5 52.5H124" stroke="black" stroke-width="0.5"/>
<path d="M127.5 64V67.5M127.5 71V67.5M127.5 67.5H131M127.5 67.5H124" stroke="black" stroke-width="0.5"/>
<path d="M127.5 79V82.5M127.5 86V82.5M127.5 82.5H131M127.5 82.5H124" stroke="black" stroke-width="0.5"/>
<path d="M127.5 94V97.5M127.5 101V97.5M127.5 97.5H131M127.5 97.5H124" stroke="black" stroke-width="0.5"/>
<path d="M142.5 4V7.5M142.5 11V7.5M142.5 7.5H146M142.5 7.5H139" stroke="black" stroke-width="0.5"/>
<path d="M142.5 19V22.5M142.5 26V22.5M142.5 22.5H146M142.5 22.5H139" stroke="black" stroke-width="0.5"/>
<path d="M142.5 34V37.5M142.5 41V37.5M142.5 37.5H146M142.5 37.5H139" stroke="black" stroke-width="0.5"/>
<path d="M142.5 49V52.5M142.5 56V52.5M142.5 52.5H146M142.5 52.5H139" stroke="black" stroke-width="0.5"/>
<path d="M142.5 64V67.5M142.5 71V67.5M142.5 67.5H146M142.5 67.5H139" stroke="black" stroke-width="0.5"/>
<path d="M142.5 79V82.5M142.5 86V82.5M142.5 82.5H146M142.5 82.5H139" stroke="black" stroke-width="0.5"/>
<path d="M142.5 94V97.5M142.5 101V97.5M142.5 97.5H146M142.5 97.5H139" stroke="black" stroke-width="0.5"/>
<path d="M157.5 4V7.5M157.5 11V7.5M157.5 7.5H161M157.5 7.5H154" stroke="black" stroke-width="0.5"/>
<path d="M157.5 19V22.5M157.5 26V22.5M157.5 22.5H161M157.5 22.5H154" stroke="black" stroke-width="0.5"/>
<path d="M157.5 34V37.5M157.5 41V37.5M157.5 37.5H161M157.5 37.5H154" stroke="black" stroke-width="0.5"/>
<path d="M157.5 49V52.5M157.5 56V52.5M157.5 52.5H161M157.5 52.5H154" stroke="black" stroke-width="0.5"/>
<path d="M157.5 64V67.5M157.5 71V67.5M157.5 67.5H161M157.5 67.5H154" stroke="black" stroke-width="0.5"/>
<path d="M157.5 79V82.5M157.5 86V82.5M157.5 82.5H161M157.5 82.5H154" stroke="black" stroke-width="0.5"/>
<path d="M157.5 94V97.5M157.5 101V97.5M157.5 97.5H161M157.5 97.5H154" stroke="black" stroke-width="0.5"/>
<path d="M172.5 4V7.5M172.5 11V7.5M172.5 7.5H176M172.5 7.5H169" stroke="black" stroke-width="0.5"/>
<path d="M172.5 19V22.5M172.5 26V22.5M172.5 22.5H176M172.5 22.5H169" stroke="black" stroke-width="0.5"/>
<path d="M172.5 34V37.5M172.5 41V37.5M172.5 37.5H176M172.5 37.5H169" stroke="black" stroke-width="0.5"/>
<path d="M172.5 49V52.5M172.5 56V52.5M172.5 52.5H176M172.5 52.5H169" stroke="black" stroke-width="0.5"/>
<path d="M172.5 64V67.5M172.5 71V67.5M172.5 67.5H176M172.5 67.5H169" stroke="black" stroke-width="0.5"/>
<path d="M172.5 79V82.5M172.5 86V82.5M172.5 82.5H176M172.5 82.5H169" stroke="black" stroke-width="0.5"/>
<path d="M172.5 94V97.5M172.5 101V97.5M172.5 97.5H176M172.5 97.5H169" stroke="black" stroke-width="0.5"/>
<path d="M187.5 4V7.5M187.5 11V7.5M187.5 7.5H191M187.5 7.5H184" stroke="black" stroke-width="0.5"/>
<path d="M187.5 19V22.5M187.5 26V22.5M187.5 22.5H191M187.5 22.5H184" stroke="black" stroke-width="0.5"/>
<path d="M187.5 34V37.5M187.5 41V37.5M187.5 37.5H191M187.5 37.5H184" stroke="black" stroke-width="0.5"/>
<path d="M187.5 49V52.5M187.5 56V52.5M187.5 52.5H191M187.5 52.5H184" stroke="black" stroke-width="0.5"/>
<path d="M187.5 64V67.5M187.5 71V67.5M187.5 67.5H191M187.5 67.5H184" stroke="black" stroke-width="0.5"/>
<path d="M187.5 79V82.5M187.5 86V82.5M187.5 82.5H191M187.5 82.5H184" stroke="black" stroke-width="0.5"/>
<path d="M187.5 94V97.5M187.5 101V97.5M187.5 97.5H191M187.5 97.5H184" stroke="black" stroke-width="0.5"/>
<path d="M202.5 4V7.5M202.5 11V7.5M202.5 7.5H206M202.5 7.5H199" stroke="black" stroke-width="0.5"/>
<path d="M202.5 19V22.5M202.5 26V22.5M202.5 22.5H206M202.5 22.5H199" stroke="black" stroke-width="0.5"/>
<path d="M202.5 34V37.5M202.5 41V37.5M202.5 37.5H206M202.5 37.5H199" stroke="black" stroke-width="0.5"/>
<path d="M202.5 49V52.5M202.5 56V52.5M202.5 52.5H206M202.5 52.5H199" stroke="black" stroke-width="0.5"/>
<path d="M202.5 64V67.5M202.5 71V67.5M202.5 67.5H206M202.5 67.5H199" stroke="black" stroke-width="0.5"/>
<path d="M202.5 79V82.5M202.5 86V82.5M202.5 82.5H206M202.5 82.5H199" stroke="black" stroke-width="0.5"/>
<path d="M202.5 94V97.5M202.5 101V97.5M202.5 97.5H206M202.5 97.5H199" stroke="black" stroke-width="0.5"/>
</g>
</g>
<defs>
<clipPath id="clip0_146_138">
<rect width="210" height="105" fill="white"/>
</clipPath>
</defs>
</svg>
