<svg  viewBox="0 0 283 8" fill="none" xmlns="http://www.w3.org/2000/svg">
<path d="M190.633 1.902C190.74 2.09638 190.652 2.26084 190.352 2.29573C189.6 2.38295 188.84 2.46269 188.077 2.48013C186.417 2.51502 184.753 2.50755 183.226 2.51752C182.819 2.71439 182.865 2.84148 183.241 2.88883C183.617 2.93617 184.004 2.94614 184.388 2.94614C198.645 2.97853 212.906 2.99847 227.164 3.04582C228.699 3.05081 230.233 3.1779 231.76 3.30001C233.554 3.44205 235.335 3.51931 237.132 3.30251C237.884 3.21279 238.671 3.11559 239.423 3.16294C246.211 3.59156 253.015 3.50186 259.815 3.51432C260.571 3.51681 261.327 3.61648 262.08 3.68875C262.137 3.69373 262.209 3.82583 262.205 3.8956C262.201 3.96787 262.14 4.08 262.057 4.09993C261.589 4.21706 261.103 4.41643 260.636 4.39899C259.227 4.34666 257.836 4.25692 256.45 4.56095C255.986 4.66312 255.431 4.58838 254.919 4.58589C251.066 4.58091 247.214 4.56843 243.362 4.57092C237.71 4.57342 232.061 4.58586 226.408 4.59085C224.482 4.59334 222.563 4.62825 220.645 4.80269C219.251 4.92978 217.83 4.94224 216.421 4.94971C206.403 5.00204 196.381 5.02947 186.364 5.08429C183.286 5.10173 180.213 5.12166 177.132 5.32102C174.078 5.52038 170.982 5.47054 167.905 5.48051C153.26 5.51789 138.615 5.52536 123.974 5.56772C117.808 5.58517 111.643 5.68485 105.477 5.69731C99.0533 5.70728 92.6331 5.64249 86.2092 5.63501C77.2172 5.62504 68.2251 5.62752 59.2331 5.64995C57.5692 5.65493 55.9052 5.77206 54.2375 5.84184C52.9573 5.89417 51.6771 5.98389 50.3969 6.00382C47.4451 6.05117 44.4895 6.05865 41.534 6.09852C40.1208 6.11845 38.6924 6.09105 37.302 6.22561C33.9856 6.54957 30.6463 6.56453 27.3109 6.6343C25.7723 6.6667 24.2413 6.78134 22.7028 6.86108C18.7367 7.07041 14.8124 7.52892 10.8312 7.65352C9.80928 7.68592 8.79505 7.84791 7.77314 7.8828C5.8547 7.95008 3.92858 8.00241 2.00634 7.99991C0.900855 7.99991 0.160072 7.42926 0.110686 6.6692C0.0613005 5.91661 0.0308944 5.16152 0.000503163 4.40894C-0.0146925 4.03015 0.315835 3.74607 0.7831 3.60403C1.4745 3.39719 2.20387 3.20284 2.94846 3.12558C3.95897 3.02092 4.9961 3.04333 6.02181 2.98602C7.81109 2.88883 9.60033 2.77917 11.3896 2.66454C12.0278 2.62467 12.6623 2.53994 13.3005 2.51004C18.1669 2.28327 23.0181 1.95184 27.8617 1.5905C29.6434 1.45843 31.4517 1.48333 33.2485 1.44844C36.584 1.38614 39.927 1.42354 43.2397 1.05971C44.2464 0.95006 45.2873 0.979956 46.3168 0.957528C50.5488 0.8728 54.7808 0.862842 59.0128 0.593706C62.5837 0.366934 66.2002 0.396828 69.794 0.396828C83.1548 0.394336 96.5117 0.434222 109.872 0.441698C126.056 0.451666 142.243 0.454134 158.426 0.449151C163.692 0.446658 168.961 0.421764 174.226 0.381892C175.765 0.369432 177.299 0.269741 178.838 0.214917C179.476 0.192489 180.118 0.150114 180.756 0.172542C182.42 0.227366 184.084 0.366928 185.744 0.36942C187.271 0.371912 188.799 0.23484 190.326 0.170048C190.417 0.165064 190.611 0.277221 190.596 0.312109C190.546 0.449169 190.482 0.660996 190.341 0.693392C189.866 0.80304 189.357 0.89524 188.856 0.9077C187.317 0.950064 185.775 0.942567 184.232 0.979947C183.731 0.992407 183.218 1.05472 182.739 1.15191C182.599 1.17932 182.527 1.40359 182.485 1.54813C182.47 1.59797 182.625 1.71509 182.724 1.73004C183.218 1.79982 183.757 1.94684 184.217 1.88205C186.379 1.58301 188.51 1.72756 190.633 1.902ZM177.25 1.68021C177.155 1.63536 177.06 1.55312 176.965 1.55062C174.796 1.52321 172.627 1.50079 170.454 1.49331C169.967 1.49082 169.477 1.55063 168.945 1.58552C169.265 2.07395 169.85 1.9593 170.306 1.97425C171.35 2.00416 172.327 2.04155 172.999 2.70442C173.143 2.84646 173.755 2.90877 174.047 2.83401C175.115 2.56487 176.141 2.22596 177.17 1.902C177.235 1.87958 177.223 1.75497 177.25 1.68021ZM156.189 1.60794C155.885 1.60794 155.634 1.59797 155.383 1.61292C155.269 1.6204 155.095 1.65279 155.061 1.70513C154.958 1.86212 155.118 1.95184 155.452 1.98922C155.824 2.02909 156.189 2.10136 156.557 2.14372C156.876 2.1811 157.07 2.0914 157.063 1.9045C157.059 1.83971 156.952 1.74751 156.861 1.72259C156.626 1.66527 156.379 1.63784 156.189 1.60794Z" fill="#2F80A8"/>
<path d="M209.696 0.000621783C212.903 0.000621783 216.109 -0.00186778 219.315 0.00311621C220.599 0.00560821 221.891 -0.00686637 223.087 0.361949C223.274 0.419265 223.369 0.608657 223.505 0.735749C223.399 0.780605 223.293 0.86534 223.182 0.867832C221.006 0.907704 218.829 0.962534 216.648 0.967518C211.003 0.979978 205.362 0.974989 199.717 0.962529C198.961 0.960037 198.201 0.87781 197.445 0.81551C197.342 0.808034 197.16 0.698387 197.175 0.661007C197.225 0.513979 197.3 0.274742 197.441 0.249822C198.045 0.137682 198.676 0.0305221 199.299 0.0280301C202.763 0.00809412 206.224 0.0180524 209.689 0.0180524C209.696 0.0105764 209.696 0.00560578 209.696 0.000621783Z" fill="#2F80A8"/>
<path d="M274.509 3.80091C274.707 3.89062 274.984 3.95291 275.076 4.07502C275.167 4.19713 275.151 4.41893 275.03 4.52609C274.631 4.88244 274.05 4.98212 273.389 4.80519C273.229 4.76283 273.051 4.52358 273.096 4.41393C273.283 3.98531 273.814 3.77848 274.509 3.80091Z" fill="#2F80A8"/>
<path d="M282.104 4.46129C281.819 4.42391 281.454 4.39399 281.112 4.32172C280.835 4.26191 280.759 4.10742 280.903 3.96039C280.956 3.90557 281.108 3.85822 281.207 3.8632C281.568 3.88064 281.933 3.91055 282.286 3.9579C282.859 4.03515 283.198 4.27686 282.875 4.34663C282.65 4.39647 282.411 4.41643 282.104 4.46129Z" fill="#2F80A8"/>
<path d="M229.181 0.247302C229.542 0.224874 229.865 0.165053 230.161 0.202433C230.286 0.217385 230.488 0.474062 230.431 0.54633C230.245 0.780577 229.865 0.805507 229.546 0.680907C229.39 0.618607 229.337 0.441678 229.181 0.247302Z" fill="#2F80A8"/>
<path d="M269.066 4.52109C268.933 4.38902 268.743 4.26938 268.686 4.12485C268.636 4.00025 268.667 3.81334 268.784 3.71865C268.982 3.55916 269.578 3.63392 269.711 3.84325C269.787 3.95788 269.746 4.15475 269.632 4.25443C269.502 4.36907 269.236 4.42139 269.031 4.49864L269.066 4.52109Z" fill="#2F80A8"/>
<path d="M205.772 1.85215C205.947 1.69765 206.167 1.66029 206.38 1.77741C206.448 1.81479 206.49 1.93938 206.445 1.98673C206.293 2.15369 206.061 2.18361 205.848 2.06649C205.78 2.02911 205.795 1.92442 205.772 1.85215Z" fill="#2F80A8"/>
<path d="M274.528 0.865315C274.414 0.852855 274.232 0.86284 274.194 0.820476C274.046 0.648528 274.175 0.553824 274.521 0.593696C274.62 0.603664 274.699 0.680923 274.787 0.725779C274.699 0.770635 274.616 0.817967 274.528 0.865315Z" fill="#2F80A8"/>
<path d="M256.404 0.775616L256.165 0.720799L256.358 0.636049L256.404 0.775616Z" fill="#2F80A8"/>
<path d="M278.669 0.822949L278.533 0.680919L278.81 0.683413L278.669 0.822949Z" fill="#2F80A8"/>
<path d="M218.415 1.7176L218.662 1.66774L218.628 1.80232L218.415 1.7176Z" fill="#2F80A8"/>
</svg>
