<svg viewBox="0 0 239 51" fill="none" xmlns="http://www.w3.org/2000/svg">
<path d="M64.398 7.55769C66.5787 6.46266 68.8718 5.90112 71.3278 5.89551C74.5257 5.89551 77.7234 5.78322 80.9213 5.78322C89.7169 5.77199 98.5125 5.74396 107.302 5.83381C110.225 5.86189 113.159 6.07523 116.053 6.47955C118.234 6.78279 120.308 6.77155 122.32 5.90675C125.321 4.61517 128.479 4.41856 131.689 4.16025C137.253 3.711 142.822 3.10452 148.33 2.1948C151.258 1.71186 154.09 1.2177 157.019 1.93088C159.666 2.57667 162.29 2.296 164.954 1.90291C167.32 1.54913 169.726 1.38629 172.12 1.34698C184.383 1.15043 196.641 1.07174 208.904 0.852737C212.895 0.779734 216.896 0.555073 220.858 0.111443C225.062 -0.36588 228.755 0.706781 232.183 3.00916C233.729 4.04805 235.263 5.1037 236.797 6.15942C237.747 6.81644 238.118 7.70375 238.011 8.87741C237.944 9.63551 237.91 10.5228 238.236 11.1574C238.871 12.3984 239.337 13.5833 238.686 14.9198C238.079 16.1552 237.893 17.4523 238.045 18.8001C238.152 19.7098 237.618 20.2714 237.044 20.8442C235.297 22.5907 233.251 23.6463 230.778 24.1068C228.89 24.4605 228.417 26.0779 229.508 27.7233C230.536 29.2732 231.705 30.7276 232.678 32.3112C233.06 32.9401 233.414 33.9284 233.183 34.5237C232.531 36.1971 232.857 37.6067 233.661 39.0836C234.892 41.341 232.981 44.2555 230.727 44.5531C224.927 45.3112 219.172 46.0131 213.254 45.9064C200.997 45.6818 188.733 46.0636 176.47 46.1423C167.141 46.1984 157.811 46.1816 148.482 46.1704C144.75 46.1647 141.04 46.2715 137.325 46.8331C131.75 47.681 126.17 47.7708 120.797 45.5078C119.83 45.1034 118.734 44.7609 117.706 44.7777C113.805 44.8451 111.231 43.1492 109.523 39.6283C108.753 38.0335 106.819 38.157 105.217 38.3591C104.813 38.4097 104.105 39.1509 104.138 39.2071C105.386 41.2849 103.593 43.3008 104.026 45.3168C105.566 46.496 107.662 45.5807 109.534 46.6982C103.739 48.0572 102.323 47.9281 96.1633 45.5527C94.3593 46.221 92.4539 47.1924 90.4306 47.5967C88.6378 47.9505 86.7214 47.6698 84.8555 47.6754C73.9298 47.7035 62.9985 47.7259 52.0729 47.7765C50.7409 47.7821 49.3753 47.7596 48.0883 48.0348C39.9615 49.7587 31.638 49.5061 23.4382 50.472C19.2174 50.9661 14.9236 50.9717 10.6635 50.9998C7.07223 51.0223 4.67791 49.1803 3.51453 45.7436C3.17732 44.744 2.88506 43.6322 2.23873 42.8572C-0.711864 39.3363 -0.24541 35.3717 0.811185 31.4688C1.19336 30.0649 2.58724 28.9306 3.70004 27.4369C3.27852 26.9989 2.86825 26.3755 2.29499 26.0161C1.3508 25.4321 0.502184 24.8481 0.502184 23.6127C0.502184 22.2088 0.968583 20.9341 2.10948 20.131C3.18294 19.3729 4.42511 18.8562 5.59411 18.2273C5.30186 17.8398 5.09386 17.3063 4.70607 17.0985C1.24404 15.2342 1.65992 14.1617 3.57078 11.5504C4.8016 9.86575 6.33014 9.13576 8.33093 9.19753C9.39314 9.23123 10.4611 9.39398 11.5233 9.38275C16.0532 9.33221 20.5604 9.2593 25.0285 8.21481C29.9855 7.05239 35.0888 7.15908 40.147 7.08607C41.4396 7.06923 42.7603 7.49592 44.0361 7.83847C45.5761 8.25402 47.0822 8.79877 48.6053 9.28171L48.504 9.19191C51.1399 11.2697 54.0625 12.1176 57.3503 11.118C58.0585 10.9046 58.8958 10.5059 59.2611 9.93307C59.7332 9.19181 59.0083 8.55162 58.4856 7.95076C58.1933 7.61382 58.1145 7.09167 57.9403 6.64804C58.418 6.46834 58.8903 6.20993 59.3849 6.1257C61.307 5.79999 63.0267 6.27736 64.5048 7.57456C64.2968 8.68644 64.443 9.75908 65.6851 10.0286C68.4783 10.6351 71.3164 10.6518 74.1434 10.197C74.7335 10.1015 74.9358 9.62985 74.6716 9.11322C74.5705 8.91667 74.2838 8.6752 74.0871 8.68643C72.2943 8.75943 70.496 8.883 68.7032 8.99531C67.0621 9.11885 65.6682 8.52357 64.398 7.55769ZM63.021 23.6576L62.9255 23.5564C65.7243 23.5228 68.4333 23.9496 70.9793 25.1907C66.382 26.9764 61.824 27.9086 57.3841 24.7245C56.6984 24.236 55.8441 24.2248 55.2765 24.9043C54.5852 25.7298 53.9388 26.5776 52.7641 26.6225C45.8682 26.8977 39.1017 28.5319 32.172 28.4869C30.07 28.4757 27.9569 28.8856 25.8605 29.1889C25.4109 29.2563 24.9837 29.6718 24.6127 29.9975C24.5059 30.0873 24.5845 30.6265 24.652 30.6377C28.8334 31.5418 33.0542 31.7721 37.2356 30.8119C40.3661 30.0931 43.4852 29.8403 46.6999 29.8908C50.6734 29.9582 54.6807 29.8964 58.6261 29.4415C63.392 28.8912 68.1073 28.5262 72.8901 29.1664C73.8511 29.2956 74.9245 28.7229 75.9249 28.414C76.116 28.3578 76.3127 28.0096 76.3239 27.785C76.3352 27.5604 76.1891 27.2178 76.0037 27.1055C74.8684 26.426 73.7049 25.7971 72.5528 25.1513C73.3452 25.0952 74.1772 25.1681 74.9246 24.9547C78.0438 24.045 81.1518 23.7362 84.3047 24.7807C84.552 24.865 84.8273 24.8593 85.0915 24.8762C85.3556 24.893 85.6199 24.8706 85.884 24.893C86.7495 24.9604 87.8062 24.1742 87.4746 23.6912C87.2048 23.2925 86.8002 22.759 86.4068 22.7141C82.2029 22.2368 77.9934 21.6584 73.7726 21.49C70.0633 21.3496 66.3425 21.6866 63.021 23.6576ZM99.7152 26.3025C94.3816 27.1729 90.6612 26.9203 86.9463 26.8753C85.9234 26.8641 84.895 27.201 83.8777 27.4369C83.7597 27.465 83.6359 27.8467 83.6584 28.0489C83.6865 28.2735 83.8271 28.6049 84.007 28.6779C84.732 28.9699 85.4907 29.3686 86.2438 29.3855C93.432 29.5259 100.615 29.8403 107.791 28.9306C110.427 28.5993 113.103 28.5262 115.761 28.4532C126.67 28.1556 137.59 27.9984 148.425 26.544C149.139 26.4485 149.251 26.0105 148.577 25.449C137.932 25.0222 127.041 24.6347 116.188 26.2576C115.148 26.4148 114.069 26.3306 113.013 26.2969C112.805 26.2913 112.406 25.9375 112.434 25.8476C112.569 25.4096 112.726 24.7639 113.046 24.6347C114.019 24.2529 115.064 23.8934 116.098 23.8597C120.617 23.7137 125.147 23.6857 129.671 23.607C132.593 23.5565 135.555 23.7756 138.433 23.3768C141.057 23.0174 143.659 22.6299 146.306 22.5512C146.509 22.5456 146.739 21.8157 146.84 21.3945C146.874 21.271 146.548 20.9621 146.335 20.889C145.835 20.7206 145.312 20.5578 144.789 20.5466C133.346 20.3613 121.926 21.2597 110.478 21.1979C105.453 21.1699 100.418 22.1021 95.3933 22.6187C95.191 22.6411 94.8313 22.9556 94.8538 23.0623C94.955 23.5116 95.0562 24.1405 95.3766 24.3315C96.2758 24.8762 97.2817 25.23 99.7152 26.3025ZM116.66 32.693C112.619 32.0528 108.651 31.598 104.706 32.2887C104.121 32.3898 103.947 32.9345 104.234 33.4399C104.346 33.6364 104.655 33.8723 104.858 33.8498C108.792 33.4848 112.726 33.0861 116.66 32.693ZM170.985 26.3699C171.075 26.0947 171.17 25.8195 171.26 25.5444C168.366 25.4938 165.471 25.4264 162.577 25.3927C161.515 25.3815 160.447 25.3648 159.396 25.4827C158.924 25.5332 157.991 25.3647 158.199 26.7349C162.543 26.6114 166.764 26.4934 170.985 26.3699ZM43.9856 24.5673C45.2221 25.3198 46.4922 25.1064 47.7455 25.0334C48.3918 24.9997 48.7233 24.6796 48.5828 24.1967C48.5322 24.017 48.2063 23.8036 48.004 23.8036C46.6383 23.8036 45.1434 23.2083 43.9856 24.5673ZM95.3371 33.3781C95.1123 33.3781 94.837 33.3219 94.5953 33.3893C94.1176 33.5185 93.651 33.7151 93.1845 33.8836C93.606 34.1026 94.0164 34.3552 94.4548 34.5237C94.6852 34.6135 94.983 34.6079 95.2303 34.5462C95.7136 34.4226 96.1858 34.2372 96.6579 34.0744C96.2307 33.8498 95.8035 33.6252 95.3371 33.3781ZM185.665 26.0386C186.064 25.9825 186.469 25.9263 186.868 25.8701C186.716 25.741 186.581 25.5445 186.407 25.4939C186.215 25.4378 185.957 25.4714 185.783 25.5612C185.687 25.623 185.704 25.8758 185.665 26.0386ZM73.5534 32.2831L72.9463 32.4459L73.3903 32.7829L73.5534 32.2831Z" fill="white"/>
<path d="M48.6052 9.29292C48.7345 8.84929 48.8358 8.39436 49.01 7.96196C49.0887 7.76542 49.3191 7.48473 49.4653 7.49034C50.0273 7.52404 50.1057 7.88908 49.6167 8.3664C49.2908 8.68649 48.8805 8.92233 48.504 9.1975C48.4983 9.20311 48.6052 9.29292 48.6052 9.29292Z" fill="white"/>
<path d="M70.8668 25.2524C71.4681 25.2524 72.0695 25.2524 72.6708 25.2524C72.0695 25.258 71.4681 25.258 70.8668 25.2524Z" fill="white"/>
</svg>
